<svg viewBox="0 0 265 331" fill="none" xmlns="http://www.w3.org/2000/svg">
<path fill-rule="evenodd" clip-rule="evenodd" d="M-66 39.3175C-66 17.603 -48.397 0 -26.6825 0H225.685C247.4 0 265.003 17.603 265.003 39.3175V222.858C265.003 244.572 247.4 262.175 225.685 262.175H101.968L30.1574 326.796C26.6866 329.92 22.047 331.413 17.4051 330.901C8.41627 329.908 1.93329 321.817 2.92637 312.827L8.56114 262.175H-26.6825C-48.397 262.175 -66 244.572 -66 222.858V39.3175ZM-26.6825 9.80749C-42.9804 9.80749 -56.1925 23.0196 -56.1925 39.3175V222.858C-56.1925 239.156 -42.9804 252.368 -26.6825 252.368H19.5202L12.6746 313.904C12.2763 317.509 14.8756 320.754 18.4811 321.153C20.3429 321.358 22.2043 320.759 23.5969 319.506L98.2049 252.368H225.685C241.983 252.368 255.195 239.156 255.195 222.858V39.3175C255.195 23.0196 241.983 9.80749 225.685 9.80749H-26.6825Z" fill="url(#paint0_linear_3580_6411)" fill-opacity="0.08"/>
<defs>
<linearGradient id="paint0_linear_3580_6411" x1="145.032" y1="-8.34725" x2="-43.5568" y2="278.308" gradientUnits="userSpaceOnUse">
<stop stop-color="#FF54AE"/>
<stop offset="1" stop-color="#00AFF0"/>
</linearGradient>
</defs>
</svg>
