<?xml version="1.0" encoding="UTF-8"?>
<svg id="Layer_1" data-name="Layer 1" xmlns="http://www.w3.org/2000/svg" viewBox="0 0 85.04 85.04">
  <defs>
    <style>
      .cls-1 {
        fill: #ceaaff;
      }
    </style>
  </defs>
  <polygon points="78.93 48.73 78.08 51.61 78.09 51.61 78.93 48.73"/>
  <polygon points="81.86 54.1 78.98 53.25 78.98 53.26 81.86 54.1"/>
  <path d="M84.74,54.95c1.14-3.88-1.08-7.95-4.96-9.09h0s-13.45-3.96-13.45-3.96h0c-8.13-2.39-12.78-10.92-10.38-19.05h0s-2.88-.85-2.88-.85l-.21-.06,3.08.91,3.96-13.45h0c1.14-3.88-1.08-7.95-4.96-9.1h0s-.85,2.88-.85,2.88v.04s.85-2.92.85-2.92c-3.88-1.14-7.95,1.08-9.09,4.96h0s0,0,0,0l-3.96,13.45c-2.39,8.13-10.92,12.78-19.05,10.38l-13.45-3.96c-3.88-1.14-7.95,1.08-9.09,4.96s1.08,7.95,4.96,9.09l13.45,3.96c8.13,2.39,12.78,10.92,10.38,19.05l-3.96,13.45h0s2.83.83,2.83.83h.01s-2.84-.83-2.84-.83c-1.14,3.88,1.08,7.95,4.96,9.09h0c3.88,1.14,7.95-1.08,9.09-4.96h0s3.96-13.45,3.96-13.45h0c2.39-8.13,10.92-12.78,19.05-10.38h0s.85-2.88.85-2.88l.07-.25-.92,3.13,13.45,3.96h0c3.88,1.14,7.95-1.07,9.09-4.95h0s0,0,0,0c0,0,0,0,0,0h0ZM78.98,53.26c-.21.7-.94,1.1-1.64.89l-.84,2.84h0s.84-2.84.84-2.84h0s-13.45-3.96-13.45-3.96c-11.31-3.33-23.17,3.14-26.5,14.45h0l-3.96,13.45h0c-.21.7-.94,1.1-1.64.9-.7-.21-1.1-.94-.9-1.65l3.96-13.45h0s-2.63-.77-2.63-.77l-.25-.07,2.88.85c3.33-11.31-3.14-23.17-14.45-26.5l-13.45-3.96c-.7-.21-1.1-.94-.9-1.64.21-.7.94-1.1,1.64-.9l13.45,3.96c11.31,3.33,23.17-3.14,26.5-14.45l3.96-13.45h0c.21-.7.94-1.1,1.65-.9.7.21,1.1.94.89,1.64h0s-3.96,13.45-3.96,13.45h0c-3.33,11.31,3.14,23.17,14.45,26.5l13.45,3.96.84-2.84-.83,2.84c.7.21,1.1.94.89,1.64l2.88.85-2.88-.85Z"/>
  <path class="cls-1" d="M54.1,3.18c-2.29-.67-4.7.64-5.37,2.93l-3.96,13.45c-2.86,9.72-13.06,15.28-22.78,12.42l-13.45-3.96c-2.29-.67-4.7.64-5.37,2.93-.67,2.29.64,4.7,2.93,5.37l13.45,3.96c9.72,2.86,15.28,13.06,12.42,22.78l-3.96,13.45c-.67,2.29.64,4.7,2.93,5.37,2.29.67,4.69-.64,5.37-2.93l3.96-13.45c2.86-9.72,13.06-15.28,22.78-12.42l13.45,3.96c2.29.68,4.69-.63,5.37-2.93.68-2.29-.63-4.69-2.93-5.37l-13.45-3.96c-9.72-2.86-15.28-13.06-12.42-22.78l3.96-13.45c.68-2.29-.63-4.7-2.92-5.37Z"/>
</svg>