<svg width="216" height="228" viewBox="0 0 216 228" fill="none" xmlns="http://www.w3.org/2000/svg">
<circle cx="131.5" cy="96.5" r="131.5" fill="#EFFAFB"/>
<g clip-path="url(#clip0_3673_5114)">
<path d="M108.988 133.754V118.741C108.988 114.821 105.798 111.631 101.877 111.631H86.8644C82.9435 111.631 79.7539 114.82 79.7539 118.741V133.754C79.7539 137.675 82.9435 140.864 86.8644 140.864H101.877C105.798 140.864 108.988 137.675 108.988 133.754ZM83.5974 133.754V118.741C83.5974 116.94 85.063 115.474 86.8644 115.474H101.877C103.678 115.474 105.144 116.94 105.144 118.741V133.754C105.144 135.555 103.678 137.021 101.877 137.021H86.8644C85.0632 137.021 83.5974 135.555 83.5974 133.754Z" fill="#38B9C9"/>
<path d="M158.635 140.864C162.556 140.864 165.745 137.675 165.745 133.754V118.741C165.745 114.821 162.556 111.631 158.635 111.631H143.622C139.701 111.631 136.512 114.82 136.512 118.741V133.754C136.512 137.675 139.701 140.864 143.622 140.864H158.635ZM140.355 133.754V118.741C140.355 116.94 141.821 115.474 143.622 115.474H158.635C160.436 115.474 161.902 116.94 161.902 118.741V133.754C161.902 135.555 160.436 137.021 158.635 137.021H143.622C141.821 137.021 140.355 135.555 140.355 133.754Z" fill="#38B9C9"/>
<path d="M122.839 114.278C122.054 113.564 120.838 113.62 120.124 114.405L115.833 119.12C115.165 119.853 115.165 120.974 115.833 121.707L120.124 126.422C120.503 126.838 121.023 127.05 121.545 127.05C122.007 127.05 122.47 126.885 122.839 126.55C123.623 125.835 123.681 124.62 122.966 123.835L121.601 122.336H128.247C129.308 122.336 130.168 121.475 130.168 120.414C130.168 119.352 129.308 118.492 128.247 118.492H121.601L122.966 116.993C123.681 116.208 123.623 114.992 122.839 114.278Z" fill="#38B9C9"/>
<path d="M117.254 138.398H123.899L122.534 139.897C121.82 140.682 121.877 141.897 122.662 142.612C123.03 142.947 123.493 143.112 123.955 143.112C124.477 143.112 124.997 142.901 125.376 142.484L129.668 137.77C130.335 137.036 130.335 135.916 129.668 135.182L125.376 130.468C124.662 129.683 123.447 129.626 122.662 130.34C121.877 131.055 121.82 132.27 122.534 133.055L123.899 134.554H117.254C116.192 134.554 115.332 135.415 115.332 136.476C115.332 137.537 116.192 138.398 117.254 138.398Z" fill="#38B9C9"/>
<path d="M146.594 124.635H155.578C156.64 124.635 157.5 123.774 157.5 122.713C157.5 121.652 156.64 120.791 155.578 120.791H146.594C145.532 120.791 144.672 121.652 144.672 122.713C144.672 123.774 145.532 124.635 146.594 124.635Z" fill="#38B9C9"/>
<path d="M146.594 132.16H155.578C156.64 132.16 157.5 131.299 157.5 130.238C157.5 129.177 156.64 128.316 155.578 128.316H146.594C145.532 128.316 144.672 129.177 144.672 130.238C144.672 131.3 145.532 132.16 146.594 132.16Z" fill="#38B9C9"/>
<path d="M98.9064 120.791H89.9218C88.8603 120.791 88 121.652 88 122.713C88 123.774 88.8603 124.635 89.9218 124.635H98.9064C99.9679 124.635 100.828 123.774 100.828 122.713C100.828 121.652 99.9679 120.791 98.9064 120.791Z" fill="#38B9C9"/>
<path d="M98.9064 128.316H89.9218C88.8603 128.316 88 129.177 88 130.238C88 131.299 88.8603 132.16 89.9218 132.16H98.9064C99.9679 132.16 100.828 131.299 100.828 130.238C100.828 129.177 99.9679 128.316 98.9064 128.316Z" fill="#38B9C9"/>
<path d="M91.3315 74.9395H81.578C80.5165 74.9395 79.6562 75.8 79.6562 76.8612C79.6562 77.9225 80.5165 78.783 81.578 78.783H91.3315C92.393 78.783 93.2533 77.9225 93.2533 76.8612C93.2533 75.8 92.393 74.9395 91.3315 74.9395Z" fill="#38B9C9"/>
<path d="M91.3315 82.584H81.578C80.5165 82.584 79.6562 83.4445 79.6562 84.5058C79.6562 85.567 80.5165 86.4275 81.578 86.4275H91.3315C92.393 86.4275 93.2533 85.567 93.2533 84.5058C93.2533 83.4442 92.393 82.584 91.3315 82.584Z" fill="#38B9C9"/>
<path d="M189.411 63.5782L181.597 60.407C180.288 59.8762 178.909 59.6069 177.498 59.6069H166.105L137.574 31.9556C136.909 31.3116 136.034 30.957 135.109 30.957H126.017C125.123 30.957 124.293 31.4394 123.85 32.2162C123.407 32.9927 123.414 33.9534 123.87 34.7225L138.694 59.7866L124.668 62.2153L114.281 54.4248C113.787 54.0543 113.175 53.8503 112.558 53.8503H107.442C106.503 53.8503 105.642 54.3634 105.196 55.1896C104.749 56.0158 104.791 57.0171 105.305 57.8029L111.372 67.0753H75.2191C72.4642 67.0753 70.2227 69.3166 70.2227 72.0717V157.048C70.2227 159.803 72.4642 162.045 75.2191 162.045H94.224C95.2855 162.045 96.1458 161.184 96.1458 160.123C96.1458 159.062 95.2855 158.201 94.224 158.201H75.2191C74.5834 158.201 74.0662 157.684 74.0662 157.048V94.5902H127.282L121.611 104.177C121.156 104.946 121.148 105.907 121.591 106.684C122.034 107.46 122.865 107.943 123.759 107.943H132.85C133.776 107.943 134.652 107.588 135.316 106.944L148.063 94.5902H171.434V157.048C171.434 157.684 170.917 158.201 170.281 158.201H103.048C101.986 158.201 101.126 159.062 101.126 160.123C101.126 161.184 101.986 162.045 103.048 162.045H170.281C173.035 162.045 175.277 159.803 175.277 157.048V77.5513H177.498C178.909 77.5513 180.288 77.2822 181.597 76.7515L189.411 73.5803C191.457 72.75 192.779 70.787 192.779 68.579C192.778 66.3712 191.457 64.4082 189.411 63.5782ZM74.0659 90.7469V72.072C74.0659 71.4363 74.5831 70.9188 75.2188 70.9188H110.825L105.305 79.3553C104.791 80.1411 104.749 81.1427 105.196 81.9686C105.642 82.7948 106.503 83.3079 107.442 83.3079H112.558C113.175 83.3079 113.787 83.1041 114.28 82.7339L124.668 74.9429L137.579 77.1785L129.555 90.7469H74.0659ZM171.433 90.7469H152.028L165.643 77.5513H171.433V90.7469H171.433ZM187.966 70.0189L180.151 73.1901C179.304 73.5337 178.412 73.708 177.498 73.708H152.276C151.215 73.708 150.354 74.5685 150.354 75.6298C150.354 76.691 151.215 77.5516 152.276 77.5516H160.12L132.728 104.099H126.123L141.824 77.5513H142.996C144.057 77.5513 144.918 76.6908 144.918 75.6295C144.918 74.5683 144.057 73.7078 142.996 73.7078H140.2C140.124 73.7078 140.048 73.7027 139.973 73.6924L124.507 71.0143C123.985 70.9242 123.45 71.053 123.026 71.3705L112.234 79.4646H109.827L116.261 69.6312C116.679 68.9922 116.679 68.166 116.261 67.5269L109.827 57.6938H112.234L123.026 65.788C123.45 66.1055 123.986 66.2345 124.507 66.1441L139.974 63.4658C140.048 63.4555 140.124 63.4504 140.2 63.4504H154.542C155.604 63.4504 156.464 62.5899 156.464 61.5286C156.464 60.4674 155.604 59.6069 154.542 59.6069H143.053L128.381 34.8003H134.987L163.938 62.8597C164.246 63.1578 164.627 63.3303 165.021 63.3826C165.181 63.4253 165.347 63.4502 165.52 63.4502H177.497C178.411 63.4502 179.304 63.6245 180.151 63.9684L187.965 67.1396C188.865 67.5044 188.935 68.3337 188.935 68.5792C188.935 68.8248 188.865 69.6538 187.966 70.0189Z" fill="#38B9C9"/>
<path d="M141.512 70.1886C142.477 70.1886 143.259 69.4066 143.259 68.442C143.259 67.4773 142.477 66.6953 141.512 66.6953C140.548 66.6953 139.766 67.4773 139.766 68.442C139.766 69.4066 140.548 70.1886 141.512 70.1886Z" fill="#38B9C9"/>
<path d="M148.833 70.1886C149.797 70.1886 150.579 69.4066 150.579 68.442C150.579 67.4773 149.797 66.6953 148.833 66.6953C147.868 66.6953 147.086 67.4773 147.086 68.442C147.086 69.4066 147.868 70.1886 148.833 70.1886Z" fill="#38B9C9"/>
<path d="M156.625 66.6953C155.661 66.6953 154.879 67.4772 154.879 68.442C154.879 69.4064 155.661 70.1886 156.625 70.1886C157.59 70.1886 158.372 69.4067 158.372 68.442C158.372 67.4772 157.59 66.6953 156.625 66.6953Z" fill="#38B9C9"/>
<path d="M163.946 66.6953C162.981 66.6953 162.199 67.4772 162.199 68.442C162.199 69.4064 162.981 70.1886 163.946 70.1886C164.91 70.1886 165.692 69.4067 165.692 68.442C165.692 67.4772 164.91 66.6953 163.946 66.6953Z" fill="#38B9C9"/>
</g>
<defs>
<clipPath id="clip0_3673_5114">
<rect width="131.088" height="131.088" fill="white" transform="translate(65.957 30.957)"/>
</clipPath>
</defs>
</svg>
