<svg viewBox="0 0 133 133" fill="none" xmlns="http://www.w3.org/2000/svg">
<g clip-path="url(#clip0_3673_5116)">
<path d="M43.9875 103.754V88.7413C43.9875 84.8207 40.7979 81.6309 36.877 81.6309H21.8644C17.9435 81.6309 14.7539 84.8205 14.7539 88.7413V103.754C14.7539 107.675 17.9435 110.864 21.8644 110.864H36.877C40.7979 110.864 43.9875 107.675 43.9875 103.754ZM18.5974 103.754V88.7413C18.5974 86.9399 20.063 85.4744 21.8644 85.4744H36.877C38.6784 85.4744 40.144 86.9399 40.144 88.7413V103.754C40.144 105.555 38.6784 107.021 36.877 107.021H21.8644C20.0632 107.021 18.5974 105.555 18.5974 103.754Z" fill="fill-current"/>
<path d="M93.6348 110.864C97.5557 110.864 100.745 107.675 100.745 103.754V88.7413C100.745 84.8207 97.5557 81.6309 93.6348 81.6309H78.6222C74.7014 81.6309 71.5117 84.8205 71.5117 88.7413V103.754C71.5117 107.675 74.7014 110.864 78.6222 110.864H93.6348ZM75.355 103.754V88.7413C75.355 86.9399 76.8205 85.4744 78.6219 85.4744H93.6346C95.436 85.4744 96.9015 86.9399 96.9015 88.7413V103.754C96.9015 105.555 95.436 107.021 93.6346 107.021H78.6219C76.8208 107.021 75.355 105.555 75.355 103.754Z" fill="fill-current"/>
<path d="M57.8387 84.278C57.0537 83.5636 55.838 83.6205 55.124 84.4055L50.8326 89.12C50.1652 89.8533 50.1652 90.9739 50.8326 91.7072L55.124 96.4218C55.5031 96.8383 56.0231 97.0501 56.5455 97.0501C57.0071 97.0501 57.4702 96.8847 57.8387 96.5495C58.6234 95.8352 58.6807 94.6196 57.9659 93.8348L56.6013 92.3355H63.2465C64.3081 92.3355 65.1683 91.475 65.1683 90.4137C65.1683 89.3525 64.3081 88.492 63.2465 88.492H56.6013L57.9659 86.9927C58.6807 86.2079 58.6234 84.9923 57.8387 84.278Z" fill="fill-current"/>
<path d="M52.2538 108.398H58.8991L57.5344 109.897C56.8199 110.682 56.8769 111.897 57.6617 112.612C58.0301 112.947 58.4933 113.112 58.9549 113.112C59.4769 113.112 59.9975 112.901 60.3764 112.484L64.668 107.77C65.3354 107.036 65.3354 105.916 64.668 105.182L60.3764 100.468C59.6623 99.6831 58.4467 99.626 57.6617 100.34C56.8767 101.055 56.8196 102.27 57.5344 103.055L58.8991 104.554H52.2538C51.1923 104.554 50.332 105.415 50.332 106.476C50.332 107.537 51.1923 108.398 52.2538 108.398Z" fill="fill-current"/>
<path d="M81.5936 94.6345H90.5783C91.6398 94.6345 92.5 93.774 92.5 92.7128C92.5 91.6515 91.6398 90.791 90.5783 90.791H81.5936C80.5321 90.791 79.6719 91.6515 79.6719 92.7128C79.6719 93.774 80.5321 94.6345 81.5936 94.6345Z" fill="fill-current"/>
<path d="M81.5936 102.16H90.5783C91.6398 102.16 92.5 101.299 92.5 100.238C92.5 99.1769 91.6398 98.3164 90.5783 98.3164H81.5936C80.5321 98.3164 79.6719 99.1769 79.6719 100.238C79.6719 101.3 80.5321 102.16 81.5936 102.16Z" fill="fill-current"/>
<path d="M33.9064 90.791H24.9218C23.8603 90.791 23 91.6515 23 92.7128C23 93.774 23.8603 94.6345 24.9218 94.6345H33.9064C34.9679 94.6345 35.8282 93.774 35.8282 92.7128C35.8282 91.6515 34.9679 90.791 33.9064 90.791Z" fill="fill-current"/>
<path d="M33.9064 98.3164H24.9218C23.8603 98.3164 23 99.1769 23 100.238C23 101.299 23.8603 102.16 24.9218 102.16H33.9064C34.9679 102.16 35.8282 101.299 35.8282 100.238C35.8282 99.1767 34.9679 98.3164 33.9064 98.3164Z" fill="fill-current"/>
<path d="M26.3315 44.9395H16.578C15.5165 44.9395 14.6562 45.8 14.6562 46.8612C14.6562 47.9225 15.5165 48.783 16.578 48.783H26.3315C27.393 48.783 28.2533 47.9225 28.2533 46.8612C28.2533 45.8 27.393 44.9395 26.3315 44.9395Z" fill="fill-current"/>
<path d="M26.3315 52.584H16.578C15.5165 52.584 14.6562 53.4445 14.6562 54.5058C14.6562 55.567 15.5165 56.4275 16.578 56.4275H26.3315C27.393 56.4275 28.2533 55.567 28.2533 54.5058C28.2533 53.4442 27.393 52.584 26.3315 52.584Z" fill="fill-current"/>
<path d="M124.411 33.5782L116.597 30.407C115.288 29.8762 113.909 29.6069 112.498 29.6069H101.105L72.5741 1.95555C71.9095 1.31163 71.0341 0.957031 70.1085 0.957031H61.0174C60.1233 0.957031 59.2925 1.43939 58.8496 2.21619C58.4067 2.99273 58.4143 3.95336 58.8696 4.72248L73.6937 29.7866L59.6681 32.2153L49.2807 24.4248C48.7871 24.0543 48.1752 23.8503 47.5576 23.8503H42.4424C41.5032 23.8503 40.6422 24.3634 40.1957 25.1896C39.7489 26.0158 39.7909 27.0171 40.3053 27.8029L46.3724 37.0753H10.2191C7.46421 37.0753 5.22266 39.3166 5.22266 42.0717V127.048C5.22266 129.803 7.46421 132.045 10.2191 132.045H29.224C30.2855 132.045 31.1458 131.184 31.1458 130.123C31.1458 129.062 30.2855 128.201 29.224 128.201H10.2191C9.58337 128.201 9.06619 127.684 9.06619 127.048V64.5902H62.2817L56.6114 74.177C56.1561 74.9463 56.1485 75.907 56.5914 76.6835C57.0343 77.4603 57.8652 77.9427 58.7592 77.9427H67.8503C68.7759 77.9427 69.6515 77.5881 70.3159 76.9442L83.0627 64.5902H106.434V127.048C106.434 127.684 105.917 128.201 105.281 128.201H38.0479C36.9863 128.201 36.1261 129.062 36.1261 130.123C36.1261 131.184 36.9863 132.045 38.0479 132.045H105.281C108.035 132.045 110.277 129.803 110.277 127.048V47.5513H112.498C113.909 47.5513 115.288 47.2822 116.597 46.7515L124.411 43.5803C126.457 42.75 127.779 40.787 127.779 38.579C127.778 36.3712 126.457 34.4082 124.411 33.5782ZM9.06593 60.7469V42.072C9.06593 41.4363 9.58312 40.9188 10.2188 40.9188H45.8253L40.3053 49.3553C39.7909 50.1411 39.7489 51.1427 40.1957 51.9686C40.6425 52.7948 41.5032 53.3079 42.4424 53.3079H47.5576C48.1746 53.3079 48.7866 53.1041 49.2799 52.7339L59.6681 44.9429L72.5795 47.1785L64.5547 60.7469H9.06593ZM106.433 60.7469H87.0278L100.643 47.5513H106.433V60.7469H106.433ZM122.966 40.0189L115.151 43.1901C114.304 43.5337 113.412 43.708 112.498 43.708H87.2762C86.2147 43.708 85.3544 44.5685 85.3544 45.6298C85.3544 46.691 86.2147 47.5516 87.2762 47.5516H95.1204L67.7282 74.0994H61.1226L76.8245 47.5513H77.9958C79.0573 47.5513 79.9176 46.6908 79.9176 45.6295C79.9176 44.5683 79.0573 43.7078 77.9958 43.7078H75.2C75.1239 43.7078 75.0476 43.7027 74.9734 43.6924L59.5068 41.0143C58.9853 40.9242 58.4497 41.053 58.0259 41.3705L47.2337 49.4646H44.827L51.2613 39.6312C51.6794 38.9922 51.6794 38.166 51.2611 37.5269L44.827 27.6938H47.2337L58.0259 35.788C58.4497 36.1055 58.9861 36.2345 59.5068 36.1441L74.9736 33.4658C75.0484 33.4555 75.1244 33.4504 75.2 33.4504H89.542C90.6036 33.4504 91.4638 32.5899 91.4638 31.5286C91.4638 30.4674 90.6036 29.6069 89.542 29.6069H78.0527L63.3811 4.80031H69.9867L98.9381 32.8597C99.2456 33.1578 99.6271 33.3303 100.021 33.3826C100.181 33.4253 100.347 33.4502 100.52 33.4502H112.497C113.411 33.4502 114.304 33.6245 115.151 33.9684L122.965 37.1396C123.865 37.5044 123.935 38.3337 123.935 38.5792C123.935 38.8248 123.865 39.6538 122.966 40.0189Z" fill="fill-current"/>
<path d="M76.5123 40.1886C77.4769 40.1886 78.2589 39.4066 78.2589 38.442C78.2589 37.4773 77.4769 36.6953 76.5123 36.6953C75.5476 36.6953 74.7656 37.4773 74.7656 38.442C74.7656 39.4066 75.5476 40.1886 76.5123 40.1886Z" fill="fill-current"/>
<path d="M83.8326 40.1886C84.7972 40.1886 85.5792 39.4066 85.5792 38.442C85.5792 37.4773 84.7972 36.6953 83.8326 36.6953C82.8679 36.6953 82.0859 37.4773 82.0859 38.442C82.0859 39.4066 82.8679 40.1886 83.8326 40.1886Z" fill="fill-current"/>
<path d="M91.6253 36.6953C90.6608 36.6953 89.8789 37.4772 89.8789 38.442C89.8789 39.4064 90.6608 40.1886 91.6253 40.1886C92.5898 40.1886 93.3719 39.4067 93.3719 38.442C93.3719 37.4772 92.5898 36.6953 91.6253 36.6953Z" fill="fill-current"/>
<path d="M98.9456 36.6953C97.9811 36.6953 97.1992 37.4772 97.1992 38.442C97.1992 39.4064 97.9811 40.1886 98.9456 40.1886C99.9101 40.1886 100.692 39.4067 100.692 38.442C100.692 37.4772 99.9101 36.6953 98.9456 36.6953Z" fill="fill-current"/>
</g>
<defs>
<clipPath id="clip0_3673_5116">
<rect width="131.088" height="131.088" fill="white" transform="translate(0.957031 0.957031)"/>
</clipPath>
</defs>
</svg>
