<svg width="1920" height="938" viewBox="0 0 1920 938" fill="none" xmlns="http://www.w3.org/2000/svg">
<g clip-path="url(#clip0_11_2)">
<rect width="1920" height="938" fill="white"/>
<line x1="151.484" y1="6.48841e-08" x2="151.484" y2="1364" stroke="#F7F7F7" stroke-width="2.96875"/>
<line x1="871.484" y1="6.48841e-08" x2="871.484" y2="1364" stroke="#F7F7F7" stroke-width="2.96875"/>
<line x1="691.485" y1="6.48841e-08" x2="691.484" y2="1364" stroke="#F7F7F7" stroke-width="2.96875"/>
<line x1="511.485" y1="6.48841e-08" x2="511.484" y2="1364" stroke="#F7F7F7" stroke-width="2.96875"/>
<line x1="331.485" y1="6.48841e-08" x2="331.484" y2="1364" stroke="#F7F7F7" stroke-width="2.96875"/>
<line x1="1051.48" y1="6.48841e-08" x2="1051.48" y2="1364" stroke="#F7F7F7" stroke-width="2.96875"/>
<line x1="1411.48" y1="6.48841e-08" x2="1411.48" y2="1364" stroke="#F7F7F7" stroke-width="2.96875"/>
<line x1="1231.48" y1="6.48841e-08" x2="1231.48" y2="1364" stroke="#F7F7F7" stroke-width="2.96875"/>
<line x1="1771.48" y1="6.48841e-08" x2="1771.48" y2="1364" stroke="#F7F7F7" stroke-width="2.96875"/>
<line x1="1591.48" y1="6.48841e-08" x2="1591.48" y2="1364" stroke="#F7F7F7" stroke-width="2.96875"/>
<path d="M338.448 177.947V143.054C338.448 139.158 335.29 136 331.394 136C327.498 136 324.34 139.158 324.34 143.054V177.947C324.34 181.843 327.498 185.001 331.394 185.001C335.29 185.001 338.448 181.843 338.448 177.947Z" fill="#F7F7F7"/>
<path d="M341.151 177.877C343.785 180.502 341.926 185.001 338.207 185.001H331.254C329.386 185.001 327.594 184.259 326.273 182.938L324.339 181.004L321.212 177.877L314.229 170.894L301.508 158.173C298.755 155.42 298.755 150.957 301.508 148.204V148.204C304.261 145.451 308.725 145.451 311.478 148.204L324.339 161.065L331.182 167.884L334.168 170.894L338.447 175.149L341.151 177.877V177.877Z" fill="#F7F7F7"/>
<path d="M366.593 170.893H296.054C292.158 170.893 289 174.051 289 177.946C289 181.842 292.158 185 296.054 185H366.593C370.489 185 373.647 181.842 373.647 177.946C373.647 174.051 370.489 170.893 366.593 170.893Z" fill="#F7F7F7"/>
<path d="M361.051 147.985C363.813 150.74 363.816 155.213 361.057 157.972L336.092 182.937C334.771 184.258 332.979 185 331.111 185H324.159C320.44 185 318.58 180.501 321.214 177.876V177.876L324.342 174.725L351.076 147.991C353.83 145.237 358.294 145.234 361.051 147.985V147.985Z" fill="#F7F7F7"/>
<path d="M1592 138.5L1569.5 116H1614.5L1592 138.5Z" fill="#F7F7F7"/>
<path d="M1592 161L1569.5 138.5H1614.5L1592 161Z" fill="#F7F7F7"/>
<path d="M1592 183.5L1569.5 161H1614.5L1592 183.5Z" fill="#F7F7F7"/>
<path d="M1592 206L1569.5 183.5H1614.5L1592 206Z" fill="#F7F7F7"/>
</g>
<defs>
<clipPath id="clip0_11_2">
<rect width="1920" height="938" fill="white"/>
</clipPath>
</defs>
</svg>
