<svg  viewBox="0 0 81 74" fill="none" xmlns="http://www.w3.org/2000/svg">
<path d="M0.932534 10.0703C0.932534 15.117 5.02366 19.2081 10.0703 19.2081C15.117 19.2081 19.2081 15.117 19.2081 10.0703C19.2081 5.02366 15.117 0.932534 10.0703 0.932534C5.02366 0.932534 0.932534 5.02366 0.932534 10.0703ZM62.6125 64.6867C62.6125 69.7334 66.7037 73.8245 71.7503 73.8245C76.797 73.8245 80.8881 69.7334 80.8881 64.6867C80.8881 59.6401 76.797 55.5489 71.7503 55.5489C66.7037 55.5489 62.6125 59.6401 62.6125 64.6867ZM68.8375 10.6518L69.6153 9.12518L68.8375 10.6518ZM71.1689 12.9832L69.6423 13.761L71.1689 12.9832ZM10.0703 11.7836H63.2147V8.35698H10.0703V11.7836ZM70.037 18.606V64.6867H73.4636V18.606H70.037ZM63.2147 11.7836C64.7368 11.7836 65.7754 11.785 66.579 11.8506C67.3626 11.9147 67.7708 12.0312 68.0596 12.1784L69.6153 9.12518C68.7629 8.69087 67.8536 8.51669 66.8581 8.43535C65.8825 8.35565 64.6803 8.35698 63.2147 8.35698V11.7836ZM73.4636 18.606C73.4636 17.1404 73.465 15.9381 73.3853 14.9626C73.3039 13.967 73.1298 13.0577 72.6954 12.2053L69.6423 13.761C69.7894 14.0498 69.906 14.458 69.97 15.2416C70.0356 16.0453 70.037 17.0838 70.037 18.606H73.4636ZM68.0596 12.1784C68.7411 12.5256 69.2951 13.0796 69.6423 13.761L72.6954 12.2053C72.0197 10.8791 70.9415 9.80091 69.6153 9.12518L68.0596 12.1784Z" fill="#282828"/>
</svg>
