<svg width="241" height="315" viewBox="0 0 241 315" fill="none" xmlns="http://www.w3.org/2000/svg">
<path d="M400.208 316.313C363.605 351.319 320.425 372.391 280.273 378.233C240.116 384.077 203.167 374.682 178.634 349.03C154.1 323.377 146.363 286.046 153.99 246.189C161.617 206.338 184.593 164.14 221.197 129.134C257.8 94.1276 300.979 73.056 341.131 67.2133C381.288 61.3698 418.237 70.7641 442.771 96.417C467.305 122.07 475.042 159.401 467.414 199.257C459.787 239.109 436.812 281.306 400.208 316.313Z" stroke="#28ABEA" stroke-width="4"/>
<path d="M209.326 384.018C185.759 406.556 157.98 420.101 132.188 423.854C106.391 427.608 82.7612 421.561 67.1026 405.188C51.4439 388.815 46.4566 364.939 51.3569 339.335C56.2562 313.736 71.0261 286.588 94.5923 264.05C118.158 241.512 145.938 227.967 171.73 224.214C197.527 220.46 221.157 226.507 236.815 242.88C252.474 259.253 257.461 283.129 252.561 308.733C247.662 334.332 232.892 361.48 209.326 384.018Z" stroke="#28ABEA" stroke-width="4"/>
</svg>
