<svg width="1920" height="692" viewBox="0 0 1920 692" fill="none" xmlns="http://www.w3.org/2000/svg">
<g clip-path="url(#clip0_3814_10127)">
<path d="M867.758 -3.38281C815.77 10.5106 762.677 18.859 707.399 8.74606C691.062 5.75772 675.233 1.55506 659.727 -3.38281H668.073C695.701 4.91339 724.188 10.6102 754.386 11.0419C791.008 11.5636 825.984 5.4826 860.275 -3.38281H867.758Z" fill="#E5F7FE"/>
<path d="M173.566 -3.38281C171.034 -2.84207 168.508 -2.31555 165.977 -1.80326C113.13 8.8599 52.5326 12.204 0.722656 -3.38281H8.51757C56.5416 9.72794 109.573 6.08975 160.15 -3.38281H173.566Z" fill="#E5F7FE"/>
<path d="M941.002 -3.38281C865.567 20.5619 788.862 45.7493 707.4 30.8503C669.696 23.9534 634.742 10.6102 600.066 -3.38281H606.557C653.655 15.401 701.378 32.3919 754.387 33.1461C817.426 34.0426 875.598 15.3773 933.781 -3.38281H941.002Z" fill="#E5F7FE"/>
<path d="M260.726 -3.38281C229.05 5.09364 197.536 13.9258 165.977 20.2962C106.807 32.2401 37.9186 35.0008 -17.4766 12.2941V9.69473C55.8391 41.0723 145.397 24.6364 220.893 4.79955C231.085 2.11953 241.261 -0.636385 251.448 -3.38281L260.726 -3.38281Z" fill="#E5F7FE"/>
<path d="M1006.91 -3.38281H1016.61C1007.48 -1.13919 998.426 1.30841 989.482 3.86984C898.302 29.9917 806.358 71.0506 707.393 52.9498C649.551 42.372 598.159 16.6201 544.336 -3.38281H551.016C616.949 21.6386 680.535 54.1973 754.38 55.2456C843.698 56.5168 923.248 18.5127 1006.91 -3.38281Z" fill="#E5F7FE"/>
<path d="M1209.19 2.73617V5.33555C1202.41 2.01992 1195.33 -0.878298 1188.05 -3.38281H1194.96C1199.82 -1.5234 1204.57 0.516261 1209.19 2.73617Z" fill="#E5F7FE"/>
<path d="M360.264 -3.38281C294.543 6.1609 230.349 29.4083 165.977 42.4005C106.807 54.3443 37.9186 57.105 -17.4766 34.3984V31.799C55.8391 63.1718 145.397 46.7407 220.893 26.9038C262.086 16.0793 303.063 3.94099 345.349 -3.38281H360.264Z" fill="#E5F7FE"/>
<path d="M1209.19 24.8404V27.435C1185 15.6287 1157.13 9.07809 1129.54 6.91985C1081.86 3.18679 1034.36 13.1147 989.49 25.9693C898.31 52.096 806.365 93.1548 707.401 75.054C622.583 59.5431 551.637 11.4024 466.551 -3.38281H478.076C487.99 -1.4143 497.853 1.01432 507.666 3.90779C589.859 28.1371 664.529 76.0738 754.388 77.3498C858.114 78.825 948.664 27.3354 1047.78 9.61884C1088.88 2.27606 1131.43 1.11867 1171.97 11.4545C1184.94 14.7607 1197.49 19.21 1209.19 24.8404Z" fill="#E5F7FE"/>
<path d="M1209.19 46.9393V49.5387C1185 37.7324 1157.12 31.1818 1129.53 29.0235C1081.86 25.2905 1034.36 35.2184 989.489 48.073C898.308 74.1996 806.364 115.258 707.4 97.1577C622.526 81.6326 551.546 33.4396 466.388 18.6924C362.584 0.714927 264.495 44.6198 165.977 64.5041C106.807 76.4433 37.9186 79.2087 -17.4766 56.502V53.9026C55.8391 85.2755 145.397 68.8443 220.893 49.0075C270.595 35.9441 319.974 20.9787 371.723 14.855C418.152 9.3574 463.405 12.9576 507.665 26.0067C589.857 50.2407 664.528 98.1775 754.387 99.4535C858.113 100.929 948.663 49.4344 1047.78 31.7225C1088.88 24.3797 1131.43 23.2176 1171.97 33.5535C1184.94 36.8596 1197.49 41.3137 1209.19 46.9393Z" fill="#E5F7FE"/>
<path d="M1209.19 69.0448V71.6442C1185 59.8331 1157.12 53.2872 1129.53 51.129C1081.86 47.3959 1034.36 57.3239 989.489 70.1785C898.308 96.3004 806.364 137.364 707.4 119.263C622.526 103.738 551.546 55.5451 466.388 40.7979C362.584 22.8157 264.495 66.7253 165.977 86.6096C106.807 98.5487 37.9186 101.314 -17.4766 78.6075V76.0081C55.8391 107.381 145.397 90.9498 220.893 71.1129C270.595 58.0496 319.974 43.0842 371.723 36.9605C418.152 31.4629 463.405 35.0631 507.665 48.1122C589.857 72.3462 664.528 120.278 754.387 121.559C858.113 123.034 948.663 71.5398 1047.78 53.828C1088.88 46.4805 1131.43 45.3231 1171.97 55.6589C1184.94 58.9651 1197.49 63.4191 1209.19 69.0448Z" fill="#E5F7FE"/>
<path d="M1209.19 91.148V93.7474C1185 81.9363 1157.12 75.3857 1129.53 73.2274C1081.86 69.4991 1034.36 79.4271 989.489 92.2817C898.308 118.404 806.364 159.462 707.4 141.362C622.526 125.841 551.546 77.6483 466.388 62.8963C362.584 44.9188 264.495 88.8237 165.977 108.708C106.807 120.652 37.9186 123.413 -17.4766 100.706V98.1066C55.8391 129.484 145.397 113.048 220.893 93.2114C270.595 80.1528 319.974 65.1874 371.723 59.0589C418.152 53.5661 463.405 57.1663 507.665 70.2154C589.857 94.4447 664.528 142.381 754.387 143.657C858.113 145.133 948.663 93.643 1047.78 75.9264C1088.88 68.5836 1131.43 67.4263 1171.97 77.7621C1184.94 81.0683 1197.49 85.5223 1209.19 91.148Z" fill="#E5F7FE"/>
<path d="M1209.19 113.254V115.848C1185 104.042 1157.12 97.4913 1129.53 95.333C1081.86 91.6 1034.36 101.528 989.489 114.383C898.308 140.509 806.364 181.568 707.4 163.467C622.526 147.947 551.546 99.7539 466.388 85.0019C362.584 67.0244 264.495 110.929 165.977 130.814C106.807 142.758 37.9186 145.518 -17.4766 122.812V120.212C55.8391 151.585 145.397 135.154 220.893 115.317C270.595 102.258 319.974 87.2882 371.723 81.1645C418.152 75.6669 463.405 79.2719 507.665 92.321C589.857 116.55 664.528 164.487 754.387 165.763C858.113 167.238 948.663 115.749 1047.78 98.032C1088.88 90.6893 1131.43 89.5319 1171.97 99.8677C1184.94 103.174 1197.49 107.628 1209.19 113.254Z" fill="#E5F7FE"/>
<path d="M1209.19 135.358V137.953C1185 126.146 1157.12 119.596 1129.53 117.438C1081.86 113.705 1034.36 123.632 989.489 136.487C898.308 162.614 806.364 203.673 707.4 185.572C622.526 170.047 551.546 121.854 466.388 107.106C362.584 89.129 264.495 133.034 165.977 152.918C106.807 164.857 37.9186 167.623 -17.4766 144.916V142.317C55.8391 173.69 145.397 157.258 220.893 137.422C270.595 124.358 319.974 109.393 371.723 103.269C418.152 97.7715 463.405 101.372 507.665 114.421C589.857 138.655 664.528 186.592 754.387 187.868C858.113 189.343 948.663 137.848 1047.78 120.137C1088.88 112.794 1131.43 111.632 1171.97 121.972C1184.94 125.278 1197.49 129.732 1209.19 135.358Z" fill="#E5F7FE"/>
<path d="M1209.19 157.455V160.054C1185 148.243 1157.12 141.697 1129.53 139.539C1081.86 135.806 1034.36 145.734 989.489 158.589C898.308 184.711 806.364 225.774 707.4 207.673C622.526 192.148 551.546 143.955 466.388 129.208C362.584 111.226 264.495 155.135 165.977 175.02C106.807 186.959 37.9186 189.724 -17.4766 167.018V164.418C55.8391 195.791 145.397 179.36 220.893 159.523C270.595 146.46 319.974 131.494 371.723 125.371C418.152 119.873 463.405 123.473 507.665 136.522C589.857 160.756 664.528 208.688 754.387 209.969C858.113 211.444 948.663 159.95 1047.78 142.238C1088.88 134.891 1131.43 133.733 1171.97 144.069C1184.94 147.375 1197.49 151.829 1209.19 157.455Z" fill="#E5F7FE"/>
<path d="M1209.19 179.56V182.159C1185 170.348 1157.12 163.798 1129.53 161.64C1081.86 157.911 1034.36 167.839 989.489 180.694C898.308 206.816 806.364 247.875 707.4 229.774C622.526 214.253 551.546 166.06 466.388 151.308C362.584 133.331 264.495 177.236 165.977 197.12C106.807 209.064 37.9186 211.825 -17.4766 189.118V186.519C55.8391 217.896 145.397 201.46 220.893 181.623C270.595 168.565 319.974 153.599 371.723 147.471C418.152 141.978 463.405 145.578 507.665 158.627C589.857 182.862 664.528 230.794 754.387 232.07C858.113 233.545 948.663 182.055 1047.78 164.339C1088.88 156.996 1131.43 155.838 1171.97 166.174C1184.94 169.48 1197.49 173.934 1209.19 179.56Z" fill="#E5F7FE"/>
<path d="M1209.19 201.666V204.26C1185 192.454 1157.12 185.903 1129.53 183.745C1081.86 180.012 1034.36 189.94 989.489 202.795C898.308 228.921 806.364 269.98 707.4 251.879C622.526 236.359 551.546 188.166 466.388 173.414C362.584 155.437 264.495 199.341 165.977 219.226C106.807 231.17 37.9186 233.93 -17.4766 211.224V208.624C55.8391 239.997 145.397 223.566 220.893 203.729C270.595 190.671 319.974 175.7 371.723 169.577C418.152 164.079 463.405 167.684 507.665 180.733C589.857 204.962 664.528 252.899 754.387 254.175C858.113 255.65 948.663 204.161 1047.78 186.444C1088.88 179.101 1131.43 177.944 1171.97 188.28C1184.94 191.586 1197.49 196.035 1209.19 201.666Z" fill="#E5F7FE"/>
<path d="M1209.19 223.768V226.363C1185 214.557 1157.12 208.006 1129.53 205.848C1081.86 202.115 1034.36 212.043 989.489 224.897C898.308 251.024 806.364 292.083 707.4 273.982C622.526 258.457 551.546 210.264 466.388 195.517C362.584 177.539 264.495 221.444 165.977 241.328C106.807 253.268 37.9186 256.033 -17.4766 233.326V230.727C55.8391 262.1 145.397 245.669 220.893 225.832C270.595 212.768 319.974 197.803 371.723 191.679C418.152 186.182 463.405 189.782 507.665 202.831C589.857 227.065 664.528 275.002 754.387 276.278C858.113 277.753 948.663 226.259 1047.78 208.547C1088.88 201.204 1131.43 200.042 1171.97 210.382C1184.94 213.689 1197.49 218.138 1209.19 223.768Z" fill="#E5F7FE"/>
<path d="M1209.19 245.871V248.47C1185 236.659 1157.12 230.113 1129.53 227.955C1081.86 224.222 1034.36 234.15 989.489 247.005C898.308 273.127 806.364 314.19 707.4 296.089C622.526 280.564 551.546 232.371 466.388 217.624C362.584 199.642 264.495 243.551 165.977 263.436C106.807 275.375 37.9186 278.14 -17.4766 255.434V252.834C55.8391 284.207 145.397 267.776 220.893 247.939C270.595 234.876 319.974 219.91 371.723 213.787C418.152 208.289 463.405 211.889 507.665 224.938C589.857 249.172 664.528 297.104 754.387 298.385C858.113 299.86 948.663 248.366 1047.78 230.654C1088.88 223.307 1131.43 222.149 1171.97 232.485C1184.94 235.791 1197.49 240.245 1209.19 245.871Z" fill="#E5F7FE"/>
<path d="M1209.19 267.972V270.572C1185 258.761 1157.12 252.215 1129.53 250.052C1081.86 246.323 1034.36 256.251 989.489 269.106C898.308 295.228 806.364 336.287 707.4 318.186C622.526 302.665 551.546 254.473 466.388 239.721C362.584 221.743 264.495 265.648 165.977 285.532C106.807 297.476 37.9186 300.237 -17.4766 277.53V274.931C55.8391 306.308 145.397 289.872 220.893 270.036C270.595 256.977 319.974 242.012 371.723 235.883C418.152 230.39 463.405 233.991 507.665 247.04C589.857 271.274 664.528 319.206 754.387 320.482C858.113 321.957 948.663 270.467 1047.78 252.751C1088.88 245.408 1131.43 244.25 1171.97 254.586C1184.94 257.892 1197.49 262.347 1209.19 267.972Z" fill="#E5F7FE"/>
<path d="M1209.19 290.078V292.672C1185 280.866 1157.12 274.316 1129.53 272.157C1081.86 268.424 1034.36 278.352 989.489 291.207C898.308 317.333 806.364 358.392 707.4 340.291C622.526 324.771 551.546 276.578 466.388 261.826C362.584 243.849 264.495 287.754 165.977 307.638C106.807 319.582 37.9186 322.342 -17.4766 299.636V297.036C55.8391 328.409 145.397 311.978 220.893 292.141C270.595 279.083 319.974 264.112 371.723 257.989C418.152 252.491 463.405 256.096 507.665 269.145C589.857 293.374 664.528 341.311 754.387 342.587C858.113 344.062 948.663 292.573 1047.78 274.856C1088.88 267.513 1131.43 266.356 1171.97 276.692C1184.94 279.998 1197.49 284.452 1209.19 290.078Z" fill="#E5F7FE"/>
<path d="M1209.19 312.18V314.775C1185 302.969 1157.12 296.418 1129.53 294.26C1081.86 290.527 1034.36 300.455 989.489 313.309C898.308 339.436 806.364 380.495 707.4 362.394C622.526 346.869 551.546 298.676 466.388 283.929C362.584 265.951 264.495 309.856 165.977 329.74C106.807 341.68 37.9186 344.445 -17.4766 321.738V319.139C55.8391 350.512 145.397 334.081 220.893 314.244C270.595 301.18 319.974 286.215 371.723 280.091C418.152 274.594 463.405 278.194 507.665 291.243C589.857 315.477 664.528 363.414 754.387 364.69C858.113 366.165 948.663 314.671 1047.78 296.959C1088.88 289.616 1131.43 288.454 1171.97 298.795C1184.94 302.101 1197.49 306.555 1209.19 312.18Z" fill="#E5F7FE"/>
<path d="M1209.19 334.281V336.881C1185 325.069 1157.12 318.524 1129.53 316.365C1081.86 312.632 1034.36 322.56 989.489 335.415C898.308 361.537 806.364 402.6 707.4 384.499C622.526 368.974 551.546 320.781 466.388 306.034C362.584 288.052 264.495 331.962 165.977 351.846C106.807 363.785 37.9186 366.55 -17.4766 343.844V341.244C55.8391 372.617 145.397 356.186 220.893 336.349C270.595 323.286 319.974 308.321 371.723 302.197C418.152 296.699 463.405 300.299 507.665 313.349C589.857 337.583 664.528 385.515 754.387 386.795C858.113 388.271 948.663 336.776 1047.78 319.064C1088.88 311.717 1131.43 310.559 1171.97 320.895C1184.94 324.201 1197.49 328.655 1209.19 334.281Z" fill="#E5F7FE"/>
<path d="M1209.19 356.386V358.986C1185 347.175 1157.12 340.629 1129.53 338.466C1081.86 334.737 1034.36 344.665 989.489 357.52C898.308 383.642 806.364 424.701 707.4 406.6C622.526 391.079 551.546 342.887 466.388 328.135C362.584 310.157 264.495 354.062 165.977 373.946C106.807 385.89 37.9186 388.651 -17.4766 365.944V363.345C55.8391 394.722 145.397 378.287 220.893 358.45C270.595 345.391 319.974 330.426 371.723 324.297C418.152 318.804 463.405 322.405 507.665 335.454C589.857 359.688 664.528 407.62 754.387 408.896C858.113 410.371 948.663 358.881 1047.78 341.165C1088.88 333.822 1131.43 332.665 1171.97 343C1184.94 346.307 1197.49 350.761 1209.19 356.386Z" fill="#E5F7FE"/>
<path d="M1209.19 378.488V381.083C1185 369.276 1157.12 362.726 1129.53 360.567C1081.86 356.834 1034.36 366.762 989.489 379.617C898.308 405.744 806.364 446.802 707.4 428.702C622.526 413.181 551.546 364.988 466.388 350.236C362.584 332.259 264.495 376.164 165.977 396.048C106.807 407.992 37.9186 410.753 -17.4766 388.046V385.447C55.8391 416.819 145.397 400.388 220.893 380.551C270.595 367.493 319.974 352.523 371.723 346.399C418.152 340.901 463.405 344.506 507.665 357.555C589.857 381.785 664.528 429.721 754.387 430.997C858.113 432.473 948.663 380.983 1047.78 363.266C1088.88 355.924 1131.43 354.766 1171.97 365.102C1184.94 368.408 1197.49 372.858 1209.19 378.488Z" fill="#E5F7FE"/>
<path d="M1209.19 400.594V403.189C1185 391.383 1157.12 384.832 1129.53 382.674C1081.86 378.941 1034.36 388.869 989.489 401.723C898.308 427.85 806.364 468.909 707.4 450.808C622.526 435.283 551.546 387.09 466.388 372.343C362.584 354.365 264.495 398.27 165.977 418.155C106.807 430.094 37.9186 432.859 -17.4766 410.152V407.553C55.8391 438.926 145.397 422.495 220.893 402.658C270.595 389.595 319.974 374.629 371.723 368.505C418.152 363.008 463.405 366.608 507.665 379.657C589.857 403.891 664.528 451.828 754.387 453.104C858.113 454.579 948.663 403.085 1047.78 385.373C1088.88 378.03 1131.43 376.868 1171.97 387.209C1184.94 390.515 1197.49 394.964 1209.19 400.594Z" fill="#E5F7FE"/>
<path d="M1209.19 422.693V425.293C1185 413.486 1157.12 406.936 1129.53 404.777C1081.86 401.044 1034.36 410.972 989.489 423.827C898.308 449.949 806.364 491.012 707.4 472.912C622.526 457.386 551.546 409.194 466.388 394.446C362.584 376.464 264.495 420.374 165.977 440.258C106.807 452.197 37.9186 454.963 -17.4766 432.256V429.657C55.8391 461.029 145.397 444.598 220.893 424.761C270.595 411.698 319.974 396.733 371.723 390.609C418.152 385.111 463.405 388.712 507.665 401.761C589.857 425.995 664.528 473.927 754.387 475.207C858.113 476.683 948.663 425.188 1047.78 407.476C1088.88 400.129 1131.43 398.972 1171.97 409.307C1184.94 412.614 1197.49 417.068 1209.19 422.693Z" fill="#E5F7FE"/>
<path d="M1209.19 444.798V447.398C1185 435.587 1157.12 429.041 1129.53 426.878C1081.86 423.15 1034.36 433.077 989.489 445.932C898.308 472.054 806.364 513.113 707.4 495.012C622.526 479.492 551.546 431.299 466.388 416.547C362.584 398.569 264.495 442.474 165.977 462.358C106.807 474.302 37.9186 477.063 -17.4766 454.356V451.757C55.8391 483.135 145.397 466.699 220.893 446.862C270.595 433.803 319.974 418.838 371.723 412.709C418.152 407.216 463.405 410.817 507.665 423.866C589.857 448.1 664.528 496.032 754.387 497.308C858.113 498.783 948.663 447.293 1047.78 429.577C1088.88 422.234 1131.43 421.077 1171.97 431.413C1184.94 434.719 1197.49 439.173 1209.19 444.798Z" fill="#E5F7FE"/>
<path d="M1209.19 466.904V469.499C1185 457.692 1157.12 451.142 1129.53 448.983C1081.86 445.25 1034.36 455.178 989.489 468.033C898.308 494.16 806.364 535.218 707.4 517.118C622.526 501.597 551.546 453.404 466.388 438.652C362.584 420.675 264.495 464.58 165.977 484.464C106.807 496.408 37.9186 499.169 -17.4766 476.462V473.863C55.8391 505.235 145.397 488.804 220.893 468.967C270.595 455.909 319.974 440.939 371.723 434.815C418.152 429.317 463.405 432.922 507.665 445.971C589.857 470.201 664.528 518.137 754.387 519.413C858.113 520.889 948.663 469.399 1047.78 451.682C1088.88 444.34 1131.43 443.182 1171.97 453.518C1184.94 456.824 1197.49 461.278 1209.19 466.904Z" fill="#E5F7FE"/>
<path d="M1209.19 489.005V491.599C1185 479.793 1157.12 473.242 1129.53 471.084C1081.86 467.351 1034.36 477.279 989.489 490.134C898.308 516.26 806.364 557.319 707.4 539.218C622.526 523.693 551.546 475.5 466.388 460.753C362.584 442.775 264.495 486.68 165.977 506.565C106.807 518.504 37.9186 521.269 -17.4766 498.563V495.963C55.8391 527.336 145.397 510.905 220.893 491.068C270.595 478.005 319.974 463.039 371.723 456.916C418.152 451.418 463.405 455.018 507.665 468.067C589.857 492.301 664.528 540.238 754.387 541.514C858.113 542.989 948.663 491.495 1047.78 473.783C1088.88 466.44 1131.43 465.278 1171.97 475.619C1184.94 478.925 1197.49 483.379 1209.19 489.005Z" fill="#E5F7FE"/>
<path d="M1209.19 511.107V513.707C1185 501.9 1157.12 495.35 1129.53 493.191C1081.86 489.458 1034.36 499.386 989.489 512.241C898.308 538.363 806.364 579.426 707.4 561.326C622.526 545.801 551.546 497.608 466.388 482.86C362.584 464.878 264.495 508.788 165.977 528.672C106.807 540.611 37.9186 543.377 -17.4766 520.67V518.071C55.8391 549.443 145.397 533.012 220.893 513.175C270.595 500.112 319.974 485.147 371.723 479.023C418.152 473.525 463.405 477.126 507.665 490.175C589.857 514.409 664.528 562.341 754.387 563.621C858.113 565.097 948.663 513.602 1047.78 495.891C1088.88 488.543 1131.43 487.386 1171.97 497.721C1184.94 501.028 1197.49 505.482 1209.19 511.107Z" fill="#E5F7FE"/>
<path d="M1209.19 533.209V535.808C1185 523.997 1157.12 517.451 1129.53 515.288C1081.86 511.56 1034.36 521.488 989.489 534.342C898.308 560.464 806.364 601.523 707.4 583.422C622.526 567.902 551.546 519.709 466.388 504.957C362.584 486.979 264.495 530.884 165.977 550.769C106.807 562.712 37.9186 565.473 -17.4766 542.767V540.167C55.8391 571.545 145.397 555.109 220.893 535.272C270.595 522.213 319.974 507.248 371.723 501.119C418.152 495.627 463.405 499.227 507.665 512.276C589.857 536.51 664.528 584.442 754.387 585.718C858.113 587.193 948.663 535.704 1047.78 517.987C1088.88 510.644 1131.43 509.487 1171.97 519.823C1184.94 523.129 1197.49 527.583 1209.19 533.209Z" fill="#E5F7FE"/>
<path d="M1209.19 555.314V557.909C1185 546.103 1157.12 539.552 1129.53 537.394C1081.86 533.661 1034.36 543.588 989.489 556.443C898.308 582.57 806.364 623.629 707.4 605.528C622.526 590.007 551.546 541.814 466.388 527.063C362.584 509.085 264.495 552.99 165.977 572.874C106.807 584.818 37.9186 587.579 -17.4766 564.872V562.273C55.8391 593.646 145.397 577.214 220.893 557.378C270.595 544.319 319.974 529.349 371.723 523.225C418.152 517.727 463.405 521.332 507.665 534.382C589.857 558.611 664.528 606.548 754.387 607.824C858.113 609.299 948.663 557.809 1047.78 540.093C1088.88 532.75 1131.43 531.592 1171.97 541.928C1184.94 545.234 1197.49 549.684 1209.19 555.314Z" fill="#E5F7FE"/>
<path d="M1209.19 577.419V580.013C1185 568.207 1157.12 561.656 1129.53 559.498C1081.86 555.765 1034.36 565.693 989.489 578.548C898.308 604.674 806.364 645.733 707.4 627.632C622.526 612.107 551.546 563.914 466.388 549.167C362.584 531.19 264.495 575.094 165.977 594.979C106.807 606.918 37.9186 609.683 -17.4766 586.977V584.377C55.8391 615.75 145.397 599.319 220.893 579.482C270.595 566.419 319.974 551.453 371.723 545.33C418.152 539.832 463.405 543.432 507.665 556.481C589.857 580.715 664.528 628.652 754.387 629.928C858.113 631.403 948.663 579.909 1047.78 562.197C1088.88 554.854 1131.43 553.692 1171.97 564.033C1184.94 567.339 1197.49 571.788 1209.19 577.419Z" fill="#E5F7FE"/>
<path d="M1209.19 599.517V602.117C1185 590.311 1157.12 583.76 1129.54 581.602C1081.86 577.869 1034.36 587.797 989.489 600.651C898.308 626.773 806.364 667.837 707.4 649.736C622.526 634.211 551.546 586.018 466.388 571.271C362.584 553.288 264.495 597.198 165.977 617.082C106.807 629.021 37.9186 631.787 -17.4766 609.08V606.481C55.8391 637.854 145.397 621.422 220.893 601.586C270.595 588.522 319.974 573.557 371.723 567.433C418.152 561.936 463.405 565.536 507.665 578.585C589.857 602.819 664.528 650.751 754.387 652.032C858.113 653.507 948.663 602.012 1047.78 584.301C1088.88 576.953 1131.43 575.796 1171.97 586.132C1184.94 589.438 1197.49 593.892 1209.19 599.517Z" fill="#E5F7FE"/>
<path d="M1209.19 621.625V624.224C1185 612.413 1157.12 605.867 1129.53 603.704C1081.86 599.976 1034.36 609.904 989.489 622.758C898.308 648.88 806.364 689.939 707.4 671.838C622.526 656.318 551.546 608.125 466.388 593.373C362.584 575.395 264.495 619.3 165.977 639.185C106.807 651.129 37.9186 653.889 -17.4766 631.183V628.583C55.8391 659.961 145.397 643.525 220.893 623.688C270.595 610.629 319.974 595.664 371.723 589.535C418.152 584.043 463.405 587.643 507.665 600.692C589.857 624.926 664.528 672.858 754.387 674.139C858.113 675.609 948.663 624.12 1047.78 606.403C1088.88 599.06 1131.43 597.903 1171.97 608.239C1184.94 611.545 1197.49 615.999 1209.19 621.625Z" fill="#E5F7FE"/>
<path d="M507.665 622.794C576.096 642.967 639.314 679.572 710.422 692H697.626C617.022 674.748 548.257 629.657 466.388 615.475C362.584 597.497 264.495 641.402 165.977 661.286C106.807 673.23 37.9186 675.991 -17.4766 653.284V650.685C55.8391 682.058 145.397 665.627 220.893 645.79C270.595 632.731 319.974 617.761 371.723 611.637C418.152 606.14 463.405 609.745 507.665 622.794Z" fill="#E5F7FE"/>
<path d="M1209.19 643.727V646.321C1185 634.515 1157.12 627.964 1129.53 625.806C1081.86 622.073 1034.35 632.001 989.485 644.856C934.792 660.528 879.821 681.574 823.227 692H811.824C892.578 679.487 967.354 642.878 1047.77 628.505C1088.87 621.162 1131.43 620.005 1171.97 630.341C1184.93 633.647 1197.48 638.101 1209.19 643.727Z" fill="#E5F7FE"/>
<path d="M632.891 692H625.916C573.498 672.045 523.088 647.398 466.388 637.579C362.584 619.602 264.495 663.507 165.977 683.391C144.388 687.75 121.51 690.881 98.4658 692H62.3795C34.4561 690.544 7.15156 685.483 -17.4766 675.389V672.789C55.8391 704.162 145.397 687.731 220.893 667.894C270.595 654.831 319.974 639.865 371.723 633.742C418.152 628.244 463.405 631.844 507.665 644.893C550.375 657.487 591.056 676.48 632.891 692Z" fill="#E5F7FE"/>
<path d="M1209.19 665.83V668.425C1185 656.618 1157.12 650.068 1129.54 647.909C1081.86 644.176 1034.36 654.104 989.49 666.959C962.676 674.643 935.795 683.618 908.691 691.999H901.738C950.102 677.024 997.853 659.531 1047.78 650.608C1088.88 643.266 1131.43 642.103 1171.97 652.444C1184.94 655.75 1197.49 660.204 1209.19 665.83Z" fill="#E5F7FE"/>
<path d="M507.665 666.995C531.206 673.935 554.128 682.819 576.966 691.997H570.61C536.999 678.55 503.004 666.023 466.388 659.681C382.5 645.147 302.343 671.036 222.682 691.997H213.176C215.763 691.333 218.333 690.669 220.893 689.996C270.595 676.932 319.974 661.967 371.722 655.843C418.152 650.346 463.405 653.946 507.665 666.995Z" fill="#E5F7FE"/>
<path d="M1209.19 687.931V690.531C1185.01 678.724 1157.13 672.174 1129.54 670.015C1081.87 666.282 1034.36 676.21 989.493 689.065C986.142 690.023 982.791 691.005 979.44 692.001H971.344C996.496 684.293 1021.84 677.349 1047.78 672.714C1088.88 665.367 1131.43 664.209 1171.98 674.545C1184.94 677.851 1197.49 682.305 1209.19 687.931Z" fill="#E5F7FE"/>
<path d="M507.661 689.1C510.817 690.03 513.967 690.998 517.101 691.998H509.128C495.205 687.829 481.004 684.314 466.384 681.781C412.199 672.399 359.569 679.874 307.625 691.998H297.266C321.726 686.041 346.444 680.937 371.719 677.944C418.148 672.451 463.401 676.051 507.661 689.1Z" fill="#E5F7FE"/>
<path d="M1148.91 692H1127.99C1114.95 691.057 1101.93 691.132 1088.97 692H1065.96C1093.53 688.395 1121.52 687.878 1148.91 692Z" fill="#E5F7FE"/>
</g>
<g clip-path="url(#clip1_3814_10127)">
<path d="M2094.43 -10C2042.44 3.89341 1989.35 12.2418 1934.07 2.12887C1917.73 -0.859472 1901.9 -5.06212 1886.39 -10H1894.74C1922.37 -1.7038 1950.86 3.99302 1981.05 4.42467C2017.68 4.94645 2052.65 -1.13459 2086.94 -10H2094.43Z" fill="#E5F7FE"/>
<path d="M1400.23 -10C1397.7 -9.45925 1395.17 -8.93274 1392.64 -8.42045C1339.79 2.24271 1279.2 5.5868 1227.39 -10H1235.18C1283.21 3.11075 1336.24 -0.527435 1386.81 -10H1400.23Z" fill="#E5F7FE"/>
<path d="M2167.67 -10C2092.23 13.9447 2015.53 39.1321 1934.06 24.2331C1896.36 17.3362 1861.41 3.99302 1826.73 -10H1833.22C1880.32 8.78386 1928.04 25.7747 1981.05 26.5289C2044.09 27.4254 2102.26 8.76014 2160.45 -10H2167.67Z" fill="#E5F7FE"/>
<path d="M1487.39 -10C1455.71 -1.52355 1424.2 7.30866 1392.64 13.679C1333.47 25.6229 1264.58 28.3836 1209.19 5.67693V3.07755C1282.5 34.4551 1372.06 18.0192 1447.56 -1.81764C1457.75 -4.49766 1467.93 -7.25357 1478.11 -10L1487.39 -10Z" fill="#E5F7FE"/>
<path d="M2233.57 -10H2243.28C2234.14 -7.75637 2225.09 -5.30878 2216.15 -2.74734C2124.97 23.3745 2033.03 64.4334 1934.06 46.3326C1876.22 35.7548 1824.83 10.0029 1771 -10H1777.68C1843.62 15.0214 1907.2 47.5801 1981.05 48.6284C2070.37 49.8996 2149.92 11.8955 2233.57 -10Z" fill="#E5F7FE"/>
<path d="M1586.93 -10C1521.21 -0.456283 1457.01 22.7911 1392.64 35.7833C1333.47 47.7272 1264.58 50.4878 1209.19 27.7812V25.1818C1282.5 56.5546 1372.06 40.1235 1447.56 20.2866C1488.75 9.46216 1529.73 -2.67619 1572.01 -10H1586.93Z" fill="#E5F7FE"/>
<path d="M2435.86 18.2232V20.8179C2411.67 9.01154 2383.79 2.46091 2356.2 0.302659C2308.53 -3.43039 2261.02 6.49754 2216.15 19.3521C2124.97 45.4788 2033.03 86.5376 1934.07 68.4368C1849.25 52.9259 1778.3 4.78517 1693.21 -10H1704.74C1714.65 -8.03149 1724.52 -5.60287 1734.33 -2.7094C1816.52 21.5199 1891.19 69.4566 1981.05 70.7326C2084.78 72.2078 2175.33 20.7182 2274.44 3.00165C2315.54 -4.34113 2358.1 -5.49852 2398.64 4.83735C2411.6 8.1435 2424.15 12.5928 2435.86 18.2232Z" fill="#E5F7FE"/>
<path d="M2435.85 40.3202V42.9196C2411.67 31.1133 2383.79 24.5626 2356.2 22.4044C2308.53 18.6713 2261.02 28.5993 2216.15 41.4539C2124.97 67.5805 2033.03 108.639 1934.06 90.5386C1849.19 75.0134 1778.21 26.8205 1693.05 12.0733C1589.25 -5.90421 1491.16 38.0007 1392.64 57.885C1333.47 69.8241 1264.58 72.5895 1209.19 49.8829V47.2835C1282.5 78.6563 1372.06 62.2252 1447.56 42.3883C1497.26 29.325 1546.64 14.3596 1598.39 8.23586C1644.82 2.73826 1690.07 6.3385 1734.33 19.3876C1816.52 43.6216 1891.19 91.5584 1981.05 92.8344C2084.78 94.3096 2175.33 42.8152 2274.44 25.1034C2315.54 17.7606 2358.09 16.5985 2398.64 26.9343C2411.6 30.2405 2424.15 34.6945 2435.85 40.3202Z" fill="#E5F7FE"/>
<path d="M2435.85 62.4276V65.027C2411.67 53.2159 2383.79 46.6701 2356.2 44.5118C2308.53 40.7788 2261.02 50.7067 2216.15 63.5613C2124.97 89.6832 2033.03 130.747 1934.06 112.646C1849.19 97.1208 1778.21 48.9279 1693.05 34.1807C1589.25 16.1985 1491.16 60.1081 1392.64 79.9924C1333.47 91.9316 1264.58 94.697 1209.19 71.9903V69.3909C1282.5 100.764 1372.06 84.3326 1447.56 64.4957C1497.26 51.4324 1546.64 36.467 1598.39 30.3433C1644.82 24.8457 1690.07 28.4459 1734.33 41.495C1816.52 65.729 1891.19 113.661 1981.05 114.942C2084.78 116.417 2175.33 64.9226 2274.44 47.2108C2315.54 39.8633 2358.09 38.7059 2398.64 49.0418C2411.6 52.3479 2424.15 56.802 2435.85 62.4276Z" fill="#E5F7FE"/>
<path d="M2435.85 84.5289V87.1282C2411.67 75.3172 2383.79 68.7665 2356.2 66.6083C2308.53 62.88 2261.02 72.8079 2216.15 85.6625C2124.97 111.784 2033.03 152.843 1934.06 134.742C1849.19 119.222 1778.21 71.0291 1693.05 56.2772C1589.25 38.2997 1491.16 82.2046 1392.64 102.089C1333.47 114.033 1264.58 116.793 1209.19 94.0868V91.4874C1282.5 122.865 1372.06 106.429 1447.56 86.5922C1497.26 73.5337 1546.64 58.5682 1598.39 52.4398C1644.82 46.9469 1690.07 50.5472 1734.33 63.5962C1816.52 87.8255 1891.19 135.762 1981.05 137.038C2084.78 138.513 2175.33 87.0239 2274.44 69.3073C2315.54 61.9645 2358.09 60.8071 2398.64 71.143C2411.6 74.4491 2424.15 78.9032 2435.85 84.5289Z" fill="#E5F7FE"/>
<path d="M2435.85 106.636V109.231C2411.67 97.4247 2383.79 90.8741 2356.2 88.7159C2308.53 84.9828 2261.02 94.9107 2216.15 107.765C2124.97 133.892 2033.03 174.951 1934.06 156.85C1849.19 141.33 1778.21 93.1367 1693.05 78.3847C1589.25 60.4073 1491.16 104.312 1392.64 124.196C1333.47 136.14 1264.58 138.901 1209.19 116.194V113.595C1282.5 144.968 1372.06 128.537 1447.56 108.7C1497.26 95.6412 1546.64 80.6711 1598.39 74.5473C1644.82 69.0497 1690.07 72.6547 1734.33 85.7038C1816.52 109.933 1891.19 157.87 1981.05 159.146C2084.78 160.621 2175.33 109.131 2274.44 91.4148C2315.54 84.0721 2358.09 82.9147 2398.64 93.2505C2411.6 96.5567 2424.15 101.011 2435.85 106.636Z" fill="#E5F7FE"/>
<path d="M2435.85 128.741V131.336C2411.67 119.529 2383.79 112.979 2356.2 110.82C2308.53 107.087 2261.02 117.015 2216.15 129.87C2124.97 155.997 2033.03 197.055 1934.06 178.955C1849.19 163.429 1778.21 115.237 1693.05 100.489C1589.25 82.5118 1491.16 126.417 1392.64 146.301C1333.47 158.24 1264.58 161.006 1209.19 138.299V135.7C1282.5 167.072 1372.06 150.641 1447.56 130.804C1497.26 117.741 1546.64 102.776 1598.39 96.6519C1644.82 91.1543 1690.07 94.7545 1734.33 107.804C1816.52 132.038 1891.19 179.974 1981.05 181.25C2084.78 182.726 2175.33 131.231 2274.44 113.519C2315.54 106.177 2358.09 105.014 2398.64 115.355C2411.6 118.661 2424.15 123.115 2435.85 128.741Z" fill="#E5F7FE"/>
<path d="M2435.85 150.838V153.437C2411.67 141.626 2383.79 135.08 2356.2 132.922C2308.53 129.189 2261.02 139.117 2216.15 151.971C2124.97 178.093 2033.03 219.157 1934.06 201.056C1849.19 185.531 1778.21 137.338 1693.05 122.591C1589.25 104.609 1491.16 148.518 1392.64 168.403C1333.47 180.342 1264.58 183.107 1209.19 160.4V157.801C1282.5 189.174 1372.06 172.743 1447.56 152.906C1497.26 139.843 1546.64 124.877 1598.39 118.753C1644.82 113.256 1690.07 116.856 1734.33 129.905C1816.52 154.139 1891.19 202.071 1981.05 203.352C2084.78 204.827 2175.33 153.333 2274.44 135.621C2315.54 128.273 2358.09 127.116 2398.64 137.452C2411.6 140.758 2424.15 145.212 2435.85 150.838Z" fill="#E5F7FE"/>
<path d="M2435.85 172.943V175.542C2411.67 163.731 2383.79 157.181 2356.2 155.022C2308.53 151.294 2261.02 161.222 2216.15 174.077C2124.97 200.198 2033.03 241.257 1934.06 223.157C1849.19 207.636 1778.21 159.443 1693.05 144.691C1589.25 126.714 1491.16 170.619 1392.64 190.503C1333.47 202.447 1264.58 205.208 1209.19 182.501V179.901C1282.5 211.279 1372.06 194.843 1447.56 175.006C1497.26 161.948 1546.64 146.982 1598.39 140.854C1644.82 135.361 1690.07 138.961 1734.33 152.01C1816.52 176.244 1891.19 224.176 1981.05 225.452C2084.78 226.928 2175.33 175.438 2274.44 157.721C2315.54 150.379 2358.09 149.221 2398.64 159.557C2411.6 162.863 2424.15 167.317 2435.85 172.943Z" fill="#E5F7FE"/>
<path d="M2435.85 195.047V197.641C2411.67 185.835 2383.79 179.284 2356.2 177.126C2308.53 173.393 2261.02 183.321 2216.15 196.175C2124.97 222.302 2033.03 263.361 1934.06 245.26C1849.19 229.74 1778.21 181.547 1693.05 166.795C1589.25 148.817 1491.16 192.722 1392.64 212.607C1333.47 224.55 1264.58 227.311 1209.19 204.605V202.005C1282.5 233.378 1372.06 216.947 1447.56 197.11C1497.26 184.051 1546.64 169.081 1598.39 162.957C1644.82 157.46 1690.07 161.065 1734.33 174.114C1816.52 198.343 1891.19 246.28 1981.05 247.556C2084.78 249.031 2175.33 197.542 2274.44 179.825C2315.54 172.482 2358.09 171.325 2398.64 181.661C2411.6 184.967 2424.15 189.416 2435.85 195.047Z" fill="#E5F7FE"/>
<path d="M2435.85 217.151V219.746C2411.67 207.939 2383.79 201.389 2356.2 199.231C2308.53 195.498 2261.02 205.425 2216.15 218.28C2124.97 244.407 2033.03 285.466 1934.06 267.365C1849.19 251.84 1778.21 203.647 1693.05 188.899C1589.25 170.922 1491.16 214.827 1392.64 234.711C1333.47 246.65 1264.58 249.416 1209.19 226.709V224.11C1282.5 255.483 1372.06 239.051 1447.56 219.214C1497.26 206.151 1546.64 191.186 1598.39 185.062C1644.82 179.564 1690.07 183.165 1734.33 196.214C1816.52 220.448 1891.19 268.385 1981.05 269.661C2084.78 271.136 2175.33 219.641 2274.44 201.93C2315.54 194.587 2358.09 193.425 2398.64 203.765C2411.6 207.071 2424.15 211.521 2435.85 217.151Z" fill="#E5F7FE"/>
<path d="M2435.85 239.254V241.853C2411.67 230.042 2383.79 223.496 2356.2 221.338C2308.53 217.605 2261.02 227.533 2216.15 240.387C2124.97 266.509 2033.03 307.573 1934.06 289.472C1849.19 273.947 1778.21 225.754 1693.05 211.007C1589.25 193.025 1491.16 236.934 1392.64 256.819C1333.47 268.758 1264.58 271.523 1209.19 248.816V246.217C1282.5 277.59 1372.06 261.159 1447.56 241.322C1497.26 228.259 1546.64 213.293 1598.39 207.169C1644.82 201.672 1690.07 205.272 1734.33 218.321C1816.52 242.555 1891.19 290.487 1981.05 291.768C2084.78 293.243 2175.33 241.749 2274.44 224.037C2315.54 216.689 2358.09 215.532 2398.64 225.868C2411.6 229.174 2424.15 233.628 2435.85 239.254Z" fill="#E5F7FE"/>
<path d="M2435.85 261.355V263.954C2411.67 252.143 2383.79 245.597 2356.2 243.434C2308.53 239.706 2261.02 249.634 2216.15 262.489C2124.97 288.611 2033.03 329.669 1934.06 311.569C1849.19 296.048 1778.21 247.855 1693.05 233.103C1589.25 215.126 1491.16 259.031 1392.64 278.915C1333.47 290.859 1264.58 293.62 1209.19 270.913V268.314C1282.5 299.691 1372.06 283.255 1447.56 263.418C1497.26 250.36 1546.64 235.394 1598.39 229.266C1644.82 223.773 1690.07 227.373 1734.33 240.422C1816.52 264.656 1891.19 312.588 1981.05 313.864C2084.78 315.34 2175.33 263.85 2274.44 246.133C2315.54 238.791 2358.09 237.633 2398.64 247.969C2411.6 251.275 2424.15 255.729 2435.85 261.355Z" fill="#E5F7FE"/>
<path d="M2435.85 283.461V286.055C2411.67 274.249 2383.79 267.698 2356.2 265.54C2308.53 261.807 2261.02 271.735 2216.15 284.59C2124.97 310.716 2033.03 351.775 1934.06 333.674C1849.19 318.154 1778.21 269.961 1693.05 255.209C1589.25 237.231 1491.16 281.136 1392.64 301.021C1333.47 312.965 1264.58 315.725 1209.19 293.019V290.419C1282.5 321.792 1372.06 305.361 1447.56 285.524C1497.26 272.465 1546.64 257.495 1598.39 251.372C1644.82 245.874 1690.07 249.479 1734.33 262.528C1816.52 286.757 1891.19 334.694 1981.05 335.97C2084.78 337.445 2175.33 285.956 2274.44 268.239C2315.54 260.896 2358.09 259.739 2398.64 270.075C2411.6 273.381 2424.15 277.835 2435.85 283.461Z" fill="#E5F7FE"/>
<path d="M2435.85 305.561V308.156C2411.67 296.35 2383.79 289.799 2356.2 287.641C2308.53 283.908 2261.02 293.836 2216.15 306.69C2124.97 332.817 2033.03 373.876 1934.06 355.775C1849.19 340.25 1778.21 292.057 1693.05 277.31C1589.25 259.332 1491.16 303.237 1392.64 323.121C1333.47 335.06 1264.58 337.826 1209.19 315.119V312.52C1282.5 343.893 1372.06 327.462 1447.56 307.625C1497.26 294.561 1546.64 279.596 1598.39 273.472C1644.82 267.975 1690.07 271.575 1734.33 284.624C1816.52 308.858 1891.19 356.795 1981.05 358.071C2084.78 359.546 2175.33 308.052 2274.44 290.34C2315.54 282.997 2358.09 281.835 2398.64 292.175C2411.6 295.482 2424.15 299.936 2435.85 305.561Z" fill="#E5F7FE"/>
<path d="M2435.85 327.664V330.263C2411.67 318.452 2383.79 311.906 2356.2 309.748C2308.53 306.015 2261.02 315.943 2216.15 328.798C2124.97 354.92 2033.03 395.983 1934.06 377.882C1849.19 362.357 1778.21 314.164 1693.05 299.417C1589.25 281.435 1491.16 325.344 1392.64 345.229C1333.47 357.168 1264.58 359.933 1209.19 337.227V334.627C1282.5 366 1372.06 349.569 1447.56 329.732C1497.26 316.669 1546.64 301.703 1598.39 295.58C1644.82 290.082 1690.07 293.682 1734.33 306.731C1816.52 330.965 1891.19 378.897 1981.05 380.178C2084.78 381.653 2175.33 330.159 2274.44 312.447C2315.54 305.1 2358.09 303.942 2398.64 314.278C2411.6 317.584 2424.15 322.038 2435.85 327.664Z" fill="#E5F7FE"/>
<path d="M2435.85 349.769V352.368C2411.67 340.557 2383.79 334.012 2356.2 331.849C2308.53 328.12 2261.02 338.048 2216.15 350.903C2124.97 377.025 2033.03 418.084 1934.06 399.983C1849.19 384.462 1778.21 336.269 1693.05 321.517C1589.25 303.54 1491.16 347.445 1392.64 367.329C1333.47 379.273 1264.58 382.034 1209.19 359.327V356.728C1282.5 388.105 1372.06 371.669 1447.56 351.832C1497.26 338.774 1546.64 323.808 1598.39 317.68C1644.82 312.187 1690.07 315.787 1734.33 328.836C1816.52 353.07 1891.19 401.003 1981.05 402.278C2084.78 403.754 2175.33 352.264 2274.44 334.548C2315.54 327.205 2358.09 326.047 2398.64 336.383C2411.6 339.689 2424.15 344.143 2435.85 349.769Z" fill="#E5F7FE"/>
<path d="M2435.85 371.871V374.465C2411.67 362.659 2383.79 356.109 2356.2 353.95C2308.53 350.217 2261.02 360.145 2216.15 373C2124.97 399.126 2033.03 440.185 1934.06 422.084C1849.19 406.564 1778.21 358.371 1693.05 343.619C1589.25 325.642 1491.16 369.547 1392.64 389.431C1333.47 401.375 1264.58 404.135 1209.19 381.429V378.829C1282.5 410.202 1372.06 393.771 1447.56 373.934C1497.26 360.876 1546.64 345.905 1598.39 339.782C1644.82 334.284 1690.07 337.889 1734.33 350.938C1816.52 375.167 1891.19 423.104 1981.05 424.38C2084.78 425.855 2175.33 374.366 2274.44 356.649C2315.54 349.306 2358.09 348.149 2398.64 358.485C2411.6 361.791 2424.15 366.24 2435.85 371.871Z" fill="#E5F7FE"/>
<path d="M2435.85 393.975V396.57C2411.67 384.764 2383.79 378.213 2356.2 376.055C2308.53 372.322 2261.02 382.25 2216.15 395.104C2124.97 421.231 2033.03 462.29 1934.06 444.189C1849.19 428.664 1778.21 380.471 1693.05 365.724C1589.25 347.746 1491.16 391.651 1392.64 411.535C1333.47 423.475 1264.58 426.24 1209.19 403.533V400.934C1282.5 432.307 1372.06 415.876 1447.56 396.039C1497.26 382.975 1546.64 368.01 1598.39 361.886C1644.82 356.389 1690.07 359.989 1734.33 373.038C1816.52 397.272 1891.19 445.209 1981.05 446.485C2084.78 447.96 2175.33 396.466 2274.44 378.754C2315.54 371.411 2358.09 370.249 2398.64 380.589C2411.6 383.896 2424.15 388.345 2435.85 393.975Z" fill="#E5F7FE"/>
<path d="M2435.85 416.074V418.673C2411.67 406.867 2383.79 400.317 2356.2 398.158C2308.53 394.425 2261.02 404.353 2216.15 417.208C2124.97 443.33 2033.03 484.393 1934.06 466.292C1849.19 450.767 1778.21 402.574 1693.05 387.827C1589.25 369.845 1491.16 413.755 1392.64 433.639C1333.47 445.578 1264.58 448.343 1209.19 425.637V423.037C1282.5 454.41 1372.06 437.979 1447.56 418.142C1497.26 405.079 1546.64 390.113 1598.39 383.99C1644.82 378.492 1690.07 382.092 1734.33 395.141C1816.52 419.376 1891.19 467.308 1981.05 468.588C2084.78 470.063 2175.33 418.569 2274.44 400.857C2315.54 393.51 2358.09 392.352 2398.64 402.688C2411.6 405.994 2424.15 410.448 2435.85 416.074Z" fill="#E5F7FE"/>
<path d="M2435.85 438.181V440.781C2411.67 428.97 2383.79 422.424 2356.2 420.261C2308.53 416.532 2261.02 426.46 2216.15 439.315C2124.97 465.437 2033.03 506.496 1934.06 488.395C1849.19 472.874 1778.21 424.681 1693.05 409.93C1589.25 391.952 1491.16 435.857 1392.64 455.741C1333.47 467.685 1264.58 470.446 1209.19 447.739V445.14C1282.5 476.517 1372.06 460.081 1447.56 440.245C1497.26 427.186 1546.64 412.221 1598.39 406.092C1644.82 400.599 1690.07 404.199 1734.33 417.249C1816.52 441.483 1891.19 489.415 1981.05 490.691C2084.78 492.166 2175.33 440.676 2274.44 422.96C2315.54 415.617 2358.09 414.459 2398.64 424.795C2411.6 428.101 2424.15 432.556 2435.85 438.181Z" fill="#E5F7FE"/>
<path d="M2435.85 460.285V462.879C2411.67 451.073 2383.79 444.523 2356.2 442.364C2308.53 438.631 2261.02 448.559 2216.15 461.414C2124.97 487.54 2033.03 528.599 1934.06 510.498C1849.19 494.978 1778.21 446.785 1693.05 432.033C1589.25 414.056 1491.16 457.961 1392.64 477.845C1333.47 489.789 1264.58 492.549 1209.19 469.843V467.243C1282.5 498.616 1372.06 482.185 1447.56 462.348C1497.26 449.29 1546.64 434.319 1598.39 428.196C1644.82 422.698 1690.07 426.303 1734.33 439.352C1816.52 463.582 1891.19 511.518 1981.05 512.794C2084.78 514.269 2175.33 462.78 2274.44 445.063C2315.54 437.721 2358.09 436.563 2398.64 446.899C2411.6 450.205 2424.15 454.659 2435.85 460.285Z" fill="#E5F7FE"/>
<path d="M2435.85 482.387V484.982C2411.67 473.176 2383.79 466.625 2356.2 464.467C2308.53 460.734 2261.02 470.662 2216.15 483.516C2124.97 509.643 2033.03 550.702 1934.06 532.601C1849.19 517.076 1778.21 468.883 1693.05 454.136C1589.25 436.158 1491.16 480.063 1392.64 499.947C1333.47 511.887 1264.58 514.652 1209.19 491.945V489.346C1282.5 520.719 1372.06 504.288 1447.56 484.451C1497.26 471.388 1546.64 456.422 1598.39 450.298C1644.82 444.801 1690.07 448.401 1734.33 461.45C1816.52 485.684 1891.19 533.621 1981.05 534.897C2084.78 536.372 2175.33 484.878 2274.44 467.166C2315.54 459.823 2358.09 458.661 2398.64 469.002C2411.6 472.308 2424.15 476.762 2435.85 482.387Z" fill="#E5F7FE"/>
<path d="M2435.85 504.488V507.088C2411.67 495.281 2383.79 488.731 2356.2 486.572C2308.53 482.839 2261.02 492.767 2216.15 505.622C2124.97 531.744 2033.03 572.807 1934.06 554.707C1849.19 539.181 1778.21 490.988 1693.05 476.241C1589.25 458.259 1491.16 502.169 1392.64 522.053C1333.47 533.992 1264.58 536.758 1209.19 514.051V511.451C1282.5 542.824 1372.06 526.393 1447.56 506.556C1497.26 493.493 1546.64 478.528 1598.39 472.404C1644.82 466.906 1690.07 470.506 1734.33 483.556C1816.52 507.79 1891.19 555.722 1981.05 557.002C2084.78 558.478 2175.33 506.983 2274.44 489.271C2315.54 481.924 2358.09 480.766 2398.64 491.102C2411.6 494.408 2424.15 498.863 2435.85 504.488Z" fill="#E5F7FE"/>
<path d="M2435.85 526.589V529.189C2411.67 517.378 2383.79 510.832 2356.2 508.669C2308.53 504.941 2261.02 514.868 2216.15 527.723C2124.97 553.845 2033.03 594.904 1934.06 576.803C1849.19 561.283 1778.21 513.09 1693.05 498.338C1589.25 480.36 1491.16 524.265 1392.64 544.149C1333.47 556.093 1264.58 558.854 1209.19 536.147V533.548C1282.5 564.926 1372.06 548.49 1447.56 528.653C1497.26 515.594 1546.64 500.629 1598.39 494.5C1644.82 489.007 1690.07 492.608 1734.33 505.657C1816.52 529.891 1891.19 577.823 1981.05 579.099C2084.78 580.574 2175.33 529.084 2274.44 511.368C2315.54 504.025 2358.09 502.868 2398.64 513.204C2411.6 516.51 2424.15 520.964 2435.85 526.589Z" fill="#E5F7FE"/>
<path d="M2435.85 548.697V551.292C2411.67 539.485 2383.79 532.935 2356.2 530.776C2308.53 527.043 2261.02 536.971 2216.15 549.826C2124.97 575.953 2033.03 617.011 1934.06 598.911C1849.19 583.39 1778.21 535.197 1693.05 520.445C1589.25 502.468 1491.16 546.373 1392.64 566.257C1333.47 578.201 1264.58 580.962 1209.19 558.255V555.656C1282.5 587.028 1372.06 570.597 1447.56 550.76C1497.26 537.702 1546.64 522.732 1598.39 516.608C1644.82 511.11 1690.07 514.715 1734.33 527.764C1816.52 551.994 1891.19 599.93 1981.05 601.206C2084.78 602.682 2175.33 551.192 2274.44 533.475C2315.54 526.133 2358.09 524.975 2398.64 535.311C2411.6 538.617 2424.15 543.067 2435.85 548.697Z" fill="#E5F7FE"/>
<path d="M2435.85 570.801V573.396C2411.67 561.59 2383.79 555.039 2356.2 552.881C2308.53 549.148 2261.02 559.076 2216.15 571.93C2124.97 598.057 2033.03 639.116 1934.06 621.015C1849.19 605.49 1778.21 557.297 1693.05 542.55C1589.25 524.572 1491.16 568.477 1392.64 588.362C1333.47 600.301 1264.58 603.066 1209.19 580.359V577.76C1282.5 609.133 1372.06 592.702 1447.56 572.865C1497.26 559.802 1546.64 544.836 1598.39 538.712C1644.82 533.215 1690.07 536.815 1734.33 549.864C1816.52 574.098 1891.19 622.035 1981.05 623.311C2084.78 624.786 2175.33 573.292 2274.44 555.58C2315.54 548.237 2358.09 547.075 2398.64 557.416C2411.6 560.722 2424.15 565.171 2435.85 570.801Z" fill="#E5F7FE"/>
<path d="M2435.85 592.9V595.5C2411.67 583.693 2383.79 577.143 2356.2 574.984C2308.53 571.251 2261.02 581.179 2216.15 594.034C2124.97 620.156 2033.03 661.219 1934.06 643.119C1849.19 627.593 1778.21 579.401 1693.05 564.653C1589.25 546.671 1491.16 590.581 1392.64 610.465C1333.47 622.404 1264.58 625.17 1209.19 602.463V599.864C1282.5 631.236 1372.06 614.805 1447.56 594.968C1497.26 581.905 1546.64 566.94 1598.39 560.816C1644.82 555.318 1690.07 558.919 1734.33 571.968C1816.52 596.202 1891.19 644.134 1981.05 645.414C2084.78 646.89 2175.33 595.395 2274.44 577.683C2315.54 570.336 2358.09 569.179 2398.64 579.514C2411.6 582.821 2424.15 587.275 2435.85 592.9Z" fill="#E5F7FE"/>
<path d="M2435.85 615.003V617.603C2411.67 605.792 2383.79 599.246 2356.2 597.083C2308.53 593.355 2261.02 603.283 2216.15 616.137C2124.97 642.259 2033.03 683.318 1934.06 665.217C1849.19 649.697 1778.21 601.504 1693.05 586.752C1589.25 568.774 1491.16 612.679 1392.64 632.564C1333.47 644.507 1264.58 647.268 1209.19 624.561V621.962C1282.5 653.34 1372.06 636.904 1447.56 617.067C1497.26 604.008 1546.64 589.043 1598.39 582.914C1644.82 577.422 1690.07 581.022 1734.33 594.071C1816.52 618.305 1891.19 666.237 1981.05 667.518C2084.78 668.988 2175.33 617.499 2274.44 599.782C2315.54 592.439 2358.09 591.282 2398.64 601.618C2411.6 604.924 2424.15 609.378 2435.85 615.003Z" fill="#E5F7FE"/>
<path d="M1734.33 616.176C1802.76 636.35 1865.98 672.955 1937.09 685.383H1924.29C1843.69 668.131 1774.92 623.04 1693.05 608.857C1589.25 590.88 1491.16 634.785 1392.64 654.669C1333.47 666.613 1264.58 669.374 1209.19 646.667V644.068C1282.5 675.441 1372.06 659.009 1447.56 639.172C1497.26 626.114 1546.64 611.144 1598.39 605.02C1644.82 599.522 1690.07 603.127 1734.33 616.176Z" fill="#E5F7FE"/>
<path d="M1859.56 685.383H1852.58C1800.16 665.427 1749.75 640.781 1693.05 630.962C1589.25 612.984 1491.16 656.889 1392.64 676.774C1371.05 681.133 1348.17 684.263 1325.13 685.383H1289.04C1261.12 683.927 1233.82 678.865 1209.19 668.772V666.172C1282.5 697.545 1372.06 681.114 1447.56 661.277C1497.26 648.214 1546.64 633.248 1598.39 627.125C1644.82 621.627 1690.07 625.227 1734.33 638.276C1777.04 650.87 1817.72 669.863 1859.56 685.383Z" fill="#E5F7FE"/>
<path d="M1734.33 660.378C1757.87 667.317 1780.79 676.202 1803.63 685.38H1797.27C1763.66 671.933 1729.67 659.405 1693.05 653.063C1609.16 638.53 1529.01 664.419 1449.35 685.38H1439.84C1442.43 684.716 1445 684.052 1447.56 683.379C1497.26 670.315 1546.64 655.35 1598.39 649.226C1644.82 643.728 1690.07 647.329 1734.33 660.378Z" fill="#E5F7FE"/>
<path d="M1734.33 682.483C1737.49 683.413 1740.64 684.38 1743.77 685.381H1735.8C1721.87 681.212 1707.67 677.697 1693.05 675.164C1638.87 665.781 1586.24 673.257 1534.29 685.381H1523.93C1548.39 679.423 1573.11 674.32 1598.39 671.326C1644.82 665.834 1690.07 669.434 1734.33 682.483Z" fill="#E5F7FE"/>
</g>
<defs>
<clipPath id="clip0_3814_10127">
<rect width="1226.67" height="695.382" fill="white" transform="translate(-17.4766 -3.38281)"/>
</clipPath>
<clipPath id="clip1_3814_10127">
<rect width="1226.67" height="695.382" fill="white" transform="translate(1209.19 -10)"/>
</clipPath>
</defs>
</svg>
