<svg width="67" height="76" viewBox="0 0 67 76" fill="none" xmlns="http://www.w3.org/2000/svg">
<g clip-path="url(#clip0_3816_10281)">
<path d="M41.4192 31.8622C45.9113 27.8037 51.8601 25.3352 58.3927 25.3352C44.3991 25.3352 33.0575 13.9936 33.0575 0C33.0575 13.9936 21.7159 25.3352 7.72231 25.3352C14.2493 25.3352 20.1981 27.8037 24.6903 31.8622C24.2622 32.3403 23.8285 32.8073 23.3782 33.2632C17.3849 39.2565 9.1289 42.9481 0 42.9481C9.1289 42.9481 17.3849 46.6508 23.3782 52.6329C29.3437 58.6151 33.0519 66.8822 33.0519 76.0111C33.0519 66.8822 36.7546 58.6151 42.7368 52.6329C48.719 46.6508 56.9861 42.9481 66.0983 42.9481C56.2856 42.9481 47.4736 38.6616 41.4192 31.8677V31.8622ZM40.752 50.6537C35.9985 55.4072 33.0519 61.9786 33.0519 69.2395C33.0519 61.9842 30.1053 55.4072 25.3519 50.6537C20.5984 45.8891 14.0269 42.9425 6.76606 42.9425C14.7108 42.9425 21.8271 39.4122 26.6473 33.8359C30.6279 38.3113 33.0519 44.2045 33.0519 50.6704C33.0519 44.2101 35.4704 38.3225 39.4511 33.847C39.868 34.3251 40.2961 34.7977 40.7409 35.248C45.4944 40.0015 52.0658 42.9481 59.3378 42.9481C52.0658 42.9481 45.4944 45.8947 40.7409 50.6593L40.752 50.6537Z" fill="#BCCD77"/>
</g>
<defs>
<clipPath id="clip0_3816_10281">
<rect width="66.0928" height="76" fill="white"/>
</clipPath>
</defs>
</svg>
