<svg width="24" height="26" viewBox="0 0 24 26" fill="none" xmlns="http://www.w3.org/2000/svg">
<path fill-rule="evenodd" clip-rule="evenodd" d="M11.9218 7.61963C12.0898 7.60446 12.0465 7.59313 12.1792 7.62609C12.1897 7.64574 12.2686 7.63889 12.2548 7.66808C12.2457 7.68728 12.2799 7.66609 12.301 7.72945C12.3019 7.72945 12.3013 7.73272 12.3035 7.73592L12.3452 7.76177C12.3371 7.76824 12.3633 7.7747 12.3782 7.78116C12.3913 7.83032 12.429 7.81336 12.4114 7.90392C12.4049 7.93771 12.4462 8.15044 12.4285 8.16228C12.4106 8.17432 12.4651 8.23153 12.4344 8.31409C12.3972 8.41406 12.3851 8.42519 12.373 8.52081C12.4696 8.52081 12.7892 8.60273 12.8878 8.64356C12.9846 8.68369 13.1972 8.6812 13.2166 8.73079C13.2407 8.79249 13.5138 8.81732 13.6206 8.94071L13.6875 9.02788C13.6602 9.03864 13.6059 9.022 13.5615 9.01496C13.5634 9.01816 13.5651 9.02142 13.567 9.02142C13.5864 9.0442 13.5748 9.03064 13.5334 9.06667C13.5371 9.09841 13.6884 9.1539 13.35 9.09899C13.0596 9.05188 12.6158 9.05483 12.3185 9.08286C12.0724 9.10603 11.8901 9.08376 11.6376 9.14097L11.4267 9.19908C11.3584 9.2348 11.3398 9.21777 11.3186 9.2314C11.2514 9.27435 11.1211 9.32158 11.0237 9.38641C10.8082 9.52977 10.6502 9.78033 10.7712 10.0324C10.8402 10.1762 10.9922 10.282 11.1597 10.3715L11.391 10.4555L11.599 10.4878C11.6794 10.5127 12.1293 10.5325 12.2284 10.5394C12.2743 10.5426 12.324 10.5394 12.3711 10.5459C12.9533 10.62 13.5824 10.832 13.9014 11.3695C13.9931 11.5239 14.0896 11.8217 14.0748 11.9993C14.0295 12.5445 13.75 12.9095 13.2693 13.1588C13.1403 13.2256 12.8059 13.3574 12.676 13.3622L12.3405 13.4203C12.3432 13.4749 12.3394 13.5243 12.3724 13.5657C12.3904 13.5657 12.3622 13.5657 12.377 13.5883C12.3771 13.5885 12.4038 13.7368 12.4199 13.7368C12.4569 13.8756 12.4491 13.8671 12.426 13.9694L12.4134 13.992C12.4107 14.0459 12.4164 14.0119 12.3924 14.0598C12.3915 14.0598 12.3905 14.063 12.3899 14.063C12.3732 14.1151 12.3044 14.119 12.2662 14.1438C12.1996 14.1869 11.9741 14.2219 11.9087 14.2213C11.893 14.2212 11.7125 14.184 11.7262 14.1567C11.7345 14.1401 11.7067 14.1607 11.6804 14.0986L11.6358 14.0663C11.6442 14.0566 11.618 14.0502 11.6032 14.0437C11.5938 14.0405 11.601 14.0372 11.599 14.0308C11.578 13.9921 11.5805 14.0514 11.57 13.9242L11.5525 13.6658C11.5674 13.6562 11.5444 13.6464 11.5496 13.6335C11.564 13.6032 11.5004 13.6203 11.5638 13.4785L11.5974 13.3816C11.2634 13.3136 11.3053 13.293 11.018 13.1782C10.8864 13.1255 10.6633 12.9828 10.5559 12.8875L10.47 12.7841C10.4696 12.7306 10.4395 12.7131 10.4287 12.6711C10.4148 12.6194 10.4148 12.6194 10.3883 12.5839C10.5226 12.5839 10.4437 12.5571 10.5052 12.5775C10.5689 12.5985 10.5601 12.5511 10.6389 12.5743C10.8331 12.6311 10.7367 12.5273 11.0239 12.6227C11.1322 12.6587 11.2527 12.6356 11.381 12.6614C11.6203 12.7095 11.691 12.6645 11.7567 12.6679C11.8562 12.6731 11.8328 12.6601 11.8594 12.6614C11.9433 12.6656 11.9592 12.654 12.0409 12.6324C12.1132 12.6132 12.1322 12.6437 12.3697 12.571C12.4864 12.5353 12.6638 12.4949 12.7691 12.4386C12.9096 12.3635 12.999 12.33 13.0982 12.2028C13.3612 11.8658 13.0226 11.6388 12.7343 11.5019C12.5993 11.4379 12.4692 11.4245 12.3961 11.3986C12.3154 11.3699 12.0514 11.3615 11.9332 11.3566C11.6482 11.3447 11.6548 11.354 11.3354 11.2887C10.741 11.1674 10.0648 10.6755 9.99218 10.0486C9.90815 9.32286 10.4103 8.8282 11.0644 8.60164C11.268 8.53118 11.4473 8.50289 11.6532 8.47249C11.6388 8.34673 11.651 8.34891 11.6067 8.25931L11.5612 8.09137C11.5333 7.98692 11.5273 7.95972 11.5551 7.85886C11.557 7.8524 11.5541 7.84273 11.5667 7.83627L11.5887 7.76523C11.5899 7.76523 11.5909 7.76203 11.5912 7.76203C11.6122 7.69592 11.8591 7.63825 11.9218 7.61963ZM22.4726 10.3681L22.439 9.74801C22.4262 9.55012 22.4418 9.30795 22.4338 9.11499C22.4205 8.79256 22.4246 8.40619 22.4063 8.09764C22.3806 7.66199 22.193 7.3482 21.8269 7.12875L20.9446 6.57003C20.8044 6.47633 20.6594 6.39236 20.5173 6.3052L16.8943 4.03473L13.8451 2.1292C13.6494 2.00651 13.4469 1.89022 13.2583 1.761L12.6469 1.37668C12.232 1.13304 11.8132 1.09739 11.3837 1.36376L10.3635 2.00324C8.68505 3.04945 6.99378 4.0723 5.31129 5.11019L4.47353 5.63019C4.34405 5.71147 2.07212 7.11332 1.95954 7.20305C1.66668 7.43646 1.52037 7.78315 1.51967 8.15255L1.51647 9.47025C1.51615 9.57361 1.51129 9.67371 1.51033 9.77707C1.50962 9.88216 1.52857 10.3115 1.49292 10.3875C1.46879 10.439 1.56409 10.6007 1.69606 10.6007L2.67884 10.6168C2.95372 10.6265 3.23077 10.6265 3.50469 10.6427C3.78034 10.6601 4.18233 10.6351 4.46777 10.6297C4.65202 10.6263 4.59922 10.6578 4.78623 10.6653C5.21407 10.6824 5.62604 10.6529 6.0542 10.6879C6.07353 10.2758 6.14015 9.86321 6.24057 9.46379C6.32556 9.12574 6.37465 9.02641 6.49279 8.73067C6.79654 7.97048 7.22764 7.33592 7.80825 6.76702C8.12581 6.45585 8.65983 6.06001 9.05817 5.88529C9.4437 5.7162 9.89445 5.52312 10.3042 5.44926C10.527 5.40913 10.9563 5.33758 11.1917 5.3459C11.2388 5.34756 11.516 5.35576 11.5382 5.37496C11.5841 5.40728 11.6664 5.41694 11.7462 5.43307C11.8002 5.4451 11.8034 5.4771 11.9907 5.50411C11.9071 5.52024 11.8253 5.5267 11.7737 5.55576C11.7604 5.56542 11.7175 5.56542 11.6878 5.56868C11.5112 5.58737 11.5312 5.62091 11.3313 5.65265C11.1212 5.686 11.0107 5.71678 10.8168 5.8012L10.4754 5.91102C10.2333 5.98001 10.0685 6.0474 9.84914 6.15972C9.56146 6.30699 8.8533 6.72868 8.62444 6.993L8.35346 7.2675L8.24946 7.39345C8.06994 7.57003 7.96415 7.77854 7.81861 7.98129C7.60754 8.27531 7.44953 8.59902 7.31673 8.93406C6.76658 10.322 6.77145 11.8133 7.44914 13.1617C7.62642 13.5138 7.84121 13.8496 8.0951 14.1533C8.7079 14.877 9.60127 15.4831 10.5154 15.7487C11.0133 15.8934 11.0514 15.9058 11.612 15.9554C11.8532 15.9768 12.1474 15.97 12.3883 15.9458C13.7875 15.805 15.0342 15.191 15.9442 14.0984C16.3743 13.5821 16.647 13.0629 16.8609 12.4416C17.0055 12.0213 17.1096 11.3131 17.1015 10.901C17.0966 10.654 17.083 10.3718 17.0479 10.1291C16.9395 9.38148 16.6457 8.61649 16.213 8.00075C16.1668 7.93617 16.1287 7.86833 16.0806 7.80696L15.8716 7.55825C15.8136 7.48331 15.7915 7.4227 15.7321 7.3548C15.6003 7.20408 15.4242 7.03812 15.267 6.9091C14.8635 6.57803 14.6852 6.45835 14.2196 6.19537C14.0552 6.10251 13.7069 5.98251 13.5258 5.937C13.4774 5.92734 13.4292 5.91115 13.3989 5.88535C13.3482 5.84017 13.0301 5.76145 12.9516 5.7562C12.8513 5.74942 12.0838 5.6291 11.9908 5.5818C12.0497 5.56267 12.2505 5.55595 12.3222 5.55595C12.3138 5.55275 12.3067 5.54948 12.2979 5.54948C12.2139 5.53585 12.3 5.52625 12.3389 5.49784C12.312 5.47582 12.2402 5.47947 12.1936 5.46552C12.1855 5.44939 12.2168 5.44939 12.2381 5.44612C12.6138 5.39768 13.2564 5.4922 13.6066 5.56561C14.0944 5.66788 14.6015 5.86232 15.0418 6.105C16.0082 6.63748 16.6438 7.34737 17.1612 8.30763C17.2862 8.53969 17.3737 8.77592 17.4709 9.01816C17.5608 9.24209 17.5501 9.29982 17.5907 9.4122C17.7168 9.76049 17.7926 10.4011 17.8039 10.7816C18.0961 10.7816 18.066 10.733 18.3297 10.7267C18.569 10.7235 18.7995 10.7073 19.0146 10.6718C19.1598 10.6457 19.622 10.6498 19.7775 10.6524C19.9693 10.6557 20.1644 10.6492 20.3544 10.6395C20.9589 10.6058 21.5093 10.6164 22.1078 10.6039C22.2719 10.6005 22.4653 10.5892 22.4726 10.3681ZM20.7718 21.375C20.1799 21.3207 19.5185 21.327 18.9625 21.2716C18.6179 21.2372 18.0875 21.2308 17.7323 21.2199C17.7436 21.0791 17.7784 21.1593 17.7704 21.0907C17.7638 21.0341 17.7455 20.9023 17.7572 20.8517C17.799 20.6697 17.7984 20.2247 17.8221 20.1961C17.8612 20.1488 17.8384 20.0888 17.8405 20.0346C17.8415 20.0087 17.846 19.983 17.8466 19.9571L17.8825 18.2712C17.9021 17.6694 17.9501 17.0799 17.9377 16.4787C17.9354 16.3636 17.919 16.245 17.9258 16.1299C17.9313 16.033 17.908 15.9394 17.9232 15.8425L17.9238 14.9995C17.9222 14.922 17.9158 14.8445 17.9148 14.767L17.9096 13.6948C17.9096 13.6528 17.9032 13.6108 17.906 13.5688L17.8983 12.8454L17.8767 12.5999C17.8747 12.5644 17.8812 12.5256 17.8728 12.4901C17.858 12.4287 17.8312 12.3673 17.8395 12.3028C17.8399 12.2995 17.8389 12.2963 17.8373 12.2931C17.8113 12.2411 17.8401 12.1787 17.8082 12.122C17.7917 12.0925 17.7867 11.8625 17.7869 11.8377C17.7873 11.7764 17.7792 11.7183 17.7675 11.6569L17.7834 11.5115L17.8053 10.914C17.8973 10.9334 17.9878 10.9528 18.0372 10.9851L18.4509 11.0496C18.9475 11.1046 19.7611 11.1714 20.2514 11.1918C20.4707 11.2015 20.69 11.2112 20.9045 11.2306C20.9045 11.2307 20.9065 11.3591 20.8783 11.3791C20.8331 11.4112 20.8985 11.569 20.8751 11.6665C20.8397 11.8144 20.8301 12.2943 20.8102 12.3222C20.7703 12.3782 20.7937 12.4149 20.7918 12.4836C20.7908 12.5095 20.786 12.5353 20.7857 12.5579L20.7498 14.2438C20.7352 14.6903 20.6878 15.3282 20.693 15.7327L20.7066 16.3851C20.7014 16.482 20.7243 16.5789 20.7094 16.6758L20.7085 17.5188C20.7101 17.5963 20.7172 17.6738 20.7181 17.7513L20.7227 18.8235C20.7233 18.8655 20.7295 18.9075 20.7269 18.9495L20.734 19.6697L20.756 19.9151C20.7579 19.9539 20.7514 19.9894 20.7602 20.0281C20.7747 20.0895 20.8009 20.1509 20.7928 20.2123C20.7928 20.2155 20.7931 20.2187 20.7947 20.2219C20.8205 20.273 20.7919 20.3288 20.8238 20.3931C20.8401 20.426 20.8458 20.6487 20.8454 20.6774C20.8436 20.8158 20.8898 20.9168 20.8832 21.0262C20.8678 21.2825 20.9414 21.1938 20.9588 21.3879C20.8964 21.3814 20.8341 21.3782 20.7718 21.375ZM16.6352 21.2006C16.8975 21.2038 17.1584 21.207 17.4191 21.2135C17.3343 20.863 17.2344 20.5203 17.2049 20.1542L17.18 19.4953C17.1632 19.3933 17.189 19.407 17.1803 19.3758L17.1364 18.2292C17.1258 17.7233 17.1446 17.256 17.1025 16.7501C17.0965 16.6766 17.1088 16.654 17.098 16.5337L17.0909 16.0976C17.0899 16.0589 17.0822 16.0201 17.0828 15.9814C17.0852 15.6949 17.067 15.5129 17.0563 15.2418L17.0301 13.8724C16.337 15.0545 15.2405 15.9642 13.9603 16.4432L14.0714 16.7145C14.122 16.8487 14.1139 17.1429 14.127 17.1828C14.1433 17.2326 14.1168 17.2287 14.126 17.2441C14.1421 17.2765 14.1315 17.3087 14.136 17.341C14.1812 17.7575 14.1478 18.2433 14.2035 18.5942L14.2158 18.9333C14.2168 18.9527 14.2242 18.9721 14.2242 18.9914L14.25 19.3725L14.2778 20.0152L14.2455 20.5449C14.2449 20.5471 14.2426 20.9523 14.1686 21.1069L14.1244 21.1779H15.0129L16.6352 21.2006ZM12.6682 21.165L10.4503 21.1489L10.4868 20.8905C10.4893 20.8735 10.5303 20.8669 10.5178 20.8227L10.5637 19.786L10.6131 19.1206L10.5999 18.7847C10.6057 18.7331 10.5827 18.6847 10.5972 18.6329C10.6123 18.5242 10.5718 17.629 10.5802 17.4638C10.592 17.361 10.5845 17.0839 10.5514 16.989L10.5469 16.9083C10.532 16.8759 10.5058 16.8469 10.5136 16.8114C10.5139 16.8114 10.513 16.8082 10.512 16.8082C10.4858 16.7803 10.5146 16.751 10.4823 16.7177L10.4635 16.6144C11.3307 16.8379 12.3354 16.8735 13.2168 16.6628L13.522 16.5918C13.5107 16.6379 13.5019 16.8099 13.4849 16.8211C13.4442 16.848 13.4687 16.8725 13.4658 16.9051L13.4174 17.9127L13.3677 18.5781L13.3809 18.914C13.3754 18.9656 13.3983 19.0141 13.3835 19.0625C13.3688 19.1602 13.409 20.0793 13.401 20.2349C13.3889 20.3362 13.3967 20.6159 13.4294 20.7097L13.4342 20.7904C13.4491 20.8228 13.4749 20.8518 13.4675 20.8873C13.4669 20.8873 13.4678 20.8905 13.4694 20.8905C13.4963 20.9198 13.4634 20.9378 13.4985 20.9778C13.5181 21 13.5167 21.1342 13.5256 21.1748C13.2411 21.165 12.954 21.165 12.6682 21.165ZM8.81414 21.1456L9.97298 21.1488L9.90969 20.9841C9.85938 20.8571 9.867 20.5532 9.85414 20.5158C9.83769 20.4679 9.86329 20.4693 9.85509 20.4544C9.83858 20.4222 9.84927 20.3899 9.84473 20.3575C9.79941 19.9382 9.83474 19.4914 9.77721 19.1012L9.76492 18.7653C9.76396 18.7459 9.75686 18.7265 9.75686 18.7072C9.75686 18.5322 9.74828 18.4953 9.73068 18.3261L9.70322 17.6833L9.73554 17.1536L9.73778 16.9986C9.74495 16.9028 9.77797 16.6195 9.83045 16.5594C9.86917 16.5151 9.87314 16.4756 9.89215 16.4335C8.58726 15.938 7.53311 15.089 6.83071 13.8626L6.85106 15.2062L6.8782 15.7649C6.88511 15.8447 6.87129 15.8603 6.88274 15.9845L6.88985 16.4205C6.89081 16.4593 6.89855 16.498 6.89823 16.5368C6.89702 16.8336 6.91359 16.995 6.92473 17.2764L6.95218 18.5231L6.92018 19.5469L6.91698 19.8537C6.91052 20.0329 6.87942 20.5805 6.82463 20.7031C6.7959 20.7677 6.78489 20.8388 6.77202 20.9065L6.70194 21.152C7.40601 21.1489 8.11007 21.1456 8.81414 21.1456ZM3.10694 21.1715C3.09983 21.1715 3.09273 21.1715 3.08562 21.1715C3.09087 21.1195 3.1246 21.1447 3.11922 21.0907C3.11327 21.0309 3.09324 20.9056 3.10598 20.8518C3.13868 20.7135 3.14796 20.3906 3.16121 20.2219C3.16415 20.1847 3.20562 20.18 3.19193 20.0862L3.23103 18.2711C3.251 17.6656 3.29791 17.0839 3.28626 16.4786C3.28402 16.3624 3.26796 16.2462 3.27468 16.1298C3.27986 16.0329 3.25689 15.9393 3.27148 15.8424L3.27276 14.9995C3.27116 14.922 3.26405 14.8445 3.26309 14.767L3.25823 13.6947C3.25791 13.6527 3.25177 13.6107 3.25439 13.5687L3.24729 12.8453L3.22534 12.5999C3.2231 12.5643 3.22988 12.5255 3.22111 12.49C3.20626 12.4287 3.18009 12.3673 3.18847 12.3027C3.18879 12.2994 3.18783 12.2962 3.18623 12.293C3.16114 12.2432 3.18828 12.1778 3.15717 12.1219C3.14034 12.0916 3.13554 11.8655 3.13586 11.8377C3.13727 11.6981 3.09113 11.6051 3.0981 11.4921C3.11378 11.2368 3.04402 11.3301 3.02252 11.1271C3.02124 11.1175 3.01932 11.111 3.0167 11.1013C3.84172 11.0621 4.667 10.9945 5.49484 10.9527C5.68089 10.9431 5.8679 10.9334 6.0487 10.914C6.04575 11.2844 6.08581 11.7529 6.16466 12.1284C6.18105 12.2063 6.1749 12.1968 6.16818 12.293C6.16518 12.3361 6.12383 12.3366 6.13785 12.4287L6.09874 14.2438C6.07897 14.8435 6.0327 15.4345 6.04351 16.0363C6.04556 16.1496 6.06213 16.2721 6.05516 16.3851C6.04965 16.482 6.07327 16.5789 6.05778 16.6758L6.05714 17.5188C6.05906 17.5963 6.06553 17.6738 6.06649 17.7513L6.07167 18.8235C6.07167 18.8655 6.07782 18.9075 6.07526 18.9495L6.083 19.6697L6.10431 19.9151C6.10623 19.9539 6.09977 19.9894 6.10853 20.0281C6.12338 20.0895 6.14988 20.1509 6.14182 20.2123C6.14118 20.2155 6.14214 20.2187 6.14373 20.2219C6.16998 20.274 6.14015 20.3273 6.17279 20.3931C6.18879 20.4254 6.19462 20.6512 6.19442 20.6774C6.19334 20.822 6.23865 20.914 6.23186 21.0262C6.22962 21.0681 6.23314 21.1101 6.23481 21.1521L3.10694 21.1715ZM23.2493 8.21713C23.247 7.70961 23.1604 7.27204 22.8113 6.85099C22.6067 6.60427 22.4506 6.50526 22.2035 6.34392C20.9638 5.5347 19.6688 4.73451 18.4122 3.9507L15.8161 2.34232L14.3476 1.44766L13.1348 0.691884C12.4118 0.244076 11.6053 0.220076 10.8834 0.68222L10.0298 1.22481L8.15302 2.43595C6.05164 3.75992 3.92242 5.10462 1.83897 6.45368C1.59967 6.6099 1.36409 6.7596 1.1966 7.03179C1.07558 7.22846 1.0149 7.26603 0.938551 7.54532C0.834039 7.92779 0.854327 8.15281 0.857783 8.53681L0.876855 10.3487C0.884215 10.8271 1.24037 11.1784 1.72754 11.1658C2.03922 11.1497 2.35186 11.1367 2.66348 11.1206C2.68287 11.1206 2.70226 11.1174 2.72229 11.1174C2.66866 11.2031 2.57618 11.5111 2.55756 11.6115C2.52966 11.762 2.49484 11.826 2.4862 11.8763C2.42476 12.234 2.41119 12.5834 2.41061 12.9454C2.41036 13.2626 2.37887 13.6719 2.37733 13.9951L2.40479 15.2417C2.41772 15.5247 2.4318 15.6871 2.43097 15.9813C2.43097 16.0201 2.43871 16.0588 2.43935 16.0976L2.45132 16.75C2.45586 16.8114 2.46361 16.8695 2.46617 16.9276C2.49663 17.6161 2.48236 18.3127 2.51269 19.0172L2.52921 19.3757C2.53778 19.4064 2.51193 19.3965 2.52857 19.4951L2.55314 20.154C2.58418 20.5215 2.67468 20.8251 2.75756 21.1746L1.69631 21.1876C1.15487 21.2 0.748087 21.622 0.750007 22.179L0.752567 23.4225C0.752247 23.6034 0.759991 23.7842 0.760951 23.9619L0.764471 24.7597C0.783095 25.2573 1.20229 25.6543 1.72857 25.6543C3.06809 25.6506 4.403 25.6204 5.74214 25.6188L8.40665 25.6123H10.0082L13.684 25.5833C13.9472 25.5833 14.2104 25.5833 14.4723 25.5768C14.7652 25.5736 15.0594 25.5833 15.3508 25.5671C15.3863 25.5639 15.4273 25.5639 15.4625 25.5671C15.6464 25.5835 15.9645 25.5643 16.1811 25.5639L18.5466 25.5446C19.7837 25.5369 21.0424 25.4827 22.2775 25.4154C22.6647 25.3943 22.9505 25.0905 22.9351 24.7049L22.8614 23.3193C22.8557 23.1967 22.823 22.3882 22.7891 22.4441C22.7743 22.5054 22.7846 22.6088 22.7629 22.6573C22.7022 22.5222 22.7238 22.5071 22.7042 22.6379C22.698 22.5265 22.6885 22.239 22.6657 22.1502C22.5857 22.5105 22.5653 23.2271 22.583 23.6068C22.5882 23.7113 22.5795 24.2406 22.5575 24.3076C22.4847 24.5298 22.6616 24.8636 22.3727 24.9762C22.3196 24.9969 22.2699 24.9949 22.2125 24.9891C21.8934 24.973 21.5698 24.973 21.2491 24.9632C20.9272 24.9536 20.6038 24.9503 20.2809 24.9471C20.0393 24.9428 19.3223 24.9514 19.1638 24.9245C18.93 24.8849 18.6628 24.9106 18.4171 24.9084L16.7031 24.8987L7.90988 24.8438C7.52716 24.8406 7.14348 24.8374 6.76012 24.8374L5.18399 24.818L1.69721 24.8115C1.64921 24.8115 1.59973 24.7703 1.59711 24.7178L1.59551 24.1203C1.60133 23.6713 1.57778 23.2224 1.59327 22.7735L1.60133 22.1147C1.61644 22.0774 1.64838 22.0436 1.68818 22.0436L4.14015 22.0404C4.50092 22.0372 4.86169 22.034 5.22246 22.0308L10.2117 22.0243C10.4074 22.0243 10.6031 22.0178 10.7979 22.0211C11.1809 22.0276 11.5636 22.0308 11.9473 22.0243C12.684 22.0178 13.4214 22.0308 14.1581 22.0146L15.3034 21.992C15.4749 21.9888 15.647 21.9952 15.8185 21.9888C16.105 21.9727 16.3862 21.9469 16.6853 21.9565C16.6995 21.9565 16.716 21.9533 16.7298 21.9533C16.8655 21.9371 17.0092 21.9403 17.1514 21.9403C17.3883 21.9403 17.524 21.9184 17.7459 21.9145C18.4269 21.9022 19.1131 21.9078 19.7913 21.879C20.0132 21.8693 20.2409 21.8628 20.4644 21.866C20.6146 21.8681 21.2142 21.8683 21.3545 21.8466C21.6998 21.7933 22.045 21.7977 22.3941 21.7788C22.5183 21.7721 22.6034 21.9035 22.628 21.9177C22.6961 21.957 22.7343 22.0682 22.7446 22.1502C22.7545 22.075 22.7474 21.893 22.7119 21.824C22.6629 21.7289 22.5434 21.5835 22.4635 21.5495C22.2213 21.4464 21.5039 21.4359 21.2537 21.4074C21.374 21.2133 21.4309 20.8041 21.4759 20.7033C21.5293 20.5839 21.5626 20.0308 21.5689 19.8539L21.5714 19.5471L21.6034 18.5233L21.576 17.2766L21.5498 16.5371C21.5498 16.4983 21.5424 16.4596 21.5418 16.4208L21.5295 15.7652C21.5249 15.7071 21.5172 15.6489 21.5146 15.5875C21.4958 15.1504 21.5055 14.7206 21.4962 14.2892L21.4516 13.1426C21.4429 13.1053 21.4692 13.1228 21.4523 13.0199L21.4277 12.3643C21.4052 12.1042 21.3158 11.6694 21.2423 11.4148C21.2274 11.3632 21.2145 11.3115 21.2029 11.2566C21.2378 11.2598 21.2736 11.263 21.3088 11.263C21.5988 11.2759 21.8895 11.2889 22.1814 11.2985C22.4202 11.3025 22.5962 11.2909 22.8271 11.1306C23.1191 10.9277 23.2235 10.6407 23.2282 10.2941L23.2493 8.21713Z" fill="#282828"/>
</svg>
