<svg width="26" height="28" viewBox="0 0 26 28" fill="none" xmlns="http://www.w3.org/2000/svg">
<path fill-rule="evenodd" clip-rule="evenodd" d="M11.7712 19.4931C11.7898 19.9702 11.7641 20.5506 11.1971 20.6526C10.5645 20.2201 10.8023 18.1162 10.9906 17.3965C11.0167 17.3642 10.9452 17.3135 10.9952 17.3029C11.0629 17.2571 10.9614 17.1928 11.1125 17.1506L11.154 17.1852C11.1706 17.1719 11.1973 17.1869 11.2177 17.1868C11.2405 17.1867 11.2476 17.1296 11.3243 17.2334C11.4931 17.4149 11.6383 17.63 11.6154 17.8797C11.6764 18.4231 11.7054 18.9157 11.7712 19.4931ZM18.808 19.4931C18.811 19.9782 18.8358 20.5185 18.234 20.6526C17.6079 20.3108 17.9006 18.341 17.9345 17.6467C17.9204 17.6167 17.9637 17.615 17.9679 17.6026C17.9849 17.5526 17.987 17.4468 18.0275 17.3965C18.0533 17.3645 17.9825 17.3131 18.0314 17.3029C18.1003 17.2583 17.9973 17.1929 18.1491 17.1506L18.1903 17.1852C18.2199 17.1704 18.2213 17.1869 18.2547 17.1868C18.2769 17.1867 18.2851 17.1298 18.3609 17.2334C18.5319 17.4181 18.6727 17.6263 18.6527 17.8797C18.7174 18.44 18.7395 18.9424 18.808 19.4931ZM15.2896 19.4931C15.3083 19.9696 15.2833 20.5499 14.7156 20.6526C14.6684 20.6211 14.6581 20.6359 14.6566 20.6212C14.6546 20.6007 14.6082 20.609 14.6005 20.5834C14.5839 20.5287 14.5015 20.5447 14.518 20.4645C14.5258 20.4267 14.476 20.4007 14.4778 20.3503C14.4809 20.2634 14.4369 20.2498 14.4356 20.2308C14.4304 20.1987 14.4152 20.1674 14.3845 20.1369C14.2753 19.2179 14.3052 18.1586 14.5136 17.3028C14.5815 17.2561 14.4794 17.1939 14.6303 17.1506L14.6718 17.1851C14.6981 17.1701 14.7045 17.1869 14.7362 17.1867C14.7581 17.1866 14.7668 17.1298 14.8428 17.2333C15.0113 17.4157 15.1569 17.6297 15.1339 17.8797C15.1822 18.4053 15.2349 18.9708 15.2896 19.4931ZM24.7365 15.2002C24.8791 14.8796 24.6478 14.5456 24.3219 14.538C18.1008 14.486 11.8055 14.3957 5.58607 14.2113L5.81883 14.9429C5.96085 15.4461 5.87016 15.2686 5.90792 15.569L5.90696 15.8418C6.60795 17.5924 7.38491 19.4548 8.13998 21.1851C8.48821 22.0309 8.73589 23.2413 9.87042 23.2633C12.2643 23.2594 16.6396 23.2716 19.0642 23.2478C19.7351 23.3271 20.348 22.8974 20.6106 22.2855C21.9951 19.925 23.3407 17.5483 24.7365 15.2002ZM5.58549 14.1358C5.57851 14.1371 5.57026 14.1378 5.56264 14.1387C5.5604 14.1298 5.55759 14.1206 5.55535 14.1118C5.57819 14.1134 5.6004 14.1156 5.61973 14.1191C5.60802 14.125 5.59688 14.1304 5.58549 14.1358ZM5.56834 14.1593C5.56706 14.1558 5.56642 14.1532 5.5661 14.1504L5.65045 14.1564C5.62293 14.1574 5.59592 14.158 5.56834 14.1593ZM8.28917 13.9445L8.32878 13.9712C8.3101 13.9715 8.29071 13.9728 8.27202 13.9734C8.27426 13.962 8.2765 13.9513 8.28917 13.9445ZM8.34722 13.9589C8.3485 13.9557 8.35067 13.9529 8.35259 13.9493C8.35451 13.956 8.35605 13.9627 8.35765 13.97C8.35163 13.97 8.34626 13.9706 8.3405 13.9706C8.34402 13.9677 8.34562 13.9633 8.34722 13.9589ZM8.48392 13.6633C8.72859 10.8854 8.69 7.90595 8.6948 5.10154C8.72527 4.99792 8.8452 4.90717 8.91938 4.916C9.79253 4.90774 10.8252 4.82659 11.6688 4.68957C11.7639 7.73239 11.5647 10.8003 12.0684 13.8298C10.8929 13.8453 9.6397 13.9131 8.4564 13.9655C8.51022 13.8496 8.47951 13.7339 8.48392 13.6633ZM12.4933 7.84579C12.5623 6.05757 12.5562 3.43779 12.549 1.67754C12.5103 1.43741 12.6772 1.2904 12.9224 1.33155C16.6088 1.35811 15.0368 0.664033 15.7031 5.29078C14.3579 5.80496 13.174 6.77008 12.4939 8.04931L12.4933 7.84579ZM16.5303 5.96259C14.2303 6.45456 12.4029 8.6401 12.4574 11.0043C13.2829 10.7338 14.2492 10.748 15.1075 10.7189C15.1285 9.00138 15.672 7.29533 16.7022 5.9217L16.5303 5.96259ZM19.645 6.12055C21.6757 6.8328 22.9582 8.75421 23.1711 10.8809C22.3615 10.5748 21.4721 10.6283 20.6307 10.5882C20.6004 8.93091 20.0261 7.21303 18.9591 5.9185C19.207 5.97175 19.4067 6.03587 19.645 6.12055ZM16.1208 13.7664C15.94 13.1163 15.754 12.1787 15.8243 11.5124C17.1594 11.5956 18.4048 11.5498 19.7856 11.539C19.8176 12.3548 19.6736 12.8624 19.5671 13.7226L16.1208 13.7664ZM16.8233 7.30474C17.0823 6.86813 17.464 6.36285 17.8182 5.98762C18.9633 7.20195 19.6283 8.93162 19.7166 10.5904C18.4379 10.6133 17.1006 10.6971 15.8271 10.6966C15.8951 9.5455 16.2279 8.30026 16.8233 7.30474ZM13.0071 13.8149C13.6649 13.8092 15.1991 13.7732 15.8309 13.7753C15.5106 13.1112 15.1633 12.2465 15.1269 11.4946C14.2341 11.4944 13.286 11.4355 12.427 11.3408C12.3593 12.1972 12.6626 13.0475 13.0071 13.8149ZM12.3344 13.4574L12.3474 13.1983C12.4167 13.3275 12.6293 13.7053 12.7226 13.8199L12.3246 13.826L12.3344 13.4574ZM23.2065 11.5501C23.189 12.2014 22.9119 13.1385 22.7378 13.701L19.9228 13.7197C20.3168 13.0349 20.5555 12.337 20.6136 11.5336C21.4534 11.5545 22.3806 11.4428 23.1927 11.3192C23.1918 11.426 23.2089 11.4234 23.2065 11.5501ZM25.6229 14.8272C25.3783 13.4958 24.1101 13.6957 23.081 13.6997C26.2484 9.29399 20.8559 3.35626 16.0355 5.17578C16.2442 4.25315 16.3424 3.17699 16.3533 2.16982C16.4623 0.929185 16.0424 0.296481 14.7184 0.377633C10.7836 0.154017 11.7153 1.06871 11.6588 4.27287C10.8737 4.00291 9.94446 3.9912 9.09595 3.98077C7.22446 3.90442 7.834 5.96099 7.78485 7.15543C7.92975 9.41187 7.65102 11.7711 8.23586 13.9751C7.73019 13.9972 6.02018 14.0604 5.54709 14.0823C4.50427 11.0486 3.90498 9.74653 0.415953 10.9476C0.422801 10.9645 0.472657 10.9508 0.444177 11.0043C0.442321 11.0078 0.419473 11.0218 0.450833 11.0392C0.419793 11.0496 0.377425 11.0588 0.363281 11.0807C0.476689 11.2435 0.711825 11.1286 0.748305 11.1993C1.33679 11.2537 2.38376 11.3488 2.9956 11.349C4.25775 11.8875 4.3108 14.3565 5.15106 15.3977C5.24111 15.5477 5.4557 16.0762 5.62568 16.1595C6.3044 17.9198 7.30952 23.1902 8.83874 23.9182C7.35067 25.1674 8.54901 28.1677 10.4686 27.523C10.3144 27.4041 10.3979 27.3965 10.2256 27.2705C8.97742 26.618 8.56686 24.8033 10.1039 24.2103C12.2183 23.8168 12.5543 26.4877 10.8592 27.3221C10.7736 27.3809 10.4154 27.4453 10.5916 27.4969C10.5702 27.5541 10.5493 27.5399 10.5909 27.5607C10.5594 27.5699 10.4894 27.5853 10.4685 27.6082C12.2174 28.0197 13.3975 25.5853 12.3244 24.2132L17.3544 24.2059C16.1861 25.5245 17.4958 28.1497 19.2202 27.5229C18.7813 27.0512 18.4227 26.9759 18.0541 26.3589C17.4438 25.3856 18.275 23.9899 19.4455 24.1834C20.3137 24.149 20.8819 25.2729 20.6921 25.9756C20.516 26.5792 20.0171 27.194 19.3963 27.41C19.2039 27.4754 19.3294 27.4728 19.3436 27.4969C19.3224 27.5538 19.3017 27.5402 19.3427 27.5607C19.3113 27.5701 19.2412 27.5852 19.2202 27.6082C21.3093 28.0503 22.2874 24.9039 20.63 23.7317C21.0884 23.386 21.2826 22.9643 21.5589 22.4803C22.2703 21.2389 23.004 19.9848 23.7118 18.7437C24.2227 17.8517 24.7477 16.9376 25.2521 16.0349C25.4731 15.6259 25.6949 15.3992 25.6229 14.8272Z" fill="#282828"/>
</svg>
