<svg width="31" height="24" viewBox="0 0 31 24" fill="none" xmlns="http://www.w3.org/2000/svg">
<path d="M0.327945 6.74655C2.07889 7.47108 3.76945 8.13523 5.5204 8.85976C5.5204 8.92014 5.39964 16.0447 5.39964 15.9843C5.46002 16.7692 5.76191 17.3126 6.12417 17.6145C7.99587 19.4258 12.4034 19.7881 15.06 19.8484C17.7166 19.7881 22.0638 19.4862 23.9959 17.6145C24.8412 16.8899 24.7204 15.8032 24.7204 15.7428C24.66 14.0522 24.5996 9.58429 24.5996 8.92014C25.2034 8.67863 25.8072 8.43712 26.411 8.19561C26.411 9.40316 26.4713 10.6107 26.5317 11.8182C26.6525 13.2673 26.7732 14.7767 26.9544 16.2258C26.7129 16.1654 26.411 16.2258 26.1695 16.3466C25.9279 16.4673 25.7468 16.6484 25.5657 16.8899C25.2034 17.3126 24.9619 17.7956 24.8412 18.339C24.66 18.8824 24.8412 19.6069 25.2034 20.1503C25.5053 20.573 25.9883 20.8749 26.5317 20.9352C26.4713 20.9956 26.4713 21.056 26.4713 21.1164C26.411 21.3579 26.3506 21.5994 26.3506 21.9013C26.3506 22.1428 26.411 22.3843 26.4713 22.6862C26.5921 22.9277 26.7129 23.1692 26.9544 23.4711C27.1959 23.2296 27.3166 22.9881 27.4374 22.6862C27.4978 22.4447 27.5581 22.2032 27.5581 21.9013C27.5581 21.6598 27.4978 21.4182 27.4374 21.1164C27.4374 21.056 27.377 20.9956 27.377 20.9352C27.9204 20.8145 28.4034 20.573 28.7053 20.1503C29.1279 19.6673 29.2487 18.9428 29.0676 18.339C28.9468 17.7956 28.7053 17.3126 28.343 16.8899C28.1619 16.7088 27.9808 16.4673 27.7393 16.3466C27.4978 16.2258 27.1959 16.1654 26.9544 16.2258C27.4374 16.4069 27.6789 16.8296 27.86 17.1918C28.0412 17.6145 28.1619 18.0371 28.1619 18.4598C28.2223 19.2447 27.6185 19.7881 27.0147 19.7881C26.411 19.7881 25.8072 19.2447 25.8676 18.4598C25.8676 18.0371 25.9883 17.6145 26.1695 17.1918C26.3506 16.7692 26.5921 16.3466 27.0751 16.2258C27.4374 13.6899 27.6185 10.3088 27.6789 7.71259C28.4034 7.4107 29.1279 7.10881 29.8525 6.80693C29.9732 6.74655 30.0336 6.68617 30.094 6.56542C30.1544 6.32391 30.0336 6.0824 29.7921 5.96165C24.2978 3.84844 17.8374 1.5541 14.9996 0.648438C16.6298 1.37297 21.6412 3.54655 28.2223 6.26353C27.7996 6.44466 27.377 6.56542 26.9544 6.74655C25.9883 6.6258 24.9619 6.56542 23.9959 6.50504C22.0638 6.32391 18.8034 6.20315 16.5695 6.26353V6.20315C16.5695 6.20315 16.5695 6.26353 16.5091 6.26353C16.0261 6.26353 15.543 6.26353 15.06 6.32391C15.4827 6.44466 15.8449 6.50504 16.2676 6.56542C15.9053 6.86731 15.3619 6.92768 14.9393 6.86731C14.577 6.80693 13.8525 6.56542 13.9129 6.20315C13.8525 5.90127 14.577 5.59938 14.9393 5.539C15.6034 5.47863 16.3279 5.59938 16.5695 6.20315C16.811 5.59938 16.1468 4.7541 14.9393 4.63334C13.6713 4.51259 12.7053 5.29749 12.7053 6.26353C12.7053 7.22957 13.6713 7.9541 14.9393 7.83334C15.6638 7.77297 16.3883 7.35033 16.5695 6.68617C18.8034 7.10882 22.0638 7.53146 23.9355 7.71259C24.1166 7.71259 24.2978 7.71259 24.4789 7.77297C19.4676 9.64466 21.2185 9.04089 15.06 11.3956C12.7657 10.4899 7.63361 8.49749 1.83738 6.38429C7.3921 4.08995 12.7053 1.79561 15.06 0.769192C12.1619 1.5541 5.76191 3.84844 0.327945 5.84089C0.20719 5.90127 0.0864352 5.96165 0.0864352 6.0824C-0.0343196 6.32391 0.0864352 6.6258 0.327945 6.74655ZM23.5732 15.622C23.5732 16.2862 23.3921 16.5277 23.1506 16.7692C21.5808 18.2183 17.294 18.5201 14.9996 18.5805C6.00342 18.5201 6.48644 15.9239 6.42606 15.9239C6.42606 15.8635 6.42606 14.4145 6.42606 14.5352C8.11662 16.4673 12.4638 16.9503 15.06 16.9503C17.6562 16.8899 22.0034 16.4673 23.694 14.5352C23.6336 14.5956 23.5732 15.6824 23.5732 15.622ZM14.7581 12.4824C14.8789 12.5428 15.06 12.5428 15.1808 12.4824C21.2185 10.0673 21.1581 10.1277 23.694 9.10127C23.694 9.16165 23.5732 14.3541 23.5732 13.9918C22.0638 15.5013 17.1129 15.6824 14.9393 15.6824C12.7657 15.6824 7.81474 15.5013 6.3053 13.9918C6.3053 13.9315 6.18455 8.739 6.18455 9.10127C8.90153 10.1881 7.09021 9.46353 14.7581 12.4824Z" fill="black"/>
</svg>
