<svg width="28" height="26" viewBox="0 0 28 26" fill="none" xmlns="http://www.w3.org/2000/svg">
<path fill-rule="evenodd" clip-rule="evenodd" d="M18.3522 7.12519C16.9045 6.0953 14.9717 5.14682 13.3859 4.24065L11.9548 3.46746C11.1695 3.06228 10.0407 3.57601 10.0057 4.69889C9.99478 5.77133 9.9535 7.47271 9.96169 8.54605C9.98588 9.51809 9.97295 10.5723 9.97449 11.5505C9.99055 12.592 11.1126 13.2293 12.0206 12.7478C12.635 12.4088 14.2466 11.5721 14.8368 11.2536C16.1544 10.5533 17.3107 9.86529 18.6103 9.05428C19.2586 8.55546 19.1257 7.40538 18.3131 7.19853C18.8466 7.87981 18.5563 8.63553 17.7206 8.79661C16.1521 9.49722 14.4218 10.4492 12.8762 11.2302C10.3876 12.7788 10.972 11.6464 10.8627 9.52365C10.8571 7.94836 10.805 6.30721 10.816 4.73447C10.7686 4.29741 11.257 3.96026 11.6479 4.16698C13.7087 5.17447 16.6858 6.90753 18.3522 7.12519ZM9.2447 22.3173C14.135 22.7893 19.4915 22.8904 24.3506 22.2337C24.2581 22.1927 24.3043 22.1933 24.2164 22.1356C24.3256 22.1005 24.2127 22.1032 24.1961 22.0785C24.2361 22.0174 24.2445 22.0386 24.2021 22.0158C24.2393 22.0089 24.3251 21.9983 24.3507 21.9752C19.4604 21.503 14.1001 21.4028 9.24476 22.0589C9.33449 22.0975 9.29052 22.0968 9.37897 22.1569C9.26998 22.1919 9.38326 22.1898 9.39926 22.2134C9.36591 22.2726 9.34607 22.2509 9.3933 22.2765C9.35574 22.2838 9.27119 22.2941 9.2447 22.3173ZM4.36835 22.0142C4.46499 21.6548 4.53359 21.2983 4.95017 21.1586C4.97827 21.1507 4.96758 21.0917 5.06563 21.0581C5.1151 21.0412 5.09545 21.0011 5.13711 20.9966C5.17193 20.9929 5.12809 20.9916 5.20207 20.9351C4.71734 20.2359 3.62115 21.0037 3.495 21.7151C2.88041 24.3151 7.02735 24.6531 6.83145 21.9801C6.76227 21.2318 6.01731 20.5741 5.2598 20.8693C5.21244 20.9004 5.30403 20.8869 5.27107 20.947C5.25628 20.9739 5.25942 20.9613 5.2742 20.9819C5.24348 20.993 5.21366 20.9973 5.20207 21.0188C5.23043 21.0733 5.31881 21.1399 5.39247 21.1249C5.39529 21.1243 5.47222 21.1423 5.47491 21.1726C5.47932 21.2225 5.58953 21.1854 5.6319 21.2353C5.66223 21.2711 5.90339 21.4649 5.89193 21.511C6.8351 22.8284 4.3503 23.7368 4.36835 22.0142ZM27.4421 23.308C27.5798 24.4035 26.8922 25.5569 25.7434 25.685C17.9342 25.7282 9.76687 25.9108 1.96451 25.6369C0.271578 25.115 0.556634 23.555 0.63145 22.1509C0.703898 20.7942 0.520986 18.9001 2.48143 19.0926C0.434714 19.4445 1.4159 22.0126 1.24611 23.4766C1.16118 24.983 2.4454 24.9928 3.57148 24.8747C9.76559 24.8054 16.832 24.8325 23.0546 24.8207C24.257 24.678 26.5785 25.4323 26.5522 23.5594C26.5003 23.0026 26.7072 20.5009 26.4309 20.0284C26.12 19.3807 25.3178 19.44 24.7049 19.4519C17.4197 19.3502 9.73436 19.5016 2.4815 19.1766C8.27811 18.44 18.4323 18.7188 25.7216 18.6472C25.4023 12.8444 25.4192 6.98004 25.4076 1.16455C17.8322 1.17159 10.086 1.2233 2.51484 1.13242C2.45571 7.08033 2.55772 13.1282 2.26953 19.053C1.61839 14.7298 1.83023 6.45607 1.7318 0.709126C1.73046 0.508422 1.8918 0.344262 2.09283 0.342342C9.89795 0.344326 18.0754 0.248838 25.862 0.226566C26.1274 0.225606 26.3436 0.43975 26.3443 0.70599C26.2104 6.63732 26.5795 12.807 25.8461 18.6668C28.0247 19.1281 27.2918 21.6995 27.4421 23.308ZM5.5542 15.6733C5.47356 15.9539 5.49724 16.3941 5.56483 16.6687C5.58044 16.679 5.60854 16.6899 5.59977 16.7008C5.59753 16.7043 5.61308 16.697 5.61507 16.7183C5.6159 16.7269 5.65859 16.7347 5.65596 16.7807C5.74819 17.0355 6.18339 16.9064 6.32707 16.785C6.6159 16.4997 6.33238 15.8438 6.30147 15.4828C6.30486 15.4668 6.29308 15.356 6.2431 15.3058C5.90403 15.0239 5.9174 15.1414 5.8326 15.1089C5.79862 15.0872 5.68681 15.1246 5.71868 15.1535C5.71868 15.1535 5.7183 15.1768 5.69123 15.1798C5.64214 15.1852 5.71241 15.2125 5.68719 15.2294C5.63913 15.2617 5.64342 15.337 5.61852 15.3421C5.57513 15.3511 5.60143 15.3586 5.59855 15.3696L5.5542 15.6733ZM8.75491 15.1242C8.3222 17.4414 9.92905 17.4217 9.60681 15.6895C9.50275 15.2741 9.64515 14.3637 9.04803 14.3286C9.01417 14.2701 8.88617 14.3373 8.91945 14.3857C8.89366 14.45 8.86371 14.4005 8.8742 14.4281C8.91286 14.5303 8.89135 14.4205 8.84207 14.5901C8.84201 14.5902 8.83695 14.6438 8.81993 14.6494C8.77526 14.6641 8.80284 14.6719 8.79964 14.6887L8.75491 15.1242ZM12.8434 16.6182C12.9009 16.4497 12.8153 16.3269 12.7913 16.1378C12.7427 16.044 12.7665 15.863 12.7036 15.732C12.6943 15.7276 12.7223 15.7299 12.7042 15.7151C12.6946 15.7073 12.6971 15.6209 12.6449 15.585C12.3147 15.3576 12.2989 15.44 12.2494 15.4295C12.1919 15.3949 12.0885 15.4417 12.1205 15.4595C12.1374 15.4689 12.075 15.4867 12.0756 15.4872C12.118 15.5365 12.0778 15.5027 12.0428 15.5806C12.0427 15.5808 12.0386 15.6119 12.0207 15.6149C11.9775 15.6221 12.0035 15.6298 12.001 15.638C11.9324 16.0327 11.7788 16.5279 12.0837 16.8366C12.2075 17.027 12.8002 16.9218 12.8311 16.6469C12.8446 16.6372 12.8412 16.6278 12.8434 16.6182ZM16.0448 16.4246C16.096 15.9099 15.9986 15.9651 15.9927 15.6536C15.9133 15.2726 15.9977 14.5418 15.4508 14.5178C15.4175 14.4666 15.2885 14.5231 15.3219 14.5711C15.3003 14.6233 15.2678 14.5926 15.2763 14.6101C15.3175 14.6952 15.2815 14.6279 15.2442 14.7606C15.2441 14.7608 15.2392 14.8105 15.222 14.8152C15.103 15.3336 15.0633 16.035 15.168 16.5795C15.1836 16.5935 15.2121 16.6072 15.2033 16.6219C15.2011 16.6266 15.2167 16.6177 15.2179 16.6447C15.2186 16.6577 15.2612 16.6646 15.2592 16.7286C15.2581 16.7629 15.3075 16.7834 15.2997 16.8079C15.282 16.8637 15.3646 16.8542 15.3802 16.8909C15.3879 16.9087 15.4341 16.9037 15.4355 16.9172C15.7212 16.977 16.0411 16.7461 16.0448 16.4246ZM19.1063 13.7742C19.0482 14.6013 19.7385 16.6274 18.6946 16.9397C18.0896 16.6022 18.342 14.183 18.4224 13.5164C18.4494 13.5044 18.4429 13.345 18.4917 13.2748C18.5166 13.2389 18.4472 13.1799 18.4954 13.1692C18.5533 13.1565 18.4807 13.0735 18.5535 13.0287C18.6217 12.9869 18.6128 12.9864 18.6515 13.0371L18.6858 13.0337C18.7557 13.0492 18.7411 12.969 18.8192 13.0908C18.965 13.2741 19.1231 13.5377 19.1063 13.7742ZM21.5679 15.559L21.5107 15.7913C21.4777 15.9198 21.5315 16.0006 21.5161 16.0382C21.5026 16.0709 21.5429 16.3964 21.5345 16.4543C21.5146 16.592 21.5567 16.5732 21.5701 16.6518C21.5857 16.6628 21.6141 16.6743 21.6053 16.6856C21.6019 16.6894 21.6194 16.6833 21.6206 16.704C21.6212 16.7142 21.6635 16.7206 21.6615 16.7711C21.6604 16.7989 21.7091 16.8141 21.7018 16.8342C21.6852 16.8792 21.7661 16.8719 21.782 16.901C22.7882 17.0698 22.3856 15.9655 22.3071 15.3915C22.2965 15.3857 22.326 15.3888 22.3077 15.3697C22.2986 15.176 22.0264 14.9781 21.853 15.0038C21.7909 14.9612 21.7241 15.0163 21.724 15.0163C21.7141 15.0362 21.7365 15.0649 21.6969 15.0697C21.6473 15.0757 21.7186 15.1032 21.6928 15.1219C21.6663 15.1411 21.6419 15.2161 21.6338 15.2364C21.6305 15.2453 21.5875 15.2437 21.6017 15.2614L21.5679 15.559Z" fill="#282828"/>
</svg>
