<svg width="32" height="32" viewBox="0 0 32 32" fill="none" xmlns="http://www.w3.org/2000/svg">
<path d="M31.3625 13.0015C31.2582 10.8919 30.481 10.5564 29.1103 10.5336L25.0405 10.4705C23.9365 8.5554 22.7908 6.56752 21.7014 4.66788C21.9763 4.14473 22.0999 3.56631 22.0369 3.01891C21.7411 0.327517 18.066 -0.520483 16.6483 1.99346C15.5797 3.88776 16.8989 6.09285 19.0565 6.20291C19.7959 7.68994 20.2861 8.69455 21.1419 10.4192C17.6456 10.3644 14.6046 10.3222 10.9329 10.265L12.9421 6.20291C13.7649 6.16073 14.544 5.79321 15.0483 5.1954C15.8303 4.27855 15.9457 3.05188 15.3489 1.99346C14.7331 0.901578 13.5443 0.326063 12.3278 0.525335C11.1123 0.723154 10.0946 1.79515 9.96076 3.01746C9.89725 3.56631 10.0214 4.1457 10.2968 4.66934C9.23785 6.51661 8.17264 8.3634 7.10549 10.2068L4.1164 10.1656C1.72706 10.1215 0.750579 10.7978 0.628882 13.6948C0.529973 15.7268 1.03325 16.8405 3.10791 16.871C3.44682 19.9896 3.79203 23.1086 4.13822 26.2267C4.50719 29.6196 5.39688 30.8225 9.07058 31.1619C13.7644 31.5905 18.4956 31.6293 23.1419 31.2778C26.3346 31.0412 27.2427 30.072 27.7799 26.8463L29.4875 16.6209C31.2199 16.1127 31.458 14.7852 31.3625 13.0015ZM17.0706 2.23152C18.256 0.129699 21.3101 0.845336 21.5554 3.07321C21.5962 3.42812 21.5448 3.80194 21.4095 4.15734C21.3654 4.08024 21.3212 4.00315 21.2762 3.92558L21.248 3.87806C20.9595 3.38691 20.6614 2.87879 20.1925 2.50837C19.2548 1.76655 18.0315 2.00558 17.7494 2.89479C17.6403 3.23806 17.6849 3.63418 17.8715 3.98279C18.2682 4.71928 18.3758 4.87249 18.8025 5.69334C17.1443 5.42958 16.24 3.704 17.0706 2.23152ZM18.2992 3.75394C17.7736 2.77261 18.9149 2.11903 19.8905 2.88946C20.4412 3.32485 20.4771 3.52025 23.7489 9.20025C25.568 12.3566 25.7862 12.6373 25.8885 13.1222C26.1159 14.1719 25.0812 14.7905 23.8667 13.7181C22.8965 12.8759 22.2924 11.6531 21.76 10.5748C21.7581 10.5709 21.7562 10.567 21.7542 10.5636C21.7537 10.5627 21.7528 10.5612 21.7523 10.5598C18.0383 3.096 20.1435 7.18279 18.2992 3.75394ZM20.1067 10.8885L19.7668 11.2284C19.7431 11.2521 19.7314 11.2827 19.7314 11.3137L19.2936 10.8759C19.5646 10.8802 19.8357 10.8841 20.1067 10.8885ZM16.5794 10.8352L16.4791 10.9355L16.3753 10.8318C16.4432 10.8327 16.5111 10.8342 16.5794 10.8352ZM15.1157 10.8129L15.0783 10.8502L15.0395 10.8114C15.0648 10.8124 15.0905 10.8124 15.1157 10.8129ZM12.7603 10.7775C12.9755 10.7809 13.1903 10.7842 13.4056 10.7872L13.4939 10.8754L13.0958 11.2735C13.0905 11.2628 13.0914 11.2497 13.0822 11.241L12.6895 10.8482L12.7603 10.7775ZM10.4417 3.07224C10.5528 2.05697 11.3969 1.16824 12.4054 1.00388C13.4235 0.839517 14.4117 1.31903 14.9261 2.23152C15.3135 2.91806 15.4517 3.97455 14.6783 4.88121C14.3162 5.31031 13.7819 5.59879 13.1981 5.69285C13.5612 4.99079 13.7833 4.62182 14.1266 3.98328C14.8936 2.55297 13.2078 1.39806 11.8042 2.50934C11.3353 2.87976 11.0371 3.38788 10.7486 3.87903L10.5877 4.15782C10.4519 3.80194 10.4005 3.42764 10.4417 3.07224ZM12.1072 2.88946C13.0769 2.1234 14.2231 2.77212 13.697 3.75394C13.4366 4.23879 12.6313 5.59297 10.2391 10.5738V10.5743L10.2386 10.5753C9.70573 11.6541 9.10209 12.8769 8.12997 13.72C7.28779 14.4638 6.58137 14.3639 6.2667 13.9973C5.72561 13.3607 6.44949 12.3236 6.80731 11.703C11.6233 3.36703 11.5103 3.3617 12.1072 2.88946ZM9.87737 12.8599L9.66113 12.6436C9.87155 12.3183 10.0631 11.9833 10.2386 11.6492C10.2425 11.673 10.2478 11.6977 10.2662 11.7161C10.289 11.7389 10.3195 11.7501 10.3496 11.7505L10.6677 12.0686L9.87737 12.8599ZM10.0233 13.3486C9.99228 13.3486 9.96125 13.3602 9.93797 13.384L9.13458 14.1874L8.75737 13.8102C8.75349 13.8063 8.74719 13.8073 8.74282 13.8039C9.03518 13.5091 9.29361 13.1872 9.52488 12.8497L10.0233 13.3486ZM10.3583 11.4165C10.4829 11.1726 10.5799 10.9777 10.6943 10.7459C10.7074 10.7459 10.721 10.7464 10.7341 10.7464L10.8994 10.9118L10.3768 11.4344L10.3583 11.4165ZM7.64125 14.6087L7.27082 14.9792L7.04391 14.7522C7.22864 14.7416 7.33967 14.7353 7.64125 14.6087ZM27.3009 26.7663C26.7879 29.8427 25.9991 30.5787 23.1045 30.7939C18.4863 31.143 13.7789 31.1047 9.11373 30.6785C5.70864 30.3644 4.96585 29.3627 4.61918 26.1733C4.27543 23.0698 3.93119 19.9668 3.59373 16.8633C8.18088 16.7459 27.6994 16.937 28.9755 16.7377L27.3009 26.7663ZM29.2185 16.1981C28.3559 16.3949 3.80852 16.3867 3.32222 16.3867C1.441 16.4129 1.01773 15.6667 1.11276 13.7161C1.22476 11.0432 2.03252 10.6145 4.10815 10.6499L6.82912 10.6878C6.14112 11.8955 5.04779 13.3108 5.89822 14.312C6.09361 14.5389 6.38209 14.6839 6.69967 14.7362C6.73555 14.7949 7.0507 15.1023 7.09967 15.1508L6.97846 15.272C6.93094 15.3195 6.93094 15.3961 6.97846 15.4436C7.02597 15.4912 7.10258 15.4912 7.14961 15.4436L7.80706 14.7867L8.26379 15.2434C8.31131 15.2909 8.38791 15.2909 8.43494 15.2434C8.48246 15.1959 8.48246 15.1193 8.43494 15.0718L7.97822 14.615L8.59834 13.9949L8.96294 14.3595L8.70743 14.615C8.65991 14.6625 8.65991 14.7392 8.70743 14.7862C8.75494 14.8337 8.83155 14.8337 8.87906 14.7862L9.13458 14.5307L9.31688 14.713C9.3644 14.7605 9.441 14.7605 9.48852 14.713C9.53603 14.6655 9.53603 14.5889 9.48852 14.5418L9.30622 14.3595L10.1096 13.5561C10.1334 13.5324 10.145 13.5013 10.145 13.4708L10.1678 13.4941C10.2153 13.5416 10.2919 13.5416 10.3394 13.4941C10.3869 13.4465 10.3869 13.3699 10.3394 13.3224L10.049 13.032L10.8398 12.2412L11.12 12.5215C11.1675 12.569 11.2442 12.569 11.2912 12.5215C11.3387 12.4739 11.3387 12.3973 11.2912 12.3503L11.0109 12.0701L11.4468 11.6342C11.4943 11.5867 11.4943 11.5101 11.4468 11.4625C11.3993 11.415 11.3227 11.415 11.2752 11.4625L10.8393 11.8984L10.5479 11.607L11.0706 11.0844L11.9511 11.9649C11.9986 12.0124 12.0752 12.0124 12.1227 11.9649C12.1702 11.9173 12.1702 11.8407 12.1227 11.7932L11.2422 10.9127C11.2912 10.8633 11.3489 10.8143 11.3789 10.7571C11.6752 10.7619 11.9714 10.7658 12.2677 10.7707L12.3462 10.8492L11.9656 11.2298C11.9181 11.2773 11.9181 11.3539 11.9656 11.4015C12.0131 11.449 12.0897 11.449 12.1372 11.4015L12.5179 11.0209L12.9111 11.4136C12.9198 11.4228 12.9329 11.4213 12.9435 11.4272L12.7515 11.6192C12.704 11.6667 12.704 11.7433 12.7515 11.7908C12.7991 11.8383 12.8757 11.8383 12.9232 11.7908L13.6655 11.0485L14.1683 11.5513C14.2158 11.5988 14.2924 11.5988 14.3394 11.5513C14.3869 11.5038 14.3869 11.4272 14.3394 11.3796L13.8366 10.8769L13.8652 10.8482C13.8798 10.8337 13.8812 10.8138 13.8871 10.7954C14.1712 10.7998 14.4558 10.8041 14.7399 10.8085C14.7414 10.8376 14.7511 10.8672 14.7734 10.8895L14.9072 11.0233L14.4325 11.4979C14.385 11.5455 14.385 11.6221 14.4325 11.6691C14.48 11.7166 14.5566 11.7166 14.6042 11.6691L15.0788 11.1944L15.5671 11.6827C15.6146 11.7302 15.6912 11.7302 15.7387 11.6827C15.7862 11.6352 15.7862 11.5585 15.7387 11.511L15.2505 11.0228L15.2975 10.9758C15.3411 10.9321 15.3402 10.8647 15.3028 10.8172C15.4027 10.8187 16.0859 10.8289 16.1465 10.8298C16.1261 10.8744 16.1256 10.9258 16.1625 10.9627L16.3084 11.1081L16.1625 11.2541C16.1149 11.3016 16.1149 11.3782 16.1625 11.4257C16.21 11.4732 16.2866 11.4732 16.3341 11.4257L16.4795 11.2798L16.8379 11.6381C16.8854 11.6856 16.962 11.6856 17.0095 11.6381C17.057 11.5905 17.057 11.5139 17.0095 11.4669L16.6512 11.1086L16.9179 10.8419C17.1094 10.8449 17.3004 10.8478 17.4919 10.8507L17.1855 11.1571C17.138 11.2046 17.138 11.2812 17.1855 11.3282C17.233 11.3758 17.3096 11.3758 17.3566 11.3282L17.6606 11.0242L18.2963 11.6599C18.3438 11.7074 18.4204 11.7074 18.4679 11.6599C18.5154 11.6124 18.5154 11.5358 18.4679 11.4882L17.8347 10.8555C18.1765 10.8604 18.5179 10.8657 18.8597 10.871L18.5009 11.2298C18.4534 11.2773 18.4534 11.3539 18.5009 11.401C18.5484 11.4485 18.625 11.4485 18.6725 11.401L19.0788 10.9947C19.0827 10.9995 19.0812 11.0068 19.0856 11.0112L19.6238 11.5493C19.6713 11.5969 19.7479 11.5969 19.7954 11.5493C19.8313 11.5135 19.8313 11.4635 19.8124 11.4194C19.8565 11.4364 19.889 11.4509 19.9389 11.401L20.3404 10.9995L20.801 11.4601C20.8485 11.5076 20.9251 11.5076 20.9726 11.4601C21.0202 11.4126 21.0202 11.336 20.9726 11.2885L20.5809 10.8967C20.849 10.9006 21.1166 10.9045 21.3852 10.9089C21.9244 11.9993 22.5421 13.2109 23.5486 14.0841C25.1288 15.481 26.689 14.5249 26.3642 13.0223C26.2565 12.5142 26.0175 12.1646 25.3242 10.9612L29.104 11.0199C30.1785 11.0373 30.7869 11.144 30.8795 13.0281C30.9654 14.648 30.8102 15.8005 29.2185 16.1981Z" fill="#282828"/>
<path d="M19.0528 3.65796C19.0935 4.05553 19.7655 3.91299 19.6564 3.49699C19.5464 3.08341 18.8913 3.29238 19.0528 3.65796Z" fill="#282828"/>
<path d="M12.9446 3.65701C13.1065 3.28949 12.451 3.08537 12.3404 3.49701C12.2294 3.91786 12.9048 4.0478 12.9446 3.65701Z" fill="#282828"/>
<path d="M24.6996 13.2882C24.8 13.2882 24.897 13.2504 24.9678 13.1777C25.0468 13.0962 25.0807 12.9745 25.056 12.8606C25.0322 12.751 24.9581 12.6618 24.8577 12.623C24.8538 12.6216 24.8499 12.6201 24.8461 12.6186C24.815 12.6026 24.7811 12.591 24.7452 12.5857C24.6298 12.5682 24.5144 12.6143 24.447 12.7059C24.4213 12.7408 24.4068 12.7801 24.4019 12.8199C24.3951 12.8383 24.3908 12.8582 24.3884 12.879L24.3762 12.9997C24.3665 13.0953 24.4145 13.1874 24.4979 13.2349C24.5614 13.2703 24.6313 13.2882 24.6996 13.2882Z" fill="#282828"/>
<path d="M7.83318 12.8601C7.7493 12.4727 7.11512 12.513 7.18009 12.8907L7.16361 12.8897C7.10009 13.521 7.93597 13.3334 7.83318 12.8601ZM7.49912 12.8063C7.49767 12.8102 7.45985 12.9067 7.45791 12.9106C7.39585 12.9014 7.41621 12.9038 7.36142 12.9004C7.3813 12.832 7.45112 12.7894 7.49912 12.8063Z" fill="#282828"/>
<path d="M24.8674 18.6439C24.0145 18.6231 22.719 18.5901 22.2919 20.1508C22.2356 20.3574 22.0819 21.282 21.8366 22.7739C21.6524 23.8953 21.4502 25.1205 21.3076 25.8939C21.1156 26.9353 21.47 27.3717 22.5207 27.4241C23.5069 27.473 23.951 27.2956 24.4005 26.2071C25.1845 24.3123 25.7736 22.3288 26.1527 20.3118C26.3801 19.1021 25.918 18.6716 24.8674 18.6439ZM25.4579 19.2282L25.2344 19.4517L25.0773 19.2946C25.1016 19.2485 25.103 19.1933 25.0642 19.1545C25.0521 19.1424 25.0351 19.1424 25.0201 19.1365C25.1854 19.1462 25.3382 19.169 25.4579 19.2282ZM24.9445 19.1331C24.9372 19.1356 24.9304 19.138 24.9236 19.1419L24.9134 19.1317C24.9241 19.1322 24.9343 19.1327 24.9445 19.1331ZM24.5663 19.1268L24.7433 19.3038L24.4519 19.5947L24.0116 19.1545C24.1852 19.1317 24.3724 19.1264 24.5663 19.1268ZM22.7597 20.2788C22.8077 20.1028 22.8965 19.8856 23.0376 19.6907L23.3227 19.9758L22.7365 20.562C22.718 20.5799 22.7132 20.6042 22.7093 20.6279L22.6928 20.6114C22.7229 20.4461 22.7462 20.3283 22.7597 20.2788ZM22.641 20.9024L23.0909 21.3523L22.4582 21.985C22.5256 21.5773 22.5891 21.201 22.641 20.9024ZM22.3151 22.8529C22.3457 22.6672 22.3762 22.4815 22.4068 22.2982L22.816 22.7074L22.3593 23.1642L22.2773 23.0822C22.2899 23.0056 22.3025 22.9285 22.3151 22.8529ZM22.0654 24.3584L22.1765 24.4694L22.0204 24.6255C22.0359 24.5377 22.0504 24.4485 22.0654 24.3584ZM21.8861 25.4124L22.353 25.8793L22.0727 26.1596L21.8943 25.9811C21.8652 25.952 21.8269 25.9472 21.7896 25.9535C21.8191 25.7911 21.8516 25.6083 21.8861 25.4124ZM21.7522 26.1819L21.9016 26.3312L21.7479 26.4849C21.7372 26.3899 21.7382 26.2881 21.7522 26.1819ZM25.6766 20.2226C25.3037 22.2066 24.7239 24.1581 23.9525 26.0219C23.5922 26.8931 23.3464 26.9794 22.5445 26.9397C22.2768 26.9266 21.983 26.8961 21.8414 26.7336L22.0722 26.5028L22.2405 26.6711C22.288 26.7186 22.3646 26.7186 22.4116 26.6711C22.4591 26.6236 22.4591 26.547 22.4116 26.4994L22.2434 26.3312L22.5236 26.051L22.5508 26.0781C22.5983 26.1256 22.6749 26.1256 22.7219 26.0781C22.7694 26.0306 22.7694 25.954 22.7219 25.9065L22.6948 25.8793L22.9774 25.5967C23.025 25.5491 23.025 25.4725 22.9774 25.425C22.8519 25.2994 22.6584 25.5729 22.5236 25.7077L22.0034 25.1879C21.983 25.1676 21.9559 25.1598 21.9292 25.1574C21.936 25.1181 21.9428 25.0788 21.9496 25.0386L22.3471 24.641L22.6279 24.9217C22.6754 24.9693 22.752 24.9693 22.7995 24.9217C22.847 24.8742 22.847 24.7976 22.7995 24.7501L22.5188 24.4694L22.8848 24.1033C22.9324 24.0558 22.9324 23.9792 22.8848 23.9317C22.8373 23.8842 22.7607 23.8842 22.7132 23.9317L22.3471 24.2977L22.1139 24.0645C22.1348 23.9399 22.1556 23.8144 22.1765 23.6883L22.3583 23.5065L22.6705 23.8187C22.7181 23.8662 22.7947 23.8662 22.8422 23.8187C22.8897 23.7712 22.8897 23.6946 22.8422 23.6471L22.5299 23.3348L23.0027 22.8621C23.0444 22.8733 23.072 22.8849 23.118 22.8388C23.15 22.8068 23.1525 22.7642 23.1413 22.7234L23.1748 22.69C23.2223 22.6425 23.2223 22.5659 23.1748 22.5184C23.1273 22.4708 23.0507 22.4708 23.0031 22.5184L22.9862 22.5353L22.6177 22.1668L23.2611 21.5234L23.3498 21.6122C23.3973 21.6597 23.4739 21.6597 23.5214 21.6122C23.569 21.5647 23.569 21.4881 23.5214 21.4405L23.4327 21.3518L23.5127 21.2718C23.5602 21.2243 23.5602 21.1477 23.5127 21.1002C23.4652 21.0527 23.3886 21.0527 23.3411 21.1002L23.2611 21.1802L22.8407 20.7598C22.8645 20.7554 22.8882 20.7506 22.9067 20.7327L23.4928 20.1465L23.8031 20.4568C23.8507 20.5043 23.9273 20.5043 23.9748 20.4568C24.0223 20.4093 24.0223 20.3327 23.9748 20.2851L23.6645 19.9748L23.6766 19.9627C23.7241 19.9152 23.7241 19.8386 23.6766 19.7911C23.6291 19.7436 23.5525 19.7436 23.5054 19.7911L23.4933 19.8032L23.1985 19.5084C23.3285 19.3857 23.4104 19.3082 23.7324 19.2175L24.288 19.7731C24.2608 19.8197 24.2599 19.8774 24.2996 19.9171C24.3496 19.9671 24.3951 19.9569 24.4436 19.9283C24.5479 20.0316 24.7185 19.8929 24.6196 19.7688L24.9144 19.474L25.2034 19.763C25.2509 19.8105 25.3275 19.8105 25.375 19.763C25.4104 19.7276 25.4104 19.6786 25.393 19.635L25.6325 19.3954C25.7595 19.6044 25.7324 19.9234 25.6766 20.2226Z" fill="#282828"/>
<path d="M10.4666 22.7737C10.2212 21.2819 10.0676 20.3573 10.0113 20.1507C9.61567 18.7049 8.51119 18.6191 7.43579 18.6438C6.39482 18.671 5.92113 19.0923 6.15046 20.3117C6.52961 22.3286 7.1187 24.3122 7.9027 26.207C8.34392 27.2756 8.77882 27.4734 9.78295 27.4239C10.8346 27.3716 11.188 26.9342 10.996 25.8937C10.853 25.1209 10.6508 23.8952 10.4666 22.7737ZM8.91943 19.3677L8.89761 19.3895L8.82149 19.3134C8.85495 19.3303 8.88792 19.3483 8.91943 19.3677ZM7.75482 19.1238C7.92937 19.1238 8.09325 19.1345 8.25082 19.1539L7.97979 19.4249L7.68016 19.1253C7.70489 19.1248 7.73058 19.1238 7.75482 19.1238ZM7.24282 19.1383L6.81519 19.566L6.66101 19.4118C6.7827 19.1941 6.99216 19.1563 7.24282 19.1383ZM6.58246 19.676L6.64355 19.7371L6.57955 19.8011C6.57907 19.7585 6.57955 19.7168 6.58246 19.676ZM6.62658 20.2225C6.61979 20.1866 6.61592 20.1502 6.6101 20.1143L6.81567 19.9088L7.43822 20.5313L7.11531 20.8537L6.66537 20.4038C6.65373 20.3437 6.63773 20.2836 6.62658 20.2225ZM6.83022 21.1713C6.80598 21.0613 6.78222 20.9512 6.75943 20.8411L6.94416 21.0254L6.85349 21.116C6.83798 21.1316 6.83555 21.1519 6.83022 21.1713ZM7.12258 22.364C7.1187 22.35 7.11482 22.3364 7.11143 22.3223L7.1381 22.349L7.12258 22.364ZM7.36404 23.2436C7.30295 23.0409 7.25107 22.8353 7.19482 22.6312C7.19676 22.6297 7.19919 22.6302 7.20113 22.6283L7.30973 22.5202L7.68549 22.8959L7.38295 23.1985C7.37034 23.2111 7.36986 23.228 7.36404 23.2436ZM7.66949 24.1822C7.6467 24.1148 7.62537 24.0465 7.60355 23.9791L7.73834 24.1139L7.66949 24.1822ZM9.7587 26.9396C8.95676 26.9822 8.70901 26.8896 8.3507 26.0217C8.29252 25.8811 8.24307 25.7371 8.18731 25.5956L8.20961 25.5733L8.45931 25.823C8.50682 25.8705 8.58343 25.8705 8.63046 25.823C8.67798 25.7754 8.67798 25.6988 8.63046 25.6513L8.38076 25.4016L8.81131 24.9711C8.85882 24.9236 8.85882 24.847 8.81131 24.7994C8.76379 24.7519 8.68719 24.7519 8.63967 24.7994L8.20913 25.23L7.94537 24.9662C7.87798 24.783 7.80961 24.6006 7.74561 24.4159C7.76501 24.4106 7.78537 24.4082 7.80089 24.3931L7.90949 24.2845L7.98319 24.3582C8.0307 24.4057 8.10731 24.4057 8.15482 24.3582C8.20234 24.3107 8.20234 24.2341 8.15482 24.1866L8.08113 24.1129L8.7221 23.4719C8.76961 23.4244 8.76961 23.3478 8.7221 23.3003C8.67458 23.2528 8.59798 23.2528 8.55046 23.3003L7.90949 23.9413L7.43773 23.4695C7.42852 23.4394 7.41786 23.4099 7.40864 23.3798C7.42755 23.3914 7.44695 23.4045 7.46828 23.4045C7.49931 23.4045 7.53034 23.3929 7.5541 23.3691L8.5941 22.3291C8.64161 22.2816 8.64161 22.205 8.5941 22.1575C8.54658 22.11 8.46998 22.11 8.42246 22.1575L7.85664 22.7233L7.48089 22.3476L8.31531 21.5131C8.36282 21.4656 8.36282 21.389 8.31531 21.3415C8.26779 21.294 8.19119 21.294 8.14367 21.3415L7.30925 22.1759L6.98489 21.8516C6.93834 21.6639 6.8981 21.4753 6.85543 21.2867C6.90586 21.3352 6.97907 21.3308 7.02416 21.2857L7.11482 21.1951L7.58464 21.6649C7.63216 21.7124 7.70876 21.7124 7.75628 21.6649C7.80379 21.6174 7.80379 21.5408 7.75628 21.4933L7.28646 21.0234L7.97301 20.3369C8.02052 20.2894 8.02052 20.2128 7.97301 20.1653C7.92549 20.1177 7.84889 20.1177 7.80137 20.1653L7.60889 20.3577L6.98634 19.7352L7.46779 19.2537L7.80816 19.5941L7.73495 19.6673C7.68743 19.7148 7.68743 19.7914 7.73495 19.839C7.78246 19.8865 7.85907 19.8865 7.90658 19.839L7.97979 19.7657L8.26682 20.0528C8.31434 20.1003 8.39095 20.1003 8.43798 20.0528C8.48549 20.0053 8.48549 19.9287 8.43798 19.8811L8.15095 19.5941L8.45592 19.2891L8.72598 19.5592L8.68816 19.597C8.64064 19.6445 8.64064 19.7211 8.68816 19.7686C8.73567 19.8162 8.81228 19.8162 8.85979 19.7686L8.89761 19.7308L9.09979 19.933C9.14731 19.9805 9.22392 19.9805 9.27143 19.933C9.31895 19.8855 9.31895 19.8089 9.27143 19.7614L9.06925 19.5592L9.1124 19.516C9.34949 19.7439 9.47992 20.0455 9.54343 20.2773C9.59579 20.4697 9.79507 21.6804 9.98804 22.8508C10.1732 23.9752 10.3754 25.2043 10.5189 25.98C10.6552 26.7199 10.5156 26.9022 9.7587 26.9396Z" fill="#282828"/>
<path d="M19.3725 18.6333C17.3241 18.5038 16.8887 19.6078 16.9919 21.5123C17.0681 23.0003 16.9085 23.9201 16.8227 25.3824C16.6453 28.3705 18.8266 28.2401 19.6402 27.0236C20.1561 26.2522 20.1163 25.7271 20.6986 20.2755C20.8125 19.2151 20.5018 18.7026 19.3725 18.6333ZM19.0118 19.1245C19.0171 19.1196 19.0152 19.1118 19.0196 19.106H19.022C19.0724 19.106 19.1214 19.1094 19.1718 19.1114L19.3294 19.2689L19.0608 19.5375L18.83 19.3068L19.0118 19.1245ZM18.6627 19.1303L18.6584 19.1346L18.655 19.1312C18.6574 19.1312 18.6603 19.1308 18.6627 19.1303ZM18.3733 19.1923L18.4872 19.3063L18.0557 19.7378L17.8399 19.522C18.0106 19.3373 18.1662 19.2563 18.3733 19.1923ZM17.6925 19.7179L17.8841 19.9094L17.8438 19.9497C17.7963 19.9972 17.7963 20.0738 17.8438 20.1213C17.8913 20.1688 17.9679 20.1688 18.0154 20.1213L18.0557 20.0811L18.3243 20.3497L17.6038 21.0706L17.4554 20.9223C17.4496 20.4767 17.4913 20.0525 17.6925 19.7179ZM17.6028 21.4129L18.0848 21.8949L17.6407 22.3395L17.5379 22.2367C17.5262 22.2251 17.5102 22.2255 17.4962 22.2197C17.4957 21.8294 17.4928 21.8158 17.4787 21.5375L17.6028 21.4129ZM17.4855 22.7914C17.5131 22.7894 17.5413 22.7807 17.5626 22.7594L17.6402 22.6818L18.0596 23.1007L17.5398 23.6205L17.4467 23.5274C17.4637 23.283 17.4768 23.0377 17.4855 22.7914ZM17.4065 24.0791C17.4167 24.0738 17.4288 24.0748 17.4375 24.0665L17.5403 23.9637L17.9592 24.3826L17.4016 24.9402L17.3454 24.884C17.3822 24.3991 17.3536 24.74 17.4065 24.0791ZM17.327 26.3972C17.3192 26.354 17.311 26.3114 17.3056 26.2677L17.3813 26.3434L17.327 26.3972ZM20.2167 20.2241C19.6305 25.7068 19.6693 26.1072 19.2373 26.754C18.8067 27.3969 17.774 27.7097 17.3987 26.6682L17.5529 26.514L17.6615 26.6226C17.709 26.6701 17.7856 26.6701 17.8331 26.6226C17.8807 26.5751 17.8807 26.4985 17.8331 26.451L17.7245 26.3424L18.0407 26.0263C18.0882 25.9788 18.0882 25.9021 18.0407 25.8546C17.9931 25.8071 17.9165 25.8071 17.869 25.8546L17.5529 26.1708L17.2882 25.906C17.2887 25.7407 17.2974 25.5744 17.3071 25.41C17.3076 25.3984 17.309 25.3863 17.3095 25.3746L17.4021 25.282L17.7842 25.6636C17.8317 25.7111 17.9083 25.7111 17.9558 25.6636C18.0033 25.6161 18.0033 25.5395 17.9558 25.492L17.5738 25.1104L18.1347 24.5494C18.1934 24.596 18.253 24.5848 18.2938 24.5441C18.3379 24.5005 18.3364 24.4326 18.2991 24.3851L18.5449 24.1392C18.5924 24.0917 18.5924 24.0151 18.5449 23.9676C18.4974 23.9201 18.4208 23.9201 18.3733 23.9676L18.1313 24.2095L17.7124 23.7906L18.2584 23.2442C18.2889 23.2437 18.319 23.2326 18.3422 23.2093C18.3655 23.186 18.3767 23.1555 18.3771 23.1254L18.8261 22.6765C18.8736 22.6289 18.8736 22.5523 18.8261 22.5048C18.7786 22.4573 18.702 22.4573 18.655 22.5048L18.2322 22.9276L17.8128 22.5087L18.8707 21.4508C18.9182 21.4032 18.9182 21.3266 18.8707 21.2791C18.8232 21.2316 18.7466 21.2316 18.6991 21.2791L18.2569 21.7213L17.775 21.2394L18.4954 20.5184L18.6264 20.6493C18.6739 20.6968 18.7505 20.6968 18.798 20.6493C18.8455 20.6018 18.8455 20.5252 18.798 20.4777L18.6671 20.3468L18.6695 20.3443C18.717 20.2968 18.717 20.2202 18.6695 20.1732C18.622 20.1257 18.5454 20.1257 18.4984 20.1732L18.4959 20.1756L18.2273 19.9075L18.6588 19.476L18.9042 19.7213C18.8906 19.7635 18.8916 19.8091 18.925 19.8425C18.975 19.8925 19.0041 19.8769 19.0462 19.8634L19.2731 20.0903C19.3207 20.1378 19.3973 20.1378 19.4448 20.0903C19.4923 20.0428 19.4923 19.9661 19.4448 19.9186L19.2324 19.7063L19.501 19.4377L19.7565 19.6932C19.8041 19.7407 19.8807 19.7407 19.9282 19.6932C19.9757 19.6457 19.9757 19.5691 19.9282 19.522L19.6683 19.2621C19.6921 19.2306 19.6954 19.1948 19.6848 19.1584C20.2215 19.2704 20.287 19.5671 20.2167 20.2241Z" fill="#282828"/>
<path d="M15.1541 21.5118C15.2021 20.6211 15.2618 19.5123 14.3318 18.9149C13.8586 18.6114 13.2797 18.6017 12.7735 18.6332C11.6501 18.7026 11.334 19.2097 11.4475 20.2754L11.959 25.0599C12.0239 25.6674 12.1049 26.4233 12.5064 27.0235C12.9175 27.6388 13.7723 28.0606 14.4918 27.698C15.3456 27.2664 15.3742 26.2473 15.3238 25.3828C15.2385 23.9389 15.0785 22.9978 15.1541 21.5118ZM12.8031 19.1176C12.9073 19.1113 13.0155 19.1064 13.1241 19.1064C13.1624 19.1064 13.2007 19.1094 13.239 19.1108L13.6065 19.4783L13.3679 19.7169L13.0106 19.3595C13.0315 19.3149 13.0324 19.2626 12.9951 19.2252C12.9582 19.1884 12.9059 19.1889 12.8608 19.2097L12.7711 19.12C12.7822 19.1195 12.7929 19.1181 12.8031 19.1176ZM12.4685 19.1603L12.679 19.3707L12.3648 19.6849L12.0453 19.3654C12.1422 19.2514 12.2979 19.1942 12.4685 19.1603ZM11.9376 19.6005L12.1931 19.856L11.9444 20.1047C11.9304 20.1188 11.9289 20.1382 11.9231 20.1557C11.9042 19.9583 11.8988 19.7649 11.9376 19.6005ZM11.9468 20.3884L11.9313 20.2439C11.9367 20.2546 11.9357 20.2672 11.9444 20.2759C11.9919 20.3234 12.0685 20.3234 12.1156 20.2759L12.3643 20.0272L12.7105 20.3734L12.3207 20.7632L11.9468 20.3884ZM11.9881 20.7724L12.1505 20.9348L12.0196 21.0657L11.9881 20.7724ZM12.0521 21.3755L12.3211 21.1064L12.6155 21.4007C12.6392 21.4245 12.6702 21.4361 12.7013 21.4361C12.7308 21.4361 12.7595 21.4235 12.7827 21.4027L12.4079 21.7775L12.0579 21.4274L12.0521 21.3755ZM12.0991 21.8114L12.2368 21.9491L12.1258 22.0601L12.0991 21.8114ZM12.1587 22.3695L12.4079 22.1203L12.7265 22.4388C12.7415 22.4538 12.7619 22.4563 12.7813 22.4616L12.3755 22.8674L12.1922 22.6841L12.1587 22.3695ZM12.5898 25.97L12.9592 26.3394L12.7856 26.513C12.7027 26.3409 12.6353 26.16 12.5898 25.97ZM14.2727 27.2655C13.8014 27.503 13.1978 27.186 12.9088 26.7544C12.9059 26.7501 12.9044 26.7443 12.9015 26.7399L13.1304 26.511L13.3733 26.754C13.4208 26.8015 13.4974 26.8015 13.5449 26.754C13.5924 26.7064 13.5924 26.6298 13.5449 26.5823L13.302 26.3394L13.7238 25.9176C13.7713 25.8701 13.7713 25.7935 13.7238 25.746C13.6763 25.6984 13.5997 25.6984 13.5522 25.746L13.1304 26.1678L12.6867 25.7241L13.3422 25.0686C13.3898 25.0211 13.3898 24.9445 13.3422 24.897C13.2947 24.8495 13.2181 24.8495 13.1706 24.897L12.5151 25.5525L12.5078 25.5452C12.4807 25.3634 12.4584 25.1826 12.4399 25.008L12.4031 24.6614L12.7774 25.0357C12.8249 25.0832 12.9015 25.0832 12.949 25.0357C12.9965 24.9881 12.9965 24.9115 12.949 24.864L12.5466 24.4616L13.2346 23.7736C13.2821 23.7261 13.2821 23.6495 13.2346 23.602C13.1871 23.5544 13.1105 23.5544 13.063 23.602L12.375 24.29L12.3619 24.2769L12.2601 23.3232L12.375 23.2083L12.727 23.5603C12.7745 23.6078 12.8511 23.6078 12.8986 23.5603C12.9461 23.5127 12.9461 23.4361 12.8986 23.3886L12.5466 23.0366L13.0329 22.5498C13.0804 22.5023 13.0804 22.4257 13.0329 22.3782C13.0048 22.3506 12.9684 22.3443 12.9321 22.3491C12.9316 22.3186 12.9204 22.2885 12.8972 22.2652L12.5786 21.9467L13.1638 21.3615C13.2113 21.314 13.2113 21.2374 13.1638 21.1898C13.1163 21.1423 13.0397 21.1423 12.9922 21.1898L12.7881 21.394C12.8317 21.3464 12.8322 21.2732 12.7861 21.2272L12.4918 20.9329L12.9272 20.4975C12.9408 20.4839 12.9413 20.466 12.9471 20.449C12.9495 20.447 12.9534 20.448 12.9553 20.4456C13.0028 20.3981 13.0028 20.3215 12.9553 20.274L12.535 19.8536L12.8491 19.5394L13.1958 19.8861L13.1304 19.9515C13.0828 19.999 13.0828 20.0757 13.1304 20.1227C13.1779 20.1702 13.2545 20.1702 13.3015 20.1227L13.367 20.0572L13.4538 20.144C13.5013 20.1915 13.5779 20.1915 13.6254 20.144C13.6729 20.0965 13.6729 20.0199 13.6254 19.9724L13.5386 19.8856L13.7771 19.647L14.037 19.9069C14.0845 19.9544 14.1612 19.9544 14.2087 19.9069C14.2562 19.8594 14.2562 19.7828 14.2087 19.7353L13.9279 19.4546C13.9323 19.4187 13.9255 19.3823 13.8984 19.3552C13.8707 19.3275 13.8348 19.3207 13.799 19.3256L13.621 19.1477C14.8656 19.3993 14.7085 20.736 14.6572 21.7387C14.6038 22.9581 14.7682 24.207 14.8395 25.409C14.8676 25.8963 14.9553 26.9203 14.2727 27.2655Z" fill="#282828"/>
</svg>
