<svg width="28" height="26" viewBox="0 0 28 26" fill="none" xmlns="http://www.w3.org/2000/svg">
<path fill-rule="evenodd" clip-rule="evenodd" d="M20.2328 5.06227L20.2362 6.38816C20.2362 6.49779 20.243 6.60877 20.2396 6.71808C20.2362 6.93466 20.2328 7.15053 20.2362 7.3671C20.243 7.78221 20.2294 8.19859 20.2498 8.6137L20.2702 9.25926C20.2736 9.35629 20.2668 9.4537 20.277 9.55008C20.2906 9.71181 20.3178 9.87053 20.311 10.039V10.0639C20.3281 10.1409 20.3247 10.2223 20.3247 10.302C20.3247 10.477 20.3497 10.5016 20.3553 10.6374C20.372 11.0426 20.3549 11.3672 20.3928 11.791C20.413 12.0173 20.3961 12.5498 20.4234 12.6729C20.4986 12.9913 20.4653 13.0698 20.4983 13.2402C20.1826 13.1666 19.8661 13.3012 19.705 13.5729C19.4659 13.9844 18.6004 14.5739 19.1057 15.1637C18.9852 15.2164 18.9949 15.126 18.6971 15.3816L18.6086 15.4732L18.2919 15.7657L17.9582 16.1678L17.6722 16.5325L17.5768 16.6483L17.4236 16.8573C17.3825 16.9075 16.8794 17.4799 16.8754 17.5278C16.8746 17.5431 16.8556 17.521 16.8413 17.5642C16.8218 17.6236 16.6648 17.7071 16.5928 17.9871L16.5655 18.106C16.3365 17.9057 16.0787 17.8063 15.7688 17.9143C15.1749 18.1212 15.1756 18.3374 15.0868 18.4767C15.028 18.569 14.93 18.6275 14.5946 18.6275C14.5825 18.6177 14.577 18.6466 14.577 18.631C14.5702 18.63 14.5634 18.6246 14.56 18.6246C13.9222 18.5545 13.7819 18.5416 13.1163 18.566C13.1358 17.9641 13.1595 17.3847 13.0686 16.7842C13.0132 16.4185 12.8522 15.8541 12.7111 15.4787C12.5928 15.1641 12.3372 14.6698 12.1561 14.3881C11.8682 13.9403 11.5761 13.5998 11.2061 13.2365C11.1142 13.146 11.0154 13.0646 10.9201 12.9805C10.9201 12.8409 10.9379 12.7462 10.9235 12.5736C10.9194 12.5489 10.9215 12.225 10.9507 12.1772C10.9935 12.1073 10.9341 11.6236 10.9541 11.426C10.9816 11.1558 10.9887 10.6273 10.9984 10.3364C11.0022 10.2232 11.0029 9.76691 11.0222 9.7065C11.0634 9.57779 11.0372 9.43168 11.0426 9.28531L11.0494 8.31827L11.0801 5.06138C11.0888 5.03405 11.0796 4.78144 11.3218 4.63437C11.4912 4.53152 11.6341 4.55309 11.8291 4.55571C12.6934 4.56717 13.5786 4.59373 14.4374 4.59283L15.2376 4.5911C15.5402 4.58976 15.8478 4.57178 16.1535 4.57882C16.4055 4.58426 16.6575 4.55974 16.9128 4.57606C17.0627 4.58528 17.2159 4.57779 17.3691 4.57779L19.1227 4.57677C19.327 4.57338 19.5313 4.56998 19.7356 4.56691C20.0096 4.56742 20.2317 4.7929 20.2328 5.06227ZM15.9697 7.18221C16.0639 7.58733 16.4317 7.8375 16.8448 7.81248C17.0472 7.80026 17.2246 7.77069 17.4134 7.77126C17.4339 7.77126 17.4509 7.76346 17.4713 7.76243C17.8045 7.74125 17.7048 7.76134 17.9889 7.61466C18.0403 7.58816 18.1174 7.48301 18.1489 7.43757C18.3135 7.20026 18.2884 7.016 18.2851 6.74125C18.2833 6.59085 18.2829 6.4304 18.2613 6.2809C18.247 6.18208 18.2652 6.10906 18.2034 5.97613C18.1796 5.9223 18.1592 5.8624 18.1115 5.82362C18.0835 5.80237 18.1192 5.79674 18.04 5.73645C17.8626 5.60147 17.7979 5.55597 17.5361 5.55597C17.4806 5.55597 17.406 5.57933 17.3261 5.61254V5.49011H16.5151V5.73414C16.4818 5.73734 16.4434 5.74438 16.3988 5.75584C16.2847 5.78515 16.2017 5.89126 16.1162 5.98093C16.0069 6.09562 15.9766 6.52122 15.9766 6.6599C15.9662 6.82957 15.9255 6.9799 15.9697 7.18221ZM16.8584 6.6112L16.8721 6.88902L17.342 6.88563C17.3862 6.89926 17.4271 6.88224 17.4679 6.88186L17.5122 6.22912C17.5054 6.22534 17.4986 6.21958 17.4918 6.2087C17.4836 6.1945 17.4074 6.18944 17.3261 6.17894H16.7345L16.7801 6.28941C16.7801 6.33523 16.7981 6.33325 16.7971 6.33946C16.7869 6.37146 16.8141 6.40211 16.8312 6.43277C16.8414 6.45114 16.8346 6.46957 16.8346 6.48826L16.8584 6.6112ZM16.8652 6.9728C16.8652 6.98912 16.8652 6.97792 16.8686 6.97792V6.95955C16.8652 6.96365 16.8652 6.96806 16.8652 6.9728ZM17.4679 6.90266C17.468 6.90259 17.468 6.90246 17.468 6.90234L17.4679 6.90266ZM17.5326 6.88358L17.5156 6.87539C17.5088 6.87642 17.502 6.87981 17.4986 6.88288C17.5088 6.88358 17.519 6.88397 17.5326 6.88358ZM17.5261 6.23315L17.5224 6.2329C17.5235 6.23302 17.5248 6.23309 17.5261 6.23315ZM17.5496 6.23462C17.5496 6.23462 17.5496 6.23091 17.5496 6.22918C17.5496 6.22982 17.5462 6.23021 17.5462 6.23085C17.5405 6.23258 17.5325 6.23328 17.5261 6.23315L17.5496 6.23462ZM17.4611 6.98202L17.4679 6.90266C17.4678 6.90298 17.4673 6.90304 17.4645 6.90336L17.4611 6.98202ZM14.8495 7.69946C15.0093 7.61658 15.0547 7.58848 15.1593 7.43763C15.2892 7.2503 15.3039 7.09466 15.2989 6.88467C15.2925 6.61197 15.3211 6.00947 15.1218 5.82368C15.07 5.76845 15.1627 5.83046 15.0094 5.70278C14.8589 5.57747 14.6277 5.51994 14.439 5.57536V5.49018H13.4051V5.75763C13.3526 5.77562 13.3039 5.80269 13.266 5.83757C13.2337 5.86739 13.1113 5.98912 13.0924 6.03302C12.9917 6.26682 12.99 6.58662 12.9732 6.85395C12.9671 6.96506 12.9412 7.02931 12.9835 7.18221C13.0599 7.57638 13.4431 7.83744 13.8552 7.81248C14.0561 7.80032 14.2374 7.77069 14.4238 7.77126C14.4442 7.77126 14.4612 7.76346 14.4817 7.76243C14.5786 7.75629 14.7206 7.76627 14.8495 7.69946ZM14.5226 6.22918C14.5158 6.22541 14.509 6.21965 14.5022 6.20877C14.4874 6.18298 14.2778 6.1895 14.1754 6.14035C14.1222 6.11482 14.0479 6.18573 14.0323 6.13658C14.0301 6.12941 14.0235 6.1241 14.0151 6.12026H13.7455C13.75 6.13843 13.7535 6.15386 13.7395 6.1577L13.7736 6.24928C13.814 6.28717 13.7788 6.31571 13.8042 6.33472C13.8076 6.33645 13.8076 6.33811 13.8076 6.33946C13.7974 6.37146 13.828 6.40211 13.8417 6.43277L13.8484 6.51245C13.8824 6.6064 13.8825 6.78842 13.8825 6.88902L14.3558 6.88563C14.3966 6.89926 14.4375 6.88224 14.4817 6.88186L14.5226 6.22918ZM14.4782 6.90349C14.4562 6.93504 14.4681 6.96576 14.4681 6.97658C14.4715 6.97894 14.4715 6.98035 14.4715 6.98202L14.4782 6.90349ZM14.5635 6.88192L14.5294 6.87546C14.5226 6.87648 14.5158 6.87987 14.509 6.88294L14.5635 6.88192ZM14.5635 6.22918L14.5362 6.2329C14.543 6.2336 14.5498 6.2329 14.5566 6.23085C14.5567 6.23021 14.5601 6.22982 14.5635 6.22918ZM15.2683 9.21568C15.2584 9.14259 15.2689 9.06963 15.2172 8.96474C15.19 8.91027 15.1695 8.85101 15.1219 8.81222C15.0877 8.77587 15.1268 8.78029 15.0504 8.72538C14.9907 8.68256 14.9744 8.65203 14.8767 8.60621C14.6422 8.496 14.4546 8.54342 14.2639 8.63238H13.3164V8.78848C13.2982 8.79987 13.2813 8.81261 13.2662 8.8265C13.2337 8.85645 13.1115 8.97766 13.0925 9.02195C12.9821 9.27955 12.9871 9.65984 12.987 9.66035C12.9683 9.68998 12.9761 9.81613 12.9734 9.8425C12.9615 9.95482 12.9471 10.0371 12.9836 10.1711C13.0604 10.5653 13.4414 10.8252 13.8553 10.801C14.0584 10.7892 14.2331 10.7595 14.4239 10.7595C14.4444 10.7595 14.4614 10.752 14.4818 10.751C14.5799 10.7448 14.7188 10.7549 14.8495 10.688C15.0071 10.6073 15.057 10.574 15.1594 10.4262C15.2893 10.2387 15.3039 10.0831 15.2989 9.87322C15.2938 9.65395 15.2978 9.43341 15.2683 9.21568ZM14.0157 9.10893H13.7455C13.75 9.12691 13.7536 9.14202 13.7395 9.14624C13.7206 9.15187 13.7572 9.18906 13.7531 9.19322L13.7735 9.23712C13.8108 9.27046 13.7814 9.30912 13.8042 9.32358C13.8076 9.32461 13.8076 9.32666 13.8076 9.32768C13.7973 9.36 13.828 9.39034 13.8416 9.42131L13.8484 9.50067C13.8819 9.58835 13.8824 9.78131 13.8824 9.87763L14.3557 9.87392C14.3965 9.88787 14.4374 9.87117 14.4817 9.87014L14.5226 9.21773C14.5158 9.21402 14.5089 9.20819 14.5021 9.19693C14.4869 9.17146 14.2802 9.1783 14.1753 9.12883C14.1206 9.1031 14.0483 9.17504 14.0323 9.12474C14.0301 9.11789 14.0237 9.1127 14.0157 9.10893ZM14.509 9.87117L14.5635 9.87014L14.5294 9.86368C14.5226 9.86534 14.5158 9.86778 14.509 9.87117ZM14.4782 9.89242C14.4563 9.9232 14.4682 9.95456 14.4682 9.96544C14.4716 9.96678 14.4716 9.96915 14.4716 9.97056L14.4782 9.89242ZM14.5403 9.22157L14.5362 9.22118C14.5376 9.22131 14.5389 9.22144 14.5403 9.22157ZM14.5635 9.21773C14.5601 9.21843 14.5567 9.21907 14.5567 9.21946C14.5512 9.22106 14.5458 9.22182 14.5404 9.22157L14.5533 9.22285C14.5533 9.22214 14.5567 9.22458 14.5601 9.22317C14.5601 9.22285 14.5635 9.21907 14.5635 9.21773ZM16.7801 9.27763C16.7801 9.32339 16.7979 9.32256 16.7971 9.32768C16.7869 9.36 16.8141 9.39034 16.8312 9.42131C16.8414 9.43968 16.8346 9.45811 16.8346 9.4768L16.8584 9.59974L16.8721 9.87757L17.342 9.87386C17.3862 9.88781 17.4271 9.8711 17.4679 9.87008L17.5122 9.21766C17.5054 9.21395 17.4986 9.20813 17.4918 9.19687C17.4868 9.18848 17.4578 9.18336 17.418 9.17837H16.734C16.7393 9.18573 16.7446 9.19123 16.7427 9.19309L16.7801 9.27763ZM17.418 8.56736V8.5273H16.515V8.72288C16.4817 8.72602 16.4433 8.73299 16.3988 8.74445C16.2855 8.77357 16.2008 8.88077 16.1162 8.96986C16.0066 9.08512 15.9766 9.50957 15.9766 9.64883L15.9629 9.76019C15.9551 9.9129 15.9354 10.0129 15.9698 10.1712C16.0644 10.5765 16.43 10.8253 16.8449 10.8012C17.0493 10.7892 17.2202 10.7596 17.4135 10.7596C17.4339 10.7596 17.4509 10.7521 17.4714 10.7511C17.7904 10.7308 17.7054 10.752 17.9889 10.6036C18.0405 10.5766 18.1174 10.4718 18.149 10.4262C18.3136 10.1887 18.2884 10.0048 18.2852 9.72992C18.2834 9.58099 18.2829 9.41766 18.2614 9.26925C18.247 9.17018 18.2655 9.09914 18.2035 8.96486C18.1796 8.9104 18.1592 8.85114 18.1116 8.81235C18.0832 8.79098 18.1203 8.78707 18.0401 8.7255C17.8728 8.59738 17.7884 8.5385 17.5361 8.5447C17.5014 8.54541 17.4613 8.55386 17.418 8.56736ZM16.8652 9.96102C16.8652 9.97773 16.8652 9.96576 16.8686 9.96576V9.94803C16.8652 9.95219 16.8652 9.95661 16.8652 9.96102ZM17.4679 9.89126C17.468 9.8912 17.468 9.89107 17.468 9.89094L17.4679 9.89126ZM17.4611 9.97056L17.4679 9.89126C17.4678 9.89165 17.4672 9.89165 17.4645 9.89222L17.4611 9.97056ZM17.5156 9.86368C17.5088 9.86541 17.502 9.86778 17.4986 9.87117L17.5462 9.86778C17.5361 9.86675 17.5258 9.86093 17.5156 9.86368ZM17.5286 9.22157L17.5224 9.22112C17.5242 9.22144 17.5263 9.22157 17.5286 9.22157ZM17.5496 9.22317C17.5496 9.22285 17.5496 9.21907 17.5496 9.21773C17.5496 9.21843 17.5462 9.21907 17.5462 9.21946C17.5413 9.22093 17.5345 9.22163 17.5286 9.22157L17.5496 9.22317ZM10.3106 5.25466L10.3446 7.55546C10.3504 7.59757 10.3341 7.7287 10.3446 7.8711L10.3514 8.46867L10.3684 9.35808C10.384 10.4428 10.5242 11.6528 10.6307 12.756C9.9879 12.2855 9.3056 11.9577 8.53997 11.7494L8.87366 11.4716C8.98048 11.4264 8.99411 11.3626 9.05414 11.2881C9.40883 10.8475 9.64557 10.2228 9.6432 9.64614C9.64109 9.12774 9.53382 8.75206 9.32314 8.3008C9.1129 7.85056 8.66983 7.41376 8.24032 7.15776C7.93344 6.97478 7.46234 6.82605 7.1065 6.82067C6.85671 6.8192 6.688 6.81274 6.43571 6.8615C6.10669 6.92518 5.99635 6.94227 5.6832 7.08826C5.47507 7.18528 5.27008 7.3145 5.09415 7.46112C4.82445 7.68576 4.52192 8.07251 4.37229 8.39405C4.1321 8.91027 4.05587 9.37216 4.09306 9.92224C4.10631 10.1179 4.2185 10.5345 4.30759 10.7282C4.35098 10.8225 4.60845 11.2282 4.67872 11.2982C4.7607 11.3798 4.82439 11.4183 4.90003 11.5055C4.98611 11.5878 5.18963 11.7185 5.27802 11.78C3.28493 12.3273 1.7417 13.812 1.04557 15.7444C0.818369 16.3727 0.688449 17.1229 0.691457 17.7887L0.756161 23.362C0.761153 24.2156 1.44877 24.8501 2.2816 24.7871L4.47104 24.6093L3.87175 25.0346C3.54016 25.2682 3.70605 25.8031 4.11693 25.8031H4.44384C4.59027 25.8031 4.73664 25.7949 4.87968 25.7939L6.51405 25.7864C6.72173 25.7816 6.92608 25.7762 7.13037 25.7837C7.34605 25.7914 7.75533 25.769 7.99526 25.766C10.09 25.7401 12.1827 25.7501 14.2775 25.7343L15.82 25.7169C16.0311 25.7152 16.2422 25.7149 16.4533 25.7105C16.6883 25.705 16.9266 25.7162 17.1615 25.6999C17.1888 25.6975 17.2228 25.6972 17.25 25.6999C17.399 25.7144 17.6564 25.6979 17.8289 25.6965C19.2135 25.6838 20.5108 25.6816 21.8945 25.5947C22.2744 25.5696 23.6442 25.6694 23.7809 25.4271C23.837 25.3277 23.7247 25.2872 23.6447 25.2392L23.3894 25.0842C23.3421 25.0721 22.0314 24.0925 21.4451 23.8315C21.0131 23.6392 20.3891 23.5158 19.9094 23.4828L19.3612 23.4518L19.1876 22.9435C19.0668 22.6848 19.0717 22.6012 18.8437 22.3691L19.1195 22.0627C19.4195 21.7201 19.6356 21.5046 19.5621 20.9952C19.5434 20.8652 19.4411 20.6833 19.3578 20.5877C19.3476 20.5764 19.3374 20.5655 19.3306 20.5549C19.4024 20.5549 19.5749 20.4149 19.637 20.3615L19.7255 20.2692C19.7665 20.252 20.0396 19.9852 20.066 19.9495C20.2012 20.14 20.3536 20.366 20.5018 20.5365C20.5802 20.6264 20.6584 20.7163 20.7197 20.8161C20.9009 21.0943 21.8035 21.9547 22.0817 22.2135C22.092 22.223 22.1021 22.2323 22.1124 22.2424C22.2728 22.4155 22.3987 22.5219 22.5619 22.6793C22.6027 22.7198 22.6402 22.7637 22.6844 22.8042L23.3859 23.4706L24.3086 24.3085L24.9828 24.9099C25.1508 25.0495 25.4374 25.3295 25.6229 25.4254C26.0069 25.624 26.5304 25.5309 26.784 25.2119C26.9674 24.9812 27.1559 24.8721 27.2607 24.5721C27.3507 24.3144 27.316 24.0554 27.1994 23.8111C27.1315 23.6504 26.9607 23.5327 26.8384 23.4239L26.3446 22.985L25.1802 21.9152L24.162 21.0108L23.6989 20.6039C23.6719 20.5847 23.6412 20.5384 23.5457 20.4623L23.2529 20.2015C22.7524 19.7571 22.5862 19.5997 22.0305 19.1994L21.1622 18.6045C21.194 18.5637 21.4561 18.2433 21.4584 18.2156C21.4593 18.199 21.4776 18.223 21.4925 18.1788C21.5045 18.143 21.6738 17.9958 21.7206 17.8223C22.2043 18.2162 22.7726 18.1627 23.178 17.6933C23.2597 17.5973 23.3448 17.5043 23.4333 17.4111L23.6104 17.2027C23.8597 16.9227 23.9146 16.7234 23.8726 16.3439C23.8531 16.1686 23.6972 15.9389 23.5559 15.8172C23.0876 15.4124 22.6559 14.9924 22.1905 14.5914L21.513 14.0116C21.4809 13.992 21.498 13.9713 21.4142 13.9166C21.3199 13.8552 20.9224 13.4721 20.7366 13.3422L20.7673 13.2864C20.8564 12.9669 20.8732 12.6714 20.9239 12.3446C20.9737 12.0241 20.9788 11.5952 21.0294 11.3234C21.0861 11.0195 21.1223 9.54074 21.1282 9.09549L21.1316 8.29427C21.1493 8.15021 21.1404 7.54854 21.1452 7.34118L21.1622 5.29747C21.1606 5.01664 21.1699 4.80128 21.0499 4.52115C20.8151 3.97299 20.3029 3.64211 19.7014 3.6464L18.8808 3.65664C18.9362 3.53965 18.918 3.47283 18.9864 3.32294C19.0288 3.23002 19.0643 2.89139 19.0715 2.74611C19.0842 2.49024 19.0303 2.30074 18.874 2.08691C18.7377 1.90048 18.6361 1.81325 18.4143 1.7209C18.1956 1.62982 18.0966 1.63949 17.873 1.63405L16.5722 1.65926L16.1364 1.6841C16.1364 1.65856 16.1717 1.60205 16.1432 1.42938C16.0915 1.11642 16.0264 0.179712 15.6358 0.206976L15.5507 0.21312C15.5507 0.21344 15.5473 0.214144 15.5473 0.214464C15.5042 0.195008 15.5341 0.185088 15.4486 0.210752C15.3894 0.22848 15.4231 0.251328 15.4179 0.256C15.4145 0.26144 15.4111 0.26688 15.4111 0.27232C15.3727 0.2992 15.3579 0.246656 15.3873 0.30976C15.4527 0.450496 15.2237 1.51226 15.2307 1.70957L14.8698 1.7351L13.6065 1.7552C13.4008 1.76749 13.1602 1.76064 12.98 1.84307C12.7535 1.94669 12.7708 1.98144 12.7382 1.99526C12.6546 2.03078 12.5116 2.2615 12.4795 2.33882C12.3057 2.75693 12.5085 3.30899 12.6327 3.74099L11.6214 3.74438C11.154 3.75219 10.734 3.98144 10.4944 4.376C10.2978 4.70003 10.3074 4.92128 10.3106 5.25466ZM20.4371 13.9643C20.3561 13.9117 20.366 13.8597 20.3588 13.8523C20.2687 13.7581 20.178 13.7784 20.0762 13.8022C20.0246 13.8143 19.9435 14.01 19.8787 14.0024C19.8508 13.9992 19.748 14.102 19.7425 14.1124C19.6508 14.2851 19.4193 14.5916 19.4224 14.5939C19.4637 14.6232 19.4368 14.7087 19.5279 14.7525C19.6456 14.8091 19.899 15.071 19.9604 15.0913C20.0415 15.1181 20.0692 15.1845 20.1272 15.2033C20.1306 15.2044 20.134 15.2064 20.1375 15.2092C20.1852 15.2657 20.2566 15.2932 20.318 15.3304L20.4575 15.4516C20.6438 15.5773 21.0895 15.9816 21.2577 16.1527C21.2918 16.1878 21.3326 16.2157 21.3667 16.2484L22.3507 17.149V17.15C22.3541 17.1507 22.3541 17.151 22.3575 17.1521C22.4765 17.2145 22.53 17.0438 22.6742 16.9277C22.7593 16.8558 22.8172 16.7581 22.8989 16.6798C22.9935 16.5823 23.0287 16.5595 22.9942 16.4758L21.7446 15.2228C21.6254 15.1162 21.513 14.999 21.3972 14.8901L20.4371 13.9643ZM21.4211 19.3214L21.9149 19.8413C21.9659 19.8917 22.1876 20.1016 22.2043 20.1393C22.2486 20.2392 22.3115 20.2646 22.3916 20.3418L24.5912 22.4413L26.406 24.2038V24.2065C26.425 24.2204 26.4264 24.247 26.4264 24.2684L26.4196 24.3028L26.1336 24.6174C26.0875 24.6619 26.1185 24.6441 26.0588 24.6392L26.0179 24.6212L25.7489 24.3702L24.9964 23.6909L23.6378 22.4379C23.5834 22.3889 23.5254 22.345 23.4744 22.2935C23.3756 22.1931 23.2735 22.0943 23.1679 22.0007C22.9603 21.8209 22.7729 21.6245 22.5585 21.4532L22.2316 21.1811C22.1839 21.1396 22.1396 21.0912 22.0886 21.0545C22.0001 20.9939 21.9047 20.9431 21.8298 20.8618C21.8264 20.858 21.8196 20.8543 21.8162 20.8522C21.7199 20.8004 21.6811 20.7224 21.5779 20.6738C21.5234 20.6482 21.2394 20.3913 21.2033 20.3571C21.0393 20.2019 20.8633 20.107 20.7368 19.9798C20.4609 19.7022 20.509 19.8154 20.301 19.671L20.948 18.8436C20.9869 18.8841 21.0579 18.9443 21.0604 18.9829C21.0643 19.0493 21.3128 19.1892 21.4211 19.3214ZM22.5182 25.1082C22.4671 25.1082 22.2993 25.1192 22.2482 25.1161C21.7754 25.086 21.6092 25.054 21.1283 25.0456C20.9613 25.0426 20.3284 25.0445 20.2293 25.0234C20.0362 24.9825 19.8311 25.0061 19.63 25.004C19.5313 25.003 19.4359 24.9983 19.3406 24.9976L13.0243 24.9597C10.5556 24.9376 8.05901 24.877 5.59117 24.9121L6.00999 24.6308C6.32666 24.4551 6.71482 24.3465 7.10983 24.2845C7.37203 24.2437 7.64103 24.2195 7.91002 24.2161L9.40141 24.2147L11.9245 24.2106C12.0811 24.2106 12.2412 24.2045 12.3978 24.2072C12.7042 24.212 13.0141 24.215 13.3239 24.2113C13.913 24.2038 14.5089 24.2188 15.1013 24.199L16.0241 24.1762C16.1603 24.1741 16.2998 24.1813 16.4361 24.1721C16.6676 24.1564 16.8957 24.1285 17.1341 24.137C17.1478 24.1377 17.158 24.1363 17.1716 24.1347C17.3773 24.1074 17.5862 24.1372 17.8117 24.1043C17.9365 24.0861 18.7724 24.0813 18.8774 24.0815C19.583 24.083 19.9802 23.9939 20.6957 24.0938C20.7468 24.1009 20.7979 24.1036 20.8456 24.102C21.3557 24.0871 22.0883 24.8073 22.5182 25.1082ZM15.7654 18.4541C15.4961 18.5206 15.2138 19.043 15.2138 19.4048C15.2721 19.4267 15.5005 19.6277 15.5509 19.67C15.6854 19.783 15.6492 19.7244 15.7279 19.7933L15.8233 19.8607C15.8744 19.918 15.9425 19.9448 16.0072 19.982C16.0412 20.0041 16.0685 20.0385 16.1025 20.066L16.3272 20.2428L16.9436 20.8049C16.9776 20.8393 17.0185 20.8676 17.0525 20.9006L18.0366 21.8006C18.0366 21.8023 18.0366 21.8016 18.04 21.8016C18.04 21.8023 18.0434 21.8033 18.0434 21.8044C18.1544 21.8711 18.2361 21.6812 18.3601 21.5793C18.4353 21.5174 18.592 21.3147 18.6801 21.2296C18.6801 21.2272 18.6869 21.2221 18.6869 21.2228C18.6869 21.2122 18.7003 21.1349 18.6733 21.1155L17.6348 20.0746L16.8686 19.3354L16.1229 18.6163C16.05 18.5631 16.0532 18.5276 16.048 18.524C16.048 18.5216 16.048 18.5206 16.0514 18.5181C16.0514 18.512 16.0514 18.5069 16.048 18.5039C15.95 18.413 15.8741 18.4273 15.7654 18.4541ZM14.921 20.0041C14.9915 20.1446 15.4256 20.6001 15.5713 20.743L15.8301 20.9851L16.6609 21.8023L15.0776 21.8296L14.2263 21.8572C14.182 21.8572 14.1343 21.8646 14.0935 21.8657L13.341 21.8786C13.2729 21.8833 13.2048 21.8915 13.1367 21.8943C13.0448 21.8973 12.9494 21.8925 12.8575 21.9055L12.7485 21.9066C12.779 21.8405 12.7857 21.8639 12.7962 21.8153C12.8832 21.4141 12.9766 20.5363 13.0005 20.1247C13.0141 19.9109 13.0277 19.6974 13.0584 19.4911C13.0584 19.4771 13.0618 19.4625 13.0618 19.4478L13.341 19.4863C13.6392 19.4521 14.1733 19.3853 14.4408 19.3266C14.4442 19.3173 14.4443 19.3452 14.4647 19.3273C14.473 19.32 14.5389 19.3196 14.5946 19.3011C14.5946 19.474 14.8348 19.8325 14.921 20.0041ZM20.1443 16.3335L19.8855 16.0914L19.4769 15.6637L19.4259 15.7489C19.4307 15.7993 19.3925 15.7868 19.3986 15.8228C19.402 15.8248 19.3986 15.8265 19.3986 15.8269C19.3748 15.8408 19.3782 15.8783 19.3713 15.9076L19.3305 15.9601C19.319 16.025 19.147 16.2161 19.0887 16.2631C19.0751 16.274 19.0683 16.291 19.058 16.3046L18.755 16.6373C18.7346 16.6615 18.7176 16.6908 18.6972 16.7156L18.4554 16.9741L18.2001 17.2751L17.7915 17.6371L17.1854 18.221C17.1663 18.2616 17.1241 18.2282 17.1241 18.2411C17.0588 18.2842 16.9717 18.3737 16.8993 18.394V18.3946L17.1002 18.5686C17.1903 18.6278 17.1706 18.6483 17.2024 18.6636L17.8765 19.2438L18.8368 20.1076C18.8368 20.102 18.9105 20.018 18.9083 19.9942C18.8922 19.8248 19.5261 19.1655 19.5791 19.1059C19.5995 19.081 19.6165 19.0524 19.6369 19.0278L19.8787 18.7694L20.1545 18.4435L20.6788 17.9814L21.1351 17.5398C21.1588 17.519 21.1473 17.493 21.1964 17.5044L21.2918 17.4364L20.9921 17.1656L20.5222 16.7155C20.4916 16.6879 20.4678 16.6573 20.4405 16.6297C20.3385 16.5292 20.2308 16.4404 20.1443 16.3335ZM16.9946 22.7247C17.2185 22.7375 17.7396 22.7055 17.9514 22.7779C17.9821 22.7881 18.0093 22.8047 18.0399 22.8109C18.0874 22.8189 18.1558 22.8179 18.2 22.8575C18.2 22.8596 18.2034 22.8602 18.2068 22.8602C18.2569 22.8602 18.2873 22.9181 18.3498 22.9267C18.4284 22.9373 18.7318 23.3036 18.8129 23.4027C18.7891 23.401 18.7652 23.3989 18.738 23.3972C17.4635 23.3319 16.0159 23.3183 14.7372 23.3183C14.7065 23.3183 14.6758 23.3186 14.6452 23.3169C14.2397 23.2947 13.7094 23.3065 13.2866 23.3012L10.801 23.2832C10.2289 23.2859 9.6569 23.2883 9.08486 23.2917C9.13664 23.1932 9.54003 22.8207 9.61946 22.8334C9.68301 22.8436 9.69344 22.8091 9.75226 22.7834L10.0655 22.6914C10.3005 22.6381 12.8044 22.7521 13.3037 22.7595C13.4195 22.7592 13.5352 22.7602 13.6544 22.7585C13.7805 22.7565 13.9226 22.7389 14.0528 22.7455C14.1652 22.7517 14.2741 22.7272 14.3865 22.7432L15.3535 22.7435C15.442 22.7425 15.5306 22.735 15.6191 22.734L16.8517 22.7292C16.8993 22.7284 16.9469 22.722 16.9946 22.7247ZM12.2685 17.2621C12.2439 17.0071 12.1967 16.7988 12.1289 16.5501C11.4895 14.204 9.5296 12.5356 7.05203 12.4617C7.15731 12.8836 7.36038 13.7235 7.49805 14.0961C7.55232 14.2259 7.73824 14.9003 7.78746 15.0655C7.94138 15.575 8.05696 16.1413 8.1824 16.6669C8.37415 17.4701 8.52352 18.3247 8.70336 19.1437C8.74471 19.3448 8.7465 19.4421 8.62848 19.6126L7.71936 20.724C7.59341 20.8496 7.50483 20.9991 7.38906 21.1302C7.33798 21.1884 7.29031 21.2486 7.24263 21.3089C7.08941 21.5075 6.80339 21.5436 6.6025 21.3886C6.43879 21.2435 5.63149 20.2346 5.45498 20.0062L5.15194 19.6122C5.06176 19.5005 5.02951 19.3751 5.05658 19.2411L5.66951 16.4786C5.77031 16.0226 5.89543 15.566 6.00999 15.1146L6.14279 14.5759C6.15642 14.5286 6.17005 14.4856 6.18368 14.4394C6.20467 14.3564 6.22157 14.2191 6.26541 14.1619L6.67399 12.5956C6.6921 12.5103 6.69107 12.5681 6.71827 12.4607C6.28461 12.4755 5.99354 12.5187 5.58099 12.6198C5.14912 12.7256 4.98419 12.7923 4.57312 12.9841C4.24199 13.1387 4.0169 13.2964 3.72531 13.5089C3.19546 13.895 2.69863 14.438 2.34285 14.9853C1.76243 15.8781 1.48071 16.8645 1.47456 17.9252L1.43712 23.1676C1.43552 23.5089 1.43021 23.3984 1.49159 23.7379C1.51367 23.8575 1.61805 23.9446 1.6857 24.0262C1.75642 24.1116 1.98739 24.2161 2.10451 24.2346C2.35226 24.2739 2.65632 24.2614 2.93875 24.2844C3.15322 24.3014 3.7408 24.2456 3.82746 24.2881C3.87264 24.3103 4.22624 24.3203 4.29735 24.315C4.44039 24.3041 4.58675 24.3099 4.73318 24.315C4.77747 24.3167 4.82515 24.3197 4.86938 24.3245L5.24051 24.0566C5.68173 23.7362 6.04717 23.5742 6.58887 23.4477C7.32595 23.2757 7.89555 23.2952 8.63187 23.2928C8.66893 23.1908 8.81165 22.8317 8.88384 22.7235C8.93491 22.6349 8.99962 22.5519 9.06771 22.4722C9.2537 22.2514 9.58746 22.0877 9.86106 22.0221L10.1607 21.9676C10.2756 21.9413 10.2801 21.9708 10.3242 21.9612L11.6453 21.9138L12.5613 21.9084C12.5579 21.876 12.5545 21.846 12.5409 21.8178C12.5 21.7236 12.5164 21.3521 12.4524 21.0888C12.4248 20.9756 12.4292 20.616 12.4319 20.4936C12.4397 20.1424 12.3914 19.7974 12.3945 19.4156L12.3707 18.532C12.3461 18.3771 12.3569 18.065 12.34 17.9994C12.3366 17.9902 12.3366 17.9793 12.3366 17.9698C12.3458 17.698 12.2935 17.5219 12.2685 17.2621ZM7.48787 17.6805L7.77389 19.2087L6.87155 20.3582L6.63322 20.0701C6.56173 19.9911 6.48679 19.9135 6.41869 19.8321L5.90112 19.2212C6.008 18.6279 6.10573 18.0788 6.19053 17.481L6.5753 14.3589L6.72851 12.9755L6.80346 12.4603C6.85114 12.4596 6.89882 12.4586 6.94304 12.4593L7.02138 13.1304L7.22906 15.4645L7.28691 15.9773C7.28999 16.1905 7.45555 17.4826 7.48787 17.6805ZM8.70342 8.84083C8.8263 9.08749 8.87552 9.3447 8.89754 9.61549C8.8976 9.67264 8.86086 10.1288 8.83968 10.1926C8.80147 10.2675 8.81306 10.2808 8.78183 10.3683C8.68685 10.6343 8.59975 10.7767 8.43111 10.9938C8.30042 11.162 8.02285 11.4854 7.83866 11.5996C7.2073 11.8736 6.70387 11.8374 6.17363 11.5985L5.91488 11.4188L5.82291 11.3166C5.62675 11.1439 5.42759 10.9254 5.29171 10.701L5.25082 10.6241C5.0457 10.2839 4.96768 9.84026 5.01587 9.44422C5.09018 8.83341 5.4048 8.33882 5.90797 7.99949C6.11821 7.85773 6.32224 7.77203 6.57197 7.73421C6.6128 7.72909 6.65709 7.71174 6.70138 7.70694C6.86797 7.69395 7.21536 7.6944 7.3824 7.7543L7.64115 7.82067L7.98509 7.99059L8.28813 8.23782C8.49203 8.44147 8.58112 8.59533 8.70342 8.84083ZM13.4228 3.73875L12.9767 3.7401V3.736C12.9767 3.69338 13.0189 3.71571 13.0108 3.66586C12.972 3.43066 13.0305 3.34323 13.0448 3.08768C13.0448 3.06317 13.038 3.03866 13.0448 3.01549L13.0652 2.8759C13.1219 2.79206 13.0678 2.76986 13.089 2.7111C13.105 2.66714 13.1065 2.5792 13.2184 2.53133C13.3188 2.48838 14.1828 2.54579 14.3387 2.55277C14.7509 2.57133 15.0792 2.5961 15.4794 2.58784C15.5764 2.58605 15.6856 2.56858 15.7892 2.57555C15.8744 2.58131 15.9561 2.55718 16.0412 2.5728L16.7835 2.57312C16.8516 2.57178 16.9231 2.56461 16.9912 2.56358L18.0365 2.55475C18.1007 2.56 18.2271 2.63904 18.2271 2.71718C18.2272 2.71718 18.2712 2.81869 18.2646 2.89222C18.2633 2.90618 18.2816 2.88781 18.2816 2.98042C18.2816 3.06349 18.3079 3.01011 18.3123 3.14419C18.3246 3.3289 18.3599 3.48704 18.3599 3.66554L16.5451 3.69005C16.4429 3.68973 16.3408 3.69754 16.242 3.69888L15.0945 3.70637C14.9515 3.71181 14.8085 3.71661 14.6621 3.70906L14.0594 3.72678C13.845 3.73056 13.6339 3.72512 13.4228 3.73875Z" fill="#282828"/>
</svg>
