<svg width="26" height="28" viewBox="0 0 26 28" fill="none" xmlns="http://www.w3.org/2000/svg">
<path d="M25.1529 3.75141C25.1449 3.75141 13.1622 0.69208 13.1536 0.692746C13.0276 0.65408 12.8842 0.681413 12.7556 0.714746L0.835577 3.59475C0.55691 3.66208 0.349577 3.91408 0.351577 4.21275C0.40691 14.4474 1.00158 21.7794 11.1396 26.7554C12.0482 27.2361 12.8589 27.5221 13.0629 27.4434C15.4509 26.8394 18.3976 24.7134 20.3516 22.9681C25.6629 18.3634 25.6716 10.8241 25.6269 4.36608C25.6296 4.08341 25.4396 3.82475 25.1529 3.75141ZM14.5942 26.1554C13.8449 26.6014 13.2202 27.0141 13.0229 27.2534C12.8222 27.0234 12.2396 26.6261 11.4629 26.1727C2.14358 21.1987 1.56158 14.3867 1.62958 4.71541L12.9962 2.02741L24.3649 4.86541C24.5489 14.6441 23.9669 20.8214 14.5942 26.1554ZM19.7009 10.6494L15.6836 10.6394C15.6616 9.66675 15.5962 6.72141 15.5962 6.72141C15.5949 6.36208 15.3036 6.06808 14.9422 6.06741L11.0169 6.05341C10.6682 6.05208 10.3836 6.33608 10.3849 6.68541L10.3256 10.7207C9.10758 10.7734 6.37024 10.8847 6.35158 10.8947C6.07824 10.9074 5.86091 11.1341 5.86291 11.4101L5.88958 15.2581C5.88424 15.4987 6.08224 15.6974 6.32291 15.6914C6.96158 15.6521 10.2569 15.6754 10.8022 15.5261C10.6269 16.0767 10.6282 19.2801 10.5836 19.9361C10.5756 20.1761 10.7742 20.3714 11.0136 20.3661L15.0276 20.5187C15.3162 20.5307 15.5549 20.2901 15.5442 20.0021L15.5796 15.9307C16.4769 15.9421 19.7442 15.9821 19.7442 15.9821C20.0942 15.9867 20.3809 15.7021 20.3782 15.3521C20.3769 15.3501 20.3576 11.3074 20.3556 11.3054C20.3549 10.9447 20.0622 10.6507 19.7009 10.6494ZM14.9722 14.7467C14.6542 14.7534 14.4022 15.0167 14.4096 15.3347L14.5009 19.4881L11.4336 19.5041C11.4096 18.5801 11.3549 16.4827 11.3549 16.4827C11.3469 15.9654 11.2802 15.5834 11.1922 15.3667C11.3689 15.1987 11.0089 14.9974 9.91824 14.9474L6.77224 14.8394L6.87824 11.9194L10.9042 11.8654C11.2189 11.8607 11.4789 11.6094 11.4902 11.2914C11.4902 11.2827 11.5836 8.58675 11.6269 7.32608L14.2996 7.36608C14.3156 8.31808 14.3669 11.3054 14.3669 11.3054C14.3722 11.8167 14.8369 12.0287 15.2936 11.9721L19.0569 11.9634L19.1022 14.7194C17.8042 14.7274 14.9876 14.7441 14.9722 14.7467Z" fill="#282828"/>
</svg>
