<svg width="22" height="28" viewBox="0 0 22 28" fill="none" xmlns="http://www.w3.org/2000/svg">
<path fill-rule="evenodd" clip-rule="evenodd" d="M20.9216 16.7003C20.6667 16.2506 20.104 16.2316 19.6913 15.7096C19.0198 14.9104 19.3559 13.9792 19.8575 13.2082C20.0667 12.6854 19.7213 12.12 19.2001 11.9643C17.6253 11.9978 16.726 11.412 16.897 9.63857C16.8373 9.18698 16.5056 9.01738 16.434 8.91588C15.9592 8.51703 15.4019 8.85617 14.933 9.0826L15.3568 9.81162C17.0674 11.8431 14.5455 14.0368 12.9472 12.1438C11.0123 12.3554 8.88612 12.707 6.96868 13.1398C7.59416 13.8347 8.0874 14.4745 8.53521 15.2882C8.74564 15.8158 10.359 17.5268 9.60331 18.3445C9.13348 18.8316 8.3578 19.4209 7.63704 19.1081C6.16248 18.0592 4.90424 16.5172 3.67262 15.1975C3.54315 15.7218 3.02609 16.0477 2.58008 16.2816C1.78891 16.8739 2.12753 17.8587 3.03819 18.1889C3.56075 18.4216 3.90948 18.9968 3.95486 19.557C4.12996 20.5596 2.68209 21.402 3.89073 22.1513C4.35044 22.3829 4.92376 22.0481 5.64286 22.4669C6.44312 22.8917 6.58763 23.8007 6.54622 24.6216C6.60292 25.1472 7.22552 25.558 7.80868 25.2341C8.15012 25.0445 8.3756 24.8674 8.769 24.7842C9.71806 24.5602 10.5384 25.2279 10.9118 26.0526C11.2376 26.6068 12.0265 26.6295 12.3686 26.0389C13.046 24.5624 14.3449 24.4219 15.5997 25.283C16.1127 25.4664 16.6598 25.1082 16.7034 24.5682C16.7188 24.3783 16.689 23.9843 16.7177 23.7897C16.8506 22.6271 17.9599 22.086 19.042 22.2256C19.6269 22.2087 19.9897 21.6295 19.8128 21.1125C17.8838 17.9043 21.6937 18.4604 20.9216 16.7003ZM6.81099 13.5305C7.33041 14.5646 7.92216 15.7213 8.49617 16.709C8.97336 17.7144 9.37988 17.6566 8.22232 18.2518C8.11633 18.3152 8.14385 18.3272 8.00849 18.2895C6.94916 17.4162 5.89028 16.1201 4.85092 15.2227C4.48318 14.9003 4.16286 14.6587 3.78705 14.3195C3.6259 14.201 3.66692 14.2231 3.61227 14.0935C4.62027 13.7776 5.63364 13.4775 6.65784 13.2183C6.68478 13.2718 6.82801 13.4784 6.81099 13.5305ZM3.51633 13.2483C1.25208 13.8312 0.207724 11.1134 2.15569 9.82334C4.29656 7.82564 6.48171 5.35351 7.63563 2.68382C9.04945 5.70481 11.0424 8.92586 12.762 11.8471C9.70135 11.6643 6.45995 12.376 3.51633 13.2483ZM15.002 8.93508C14.965 8.95953 14.927 8.98359 14.8887 9.00657L14.844 8.92913C14.896 8.90506 14.9508 8.87434 14.9891 8.8698C14.9766 8.88798 14.9643 8.90609 14.9521 8.9235C14.9281 8.95044 14.8445 9.00273 15.002 8.93508ZM14.1021 6.74973C14.9499 5.54372 13.6266 4.10506 12.3531 4.71575C12.772 5.40292 13.3894 6.46225 13.8104 7.15646C13.8795 7.06583 14.0032 6.98717 14.0396 6.87249C14.079 6.84797 14.0583 6.77694 14.1021 6.74973ZM21.3813 18.2518C20.3292 19.128 19.5424 19.1119 20.5124 20.6552C21.0308 21.6703 20.3506 23.0503 18.9957 23.075C18.5569 23.083 18.2358 23.0035 17.8829 23.3282C17.4337 23.7416 17.6613 24.2043 17.5934 24.6984C17.4347 25.8539 16.3216 26.5038 15.2848 26.1188C14.8024 25.9397 14.5602 25.5885 14.0347 25.6476C13.2661 25.7487 13.2704 26.6766 12.6795 27.0516C11.5024 27.9192 10.2878 27.1139 9.74321 25.9545C8.85976 25.1469 8.46219 26.3815 7.26648 26.2898C6.34116 26.2296 5.62443 25.4907 5.59595 24.5589C5.65963 23.9837 5.5434 23.2221 4.84555 23.1685C3.37233 23.4165 1.9578 22.0694 2.71992 20.5724C4.07806 18.7638 1.73828 19.0015 1.51569 17.5004C1.34168 15.4807 3.02366 16.0603 3.41579 14.8176C3.28529 14.6514 3.13816 14.3942 3.03281 14.2005C0.113516 14.3387 -0.765524 10.5914 1.60395 9.05476C3.7098 7.153 5.69438 4.50052 7.50372 2.35793C7.33502 1.65105 7.63601 0.978024 8.36708 0.856232C7.9987 1.1537 7.80196 1.90154 8.14424 2.36177C10.0672 5.28062 11.8883 8.53764 13.656 11.5602C14.1334 12.4393 15.442 11.6992 14.9414 10.8263C13.4621 8.10365 11.2157 4.29847 9.78577 1.50999C9.38519 0.82884 9.01412 0.858088 8.3891 0.944872L8.39083 0.943464L8.38424 0.949416L8.45713 0.872999L8.42327 0.910311L8.45329 0.879656L8.4428 0.895016L8.60395 0.809576C8.5219 0.809576 8.553 0.81732 8.59697 0.746088C8.56324 0.731304 8.3994 0.788072 8.50033 0.72516C9.08555 0.381224 9.90808 0.745768 10.2162 1.32548C10.8809 2.2291 11.5602 3.369 12.1365 4.34871C12.7197 3.49233 14.1767 3.79697 14.8601 4.66858C15.6245 5.57226 15.4226 7.37642 14.101 7.65034L14.8283 8.90225C15.6839 8.02481 17.2669 8.43486 17.351 9.71409C17.3064 10.4626 17.5974 11.299 18.4182 11.3042C19.7787 11.0434 21.0609 12.1449 20.4824 13.5494C19.1939 15.5214 20.9612 15.175 21.649 16.4626C21.9134 17.051 21.8191 17.7652 21.3813 18.2518ZM14.4673 18.0987C13.7575 18.826 12.3359 21.0855 11.2599 20.8955C11.2626 20.8718 11.2707 20.8537 11.2567 20.824C11.2484 20.8068 11.2847 20.8018 11.2704 20.7574C11.2515 20.699 11.3224 20.6901 11.3175 20.5687C12.5975 18.582 14.3991 16.875 16.0904 15.2359C16.2464 15.1993 16.2621 15.0237 16.4396 15.0507C16.4471 15.0745 16.4295 15.1071 16.4187 15.1351C16.4455 15.1351 16.4356 15.1259 16.448 15.1543C16.4723 15.2098 16.4883 15.1664 16.5066 15.1742C16.2336 16.3347 15.1277 17.17 14.4673 18.0987ZM17.0695 19.8121C17.2846 21.8416 14.2139 21.7389 14.3334 19.7374C14.3957 18.9133 15.3122 18.1898 16.1472 18.6062C16.3828 18.7766 16.5902 18.9815 16.45 19.269C16.3721 19.269 16.3934 19.2932 16.3725 19.2784C16.3453 19.2592 16.3314 19.2997 16.2937 19.2843C16.2227 19.2554 16.1894 19.3053 16.1712 19.2948C16.0537 19.2274 16.0635 19.2782 15.9665 19.2578C15.8467 19.2327 15.8486 19.2808 15.8207 19.2795C15.7801 19.2775 15.7912 19.2969 15.7837 19.2948C15.7457 19.285 15.7263 19.352 15.6836 19.3461C14.4861 19.9856 16.1664 21.1277 16.443 19.9433C16.4768 19.929 16.4612 19.7212 16.4713 19.6768C16.4826 19.6269 16.3894 19.6009 16.4253 19.5666C16.4707 19.5232 16.3578 19.4839 16.3754 19.3985C16.3913 19.3211 16.3728 19.311 16.4553 19.3396L16.479 19.3141C16.5307 19.293 16.4985 19.2777 16.5083 19.2618C16.5437 19.2037 16.9497 19.448 17.0695 19.8121ZM8.45355 0.878696C8.45355 0.878696 8.45323 0.8794 8.45323 0.87972L8.45355 0.8794C8.45355 0.878696 8.45355 0.878696 8.45355 0.878696ZM8.38417 0.94948C8.38308 0.950504 8.38308 0.950888 8.38417 0.94948V0.94948ZM17.7145 5.93175C17.5888 5.98679 17.4895 5.97015 17.321 6.0371C17.3183 6.04631 17.3191 6.01822 17.3074 6.03601C17.2859 6.06865 17.229 5.97937 17.1215 6.26103C17.0778 6.31159 17.0316 6.62308 17.0996 6.62417L17.1226 6.67025C17.1748 6.62762 17.1265 6.66743 17.1983 6.70269C17.1984 6.70276 17.2246 6.70794 17.2262 6.72503C17.2304 6.76797 17.2389 6.74289 17.245 6.74526C17.3478 6.77649 17.4027 6.769 17.5356 6.82167C17.6005 6.8474 17.6086 6.86564 17.6775 6.83914C17.6838 6.83671 17.6905 6.83319 17.6978 6.83633C17.7086 6.84228 17.7194 6.81751 17.7312 6.83351L17.9943 6.81502C18.0422 6.84401 18.0881 6.78782 18.1191 6.77943C18.1505 6.70974 18.1564 6.74078 18.162 6.71038C18.4844 6.47223 18.2227 5.64977 17.7145 5.93175ZM16.3188 4.08158C16.3529 4.11185 16.416 4.32836 16.4709 4.27345C16.4729 4.25546 16.5194 4.29822 16.5194 4.29822C16.5463 4.23466 16.5303 4.2881 16.6219 4.27697C16.6223 4.2769 16.6527 4.2643 16.6648 4.27799C16.6946 4.3114 16.6857 4.28599 16.6959 4.28356C16.8566 4.20817 17.1695 4.15812 17.2909 4.04183C17.4096 3.95415 17.7257 3.80574 17.7161 3.67486C17.7232 3.67038 17.7076 3.62929 17.7433 3.61137C17.7718 3.5971 17.7319 3.57175 17.7869 3.53566C17.6738 2.93623 17.1494 2.85297 16.8106 3.28804C16.5693 3.55095 16.237 3.55838 16.3188 4.08158ZM11.3781 17.4265C9.8746 16.7094 10.8814 14.1755 12.4348 14.8934C12.6698 15.0623 12.8776 15.2728 12.7371 15.5561C12.6598 15.5561 12.6802 15.5808 12.66 15.5655C12.6338 15.5456 12.6173 15.5869 12.5808 15.5714C12.5114 15.5419 12.4764 15.5917 12.458 15.5819C12.3162 15.5065 12.3487 15.5679 12.2536 15.5449C12.1422 15.5181 12.1323 15.5673 12.1078 15.5666C12.0658 15.5653 12.079 15.5847 12.0705 15.5819C12.0331 15.5721 12.0131 15.6396 11.9707 15.6329C10.7771 16.2655 12.4431 17.42 12.7301 16.2304C12.7575 16.2191 12.7531 16.077 12.7542 16.0532C12.7604 15.925 12.7677 15.9493 12.7061 15.8781C12.7625 15.7552 12.6134 15.8135 12.6775 15.6158L12.7427 15.627C12.7465 15.5993 12.752 15.607 12.7661 15.6011C12.8164 15.5806 12.7858 15.5647 12.7954 15.5492C14.1921 16.0845 12.8994 18.1984 11.3781 17.4265ZM14.191 1.9297C14.1433 2.06474 14.3808 2.26455 14.4454 2.31588C14.4976 2.31876 14.6372 2.3937 14.6832 2.36471C14.6963 2.35223 14.6818 2.32177 14.7209 2.32913C14.7707 2.33847 14.7077 2.29668 14.7363 2.28798C14.7769 2.27562 14.7947 2.23799 14.8183 2.21194C14.8237 2.20593 14.8646 2.21822 14.8549 2.20042C15.0233 1.85188 15.2035 1.48062 15.1839 1.09534C15.1231 1.03326 15.1606 1.04062 15.1319 1.02385C15.122 0.69348 14.3932 0.669224 14.3243 0.940135C14.1885 1.0995 14.2555 1.34148 14.219 1.5059C14.2428 1.61514 14.1742 1.77994 14.1963 1.91191C14.2033 1.91882 14.1767 1.9098 14.191 1.9297Z" fill="#282828"/>
</svg>
