<svg width="32" height="28" viewBox="0 0 32 28" fill="none" xmlns="http://www.w3.org/2000/svg">
<path d="M30.2363 25.4357C29.6923 21.4867 30.1706 6.48826 29.9372 4.86918C29.8006 3.9226 29.2349 3.59313 28.4173 3.55496C27.9239 3.37472 23.7958 3.37158 23.2142 3.37702C23.2013 2.89631 23.182 2.484 23.1136 1.94182C22.9701 0.803685 22.3621 0.401264 21.2919 0.430245C18.1595 0.265005 14.7962 0.270634 10.4336 0.448455C9.86558 0.469135 9.42027 0.931911 9.42027 1.50268C9.42044 1.5775 9.42693 4.21172 9.43842 7.71451C7.6296 7.64727 5.68842 7.67898 3.2029 7.81794C2.74196 7.85011 2.39453 8.30323 2.39453 8.87171C2.3988 14.3747 2.63645 19.9348 2.669 25.4158H1.96163C1.33433 25.4158 0.824219 25.9259 0.824219 26.5528C0.824219 27.1801 1.33433 27.6902 1.96163 27.6902H30.0402C30.667 27.6902 31.1772 27.1801 31.1772 26.5528C31.1772 25.9931 30.7696 25.5292 30.2363 25.4357ZM23.2231 4.08285C24.9774 4.06633 26.6006 4.1045 28.1418 4.20719C28.2415 4.21316 28.3523 4.35425 28.3523 4.5491C28.3984 11.4819 28.6974 18.3992 28.7395 25.4158H23.4076C22.9832 21.3975 23.2229 4.13149 23.2231 4.08285ZM10.4607 1.15342C14.9267 0.970974 18.3375 0.969595 21.525 1.14836C21.7043 1.15755 21.8463 1.30875 21.8486 1.49028C21.8542 2.50777 21.8851 22.8879 21.9008 25.4158H18.8248L18.8449 21.2196C18.8449 18.2231 15.7561 18.8699 15.5682 18.8078C14.3904 18.8078 13.4322 19.8896 13.4322 21.2196V25.4158H10.2526C10.1791 22.9954 10.1266 1.7156 10.1261 1.50176C10.1261 1.31335 10.2727 1.16031 10.4607 1.15342ZM17.4939 25.4158H14.1381V21.2196C14.1381 20.7037 14.3351 20.2462 14.6395 19.9331C16.2475 19.4098 17.4679 20.0605 17.543 22.2231C17.5962 23.7548 17.5797 23.9746 17.4939 25.4158ZM3.24747 8.52244C5.38393 8.40282 7.11248 8.36418 8.70042 8.39897C8.72568 8.85178 9.09239 23.0166 8.47312 25.4158H3.37491C3.34249 19.9072 3.1047 14.382 3.10041 8.87125C3.10041 8.65112 3.20841 8.5252 3.24747 8.52244ZM30.0402 26.9843H1.96163C1.72358 26.9843 1.5301 26.7908 1.5301 26.5528C1.5301 26.3152 1.72358 26.1217 1.96163 26.1217H30.0402C30.2778 26.1217 30.4713 26.3152 30.4713 26.5528C30.4713 26.7908 30.2778 26.9843 30.0402 26.9843Z" fill="#282828"/>
<path d="M24.7865 10.9844C24.5917 10.9844 24.4336 11.1425 24.4336 11.3373C24.4336 11.5322 24.5917 11.6903 24.7865 11.6903H26.3748C26.5696 11.6903 26.7277 11.5322 26.7277 11.3373C26.7277 11.1425 26.5696 10.9844 26.3748 10.9844H24.7865Z" fill="#282828"/>
<path d="M26.3162 15.7489C26.511 15.7489 26.6691 15.5908 26.6691 15.3959C26.6691 15.2011 26.511 15.043 26.3162 15.043H24.7279C24.5331 15.043 24.375 15.2011 24.375 15.3959C24.375 15.5908 24.5331 15.7489 24.7279 15.7489H26.3162Z" fill="#282828"/>
<path d="M26.4334 19.1602H24.8451C24.6503 19.1602 24.4922 19.3182 24.4922 19.5131C24.4922 19.708 24.6503 19.866 24.8451 19.866H26.4334C26.6282 19.866 26.7863 19.708 26.7863 19.5131C26.7863 19.3182 26.6282 19.1602 26.4334 19.1602Z" fill="#282828"/>
<path d="M24.6068 7.98518H26.1951C26.3899 7.98518 26.548 7.82709 26.548 7.63224C26.548 7.43739 26.3899 7.2793 26.1951 7.2793H24.6068C24.412 7.2793 24.2539 7.43739 24.2539 7.63224C24.2539 7.82709 24.412 7.98518 24.6068 7.98518Z" fill="#282828"/>
<path d="M13.1023 4.86639C13.2962 4.85031 13.4414 4.68027 13.4258 4.48588L13.3068 3.01529C13.2907 2.8209 13.1147 2.68349 12.9262 2.69176C12.7323 2.70785 12.5871 2.87788 12.6027 3.07228L12.7217 4.54286C12.7365 4.72236 12.8859 4.8767 13.1023 4.86639Z" fill="#282828"/>
<path d="M13.103 7.98438H13.1002C12.9053 7.98575 12.7486 8.14522 12.75 8.34007L12.7629 9.92785C12.7643 10.1218 12.9223 10.278 13.1158 10.278H13.1186C13.3134 10.2767 13.4701 10.1172 13.4688 9.92233L13.4559 8.33456C13.4545 8.14063 13.2964 7.98438 13.103 7.98438Z" fill="#282828"/>
<path d="M13.103 13.1016H13.1002C12.9053 13.1029 12.7486 13.2624 12.75 13.4573L12.7643 15.1627C12.7656 15.3566 12.9237 15.5129 13.1172 15.5129H13.12C13.3148 15.5115 13.4715 15.352 13.4701 15.1572L13.4559 13.4517C13.4545 13.2578 13.2964 13.1016 13.103 13.1016Z" fill="#282828"/>
<path d="M18.5655 4.92587C18.7738 4.92587 18.9343 4.74817 18.918 4.54444L18.7989 3.07385C18.7829 2.87945 18.6087 2.74251 18.4184 2.75032C18.224 2.7664 18.0793 2.93644 18.0949 3.13083L18.2139 4.60142C18.2291 4.78616 18.3835 4.92587 18.5655 4.92587Z" fill="#282828"/>
<path d="M18.5951 8.04297H18.5924C18.3975 8.04435 18.2408 8.20381 18.2422 8.39867L18.2551 9.9869C18.2564 10.1808 18.4145 10.3371 18.608 10.3371H18.6108C18.8056 10.3357 18.9623 10.1762 18.9609 9.98139L18.9481 8.39315C18.9467 8.19922 18.7886 8.04297 18.5951 8.04297Z" fill="#282828"/>
<path d="M18.5951 13.1602H18.5924C18.3975 13.1615 18.2408 13.321 18.2422 13.5159L18.2564 15.2217C18.2578 15.4157 18.4159 15.5719 18.6094 15.5719H18.6121C18.807 15.5705 18.9637 15.4111 18.9623 15.2162L18.9481 13.5103C18.9467 13.3164 18.7886 13.1602 18.5951 13.1602Z" fill="#282828"/>
<path d="M5.63926 12.9751C6.20305 12.952 6.86021 13.0389 7.46233 13.0141C7.65626 13.0063 7.80745 12.8427 7.8001 12.6483C7.7793 12.0857 7.78803 11.3817 7.76609 10.8014C7.7592 10.6157 7.60938 10.4673 7.42326 10.4617L5.64707 10.4121C5.42191 10.42 5.27663 10.5842 5.28494 10.7798C5.30853 11.3461 5.24611 12.0489 5.27207 12.6378C5.27988 12.8321 5.43705 12.9902 5.63926 12.9751ZM5.99587 11.1281L7.06986 11.158C7.0776 11.514 7.0775 11.9313 7.08503 12.3115C6.73099 12.3048 6.36753 12.2729 5.97152 12.2664C5.97346 11.877 5.99399 11.515 5.99587 11.1281Z" fill="#282828"/>
<path d="M7.51309 15.1781L5.7369 15.1289C5.49476 15.1417 5.367 15.3137 5.37477 15.4966C5.39828 16.0607 5.336 16.7673 5.3619 17.3541C5.36971 17.5485 5.52688 17.7107 5.72909 17.6914C6.3047 17.6686 6.94036 17.7561 7.55262 17.7309C7.74655 17.7231 7.89821 17.5595 7.89039 17.3651C7.86911 16.7849 7.87767 16.0894 7.85593 15.5177C7.84903 15.332 7.69922 15.1831 7.51309 15.1781ZM6.06135 16.9828C6.0633 16.5929 6.08383 16.2321 6.08571 15.8449L7.15969 15.8748C7.16796 16.2493 7.16705 16.6523 7.17532 17.0283C6.80929 17.0214 6.45452 16.9892 6.06135 16.9828Z" fill="#282828"/>
<path d="M7.5947 19.5906L5.81805 19.541C5.57173 19.5566 5.44823 19.7273 5.45592 19.9091C5.47876 20.4372 5.41903 21.1932 5.44351 21.7667C5.45178 21.9611 5.614 22.1159 5.8107 22.104C6.38489 22.0796 7.0172 22.1684 7.63376 22.143C7.8277 22.1352 7.97889 21.9716 7.97154 21.7772C7.95074 21.2146 7.95947 20.5106 7.93753 19.9303C7.93064 19.7446 7.78082 19.5962 7.5947 19.5906ZM6.14296 21.3953C6.14482 21.0232 6.16555 20.6214 6.16731 20.257L7.2413 20.2869C7.24904 20.6429 7.24894 21.0602 7.25647 21.4404C6.90255 21.4337 6.53725 21.4018 6.14296 21.3953Z" fill="#282828"/>
</svg>
