<svg width="32" height="28" viewBox="0 0 32 28" fill="none" xmlns="http://www.w3.org/2000/svg">
<path d="M28.3294 10.2354C28.0941 9.3883 27.3412 8.8236 26.4941 8.8236C25.6471 8.77654 24.8 8.72948 23.953 8.68242C23.5294 6.14124 21.3647 4.0236 18.8235 3.64712C19.0118 3.45889 19.1059 3.17654 19.1059 2.89418C19.1059 2.23536 18.5883 1.71771 17.9294 1.71771C17.2706 1.71771 16.753 2.23536 16.753 2.89418C16.753 3.17654 16.8941 3.45889 17.0824 3.69418C14.6824 4.11771 12.5647 6.14124 12.1412 8.5883V8.68242C11.2941 8.72948 10.4471 8.77654 9.60002 8.87065C8.94119 8.87065 8.37649 9.20007 8.04708 9.71771V2.9883C8.04708 2.32948 7.62355 1.71771 6.96472 1.57654C4.75296 0.917713 4.28237 0.776536 1.97649 0.117712C1.64708 0.0235948 1.2706 0.0706537 1.03531 0.305948C0.423546 0.729477 0.423546 1.67065 1.22355 2.23536C1.55296 2.42359 1.88237 2.51771 2.25884 2.65889C3.38825 2.94124 7.15296 3.97654 7.29413 3.97654V12.2118C7.24708 12.6824 6.63531 18.0942 6.40002 20.353C6.3059 21.153 6.25884 22.0942 6.72943 22.753C7.20002 23.4118 8.04708 23.6471 8.80002 23.6942C9.22355 23.7412 9.5059 23.6471 9.83531 23.553H9.88237C10.2118 23.4589 10.4471 23.4118 10.8235 23.5059C11.0588 23.553 11.3412 23.6471 11.2941 23.6471H11.3412C10.353 25.5765 11.7177 27.8824 13.8824 27.8824C15.6706 27.8824 17.1294 26.1883 16.7059 24.306C16.9883 24.4001 17.1294 24.4001 17.2706 24.4001C18.1647 24.5412 18.8235 24.1177 19.6706 24.1648C20.2824 24.2118 20.8 24.5883 21.4118 24.5883C21.8824 24.5883 22.353 24.2589 22.8235 24.1648C22.2118 26.0471 23.6235 27.9765 25.553 27.9765C27.4824 27.9765 28.8941 26.0942 28.2824 24.2118C28.9412 24.353 29.4118 24.4001 30.0235 23.9295C30.353 23.8354 30.6353 23.6471 30.9177 23.4589C31.2941 23.1765 31.4824 22.6118 31.3412 22.0471C30.353 18.2354 29.4118 14.5177 28.3294 10.2354ZM17.9294 2.42359C18.2118 2.42359 18.4 2.61183 18.4 2.89418C18.4 3.17654 18.2118 3.36477 17.9294 3.36477C17.6471 3.36477 17.4588 3.17654 17.4588 2.89418C17.4588 2.61183 17.6941 2.42359 17.9294 2.42359ZM18.1177 4.30595C20.5647 4.35301 22.7765 6.28242 23.2 8.68242C19.2941 8.54124 15.9059 8.49418 12.8 8.63536C13.2706 6.1883 15.6235 4.25889 18.1177 4.30595ZM8.37649 10.6118C8.42355 10.0001 8.94119 9.52948 9.60002 9.52948C14.3059 9.15301 19.6706 9.15301 26.4471 9.52948C27.0118 9.52948 27.4824 9.90595 27.6235 10.4236C28.6118 14.3295 29.6471 18.3295 30.6824 22.2354C30.7294 22.4707 30.6824 22.753 30.4941 22.8942C29.8824 23.3648 28.7059 23.6471 27.6235 23.2236C27.4353 23.1295 27.2 23.0824 26.9647 23.0354C26.4471 21.2471 26.0706 17.2001 26.353 15.2236C26.4 15.0354 26.2588 14.8471 26.0706 14.8471C25.8824 14.8001 25.6941 14.9412 25.6941 15.1295C25.4118 17.2001 25.7883 21.2471 26.3059 23.1765C25.9765 23.3177 25.6941 23.553 25.4588 23.6001C24.8941 23.7412 24.0941 23.0354 23.2941 23.0354C22.8235 23.0354 22.4471 23.2236 22.0235 23.4118C20.8471 23.9765 20.9883 23.6471 20.0471 23.3177C19.8118 23.2236 19.5765 23.1295 19.2471 23.1295C18.4941 23.1295 17.8353 23.6471 17.2235 23.6001C16.753 23.6001 16.2824 23.2236 15.7177 22.9883C16.0471 19.9295 16.1883 15.1765 15.7647 11.8354C15.7177 11.6471 15.5765 11.5059 15.3883 11.5059C15.2 11.553 15.0588 11.6942 15.0588 11.8824C15.4824 15.0824 15.3412 19.7412 15.0118 22.753C13.9294 22.6118 12.9883 23.4589 12.1883 23.1765C11.7177 23.0354 11.2471 22.4707 10.5412 22.4707C10.1647 22.4707 9.88237 22.6589 9.60002 22.753C8.89413 22.9883 7.76472 22.7059 7.48237 22.0471C7.43531 21.8118 7.48237 22.2354 8.37649 10.6118ZM1.64708 1.62359C1.41178 1.48242 1.2706 1.29418 1.31766 1.10595C1.31766 0.917712 1.5059 0.776536 1.69413 0.776536C1.83531 0.776536 4.7059 1.67065 6.72943 2.23536C7.05884 2.32948 7.29413 2.65889 7.29413 2.9883V3.2236C1.92943 1.81183 1.88237 1.81183 1.64708 1.62359ZM13.8824 27.1295C12.2353 27.1295 11.2 25.3883 11.953 23.9295C12.1883 24.0236 12.4235 24.0707 12.7059 24.0236C13.6 24.1177 13.9765 23.5059 14.7765 23.6471C15.0588 23.6942 15.3883 23.7883 15.7647 23.9295C15.953 24.2589 16 24.5883 16 24.9648C16.0941 26.1412 15.1059 27.1295 13.8824 27.1295ZM25.553 27.2236C24 27.2236 22.9177 25.6236 23.5765 24.1648C24.0471 24.3059 24.4706 24.5412 24.9412 24.6354C24.6588 25.1059 24.9883 25.6707 25.553 25.6707C26.2118 25.6707 26.4941 24.8236 25.9765 24.4001C26.5412 24.1177 26.8706 23.9295 27.5294 23.9765C28.2824 25.4354 27.2 27.2236 25.553 27.2236Z" fill="#282828"/>
<path d="M13.7879 25.6715C14.1778 25.6715 14.4938 25.3555 14.4938 24.9656C14.4938 24.5758 14.1778 24.2598 13.7879 24.2598C13.3981 24.2598 13.082 24.5758 13.082 24.9656C13.082 25.3555 13.3981 25.6715 13.7879 25.6715Z" fill="#282828"/>
<path d="M19.7661 6.00062C20.1897 6.23591 20.5661 6.65944 20.7544 7.13003C20.8014 7.31827 21.0367 7.41238 21.225 7.36533C21.4132 7.31827 21.5073 7.08297 21.4602 6.89474C21.225 6.23591 20.7544 5.71827 20.1897 5.38886C20.0014 5.29474 19.8132 5.3418 19.7191 5.53003C19.625 5.71827 19.5779 5.9065 19.7661 6.00062Z" fill="#282828"/>
<path d="M22.9643 1.62332C22.7761 1.57626 22.5879 1.67038 22.5408 1.85861L22.1643 3.08214C22.1173 3.27038 22.2114 3.45861 22.3996 3.50567C22.5879 3.55273 22.7761 3.45861 22.8232 3.27038L23.1996 2.04685C23.2467 1.85861 23.1526 1.67038 22.9643 1.62332Z" fill="#282828"/>
<path d="M23.6235 4.54042L24.8471 3.31689C24.9882 3.17571 24.9882 2.94042 24.8471 2.79924C24.7059 2.65807 24.4706 2.65807 24.3294 2.79924L23.1059 4.02277C22.9647 4.16395 22.9647 4.39924 23.1059 4.54042C23.2471 4.68159 23.4824 4.68159 23.6235 4.54042Z" fill="#282828"/>
<path d="M24.189 5.85841H25.6949C25.8831 5.85841 26.0713 5.71723 26.0713 5.48194C26.0713 5.24664 25.9301 5.10547 25.6949 5.10547H24.189C24.0007 5.10547 23.8125 5.24664 23.8125 5.48194C23.8125 5.71723 24.0007 5.85841 24.189 5.85841Z" fill="#282828"/>
</svg>
