<svg width="32" height="32" viewBox="0 0 32 32" fill="none" xmlns="http://www.w3.org/2000/svg">
<path d="M31.2236 30.6897C30.7226 30.6396 30.2209 30.5943 29.7187 30.5517C29.7504 29.5643 29.7637 26.937 29.7787 23.2674C29.7927 19.8757 29.8085 16.0311 29.8548 15.6678C29.8778 15.4866 29.9125 15.2128 29.7707 14.9464C29.6843 14.8021 29.5407 14.7679 29.4255 14.7549C29.3792 14.7254 29.3246 14.7071 29.2658 14.7046C26.9603 14.6034 25.0076 14.6312 22.7834 14.6677C22.7534 13.3665 22.7368 12.3615 22.7345 11.6788C22.8804 11.6757 23.0273 11.6733 23.1711 11.6695C23.7755 11.6566 24.7806 11.8112 25.3734 11.524C25.5235 11.4514 25.5937 11.2767 25.5356 11.1205C25.5025 11.0313 25.4537 10.9503 25.393 10.8806C25.0412 10.4476 24.1584 10.1183 23.8153 9.91985C16.2513 5.4991 16.7044 5.65118 16.3131 5.61187C16.3455 5.10662 16.3445 4.59202 16.3361 4.08533C16.3762 4.08597 19.0102 4.12762 19.0655 4.1285C19.2204 4.1285 19.3554 4.01828 19.3837 3.8624C19.3844 3.85877 19.3851 3.85498 19.3859 3.85135C19.566 2.93129 19.3153 2.22492 19.3093 2.18705C19.282 2.09094 19.2561 2.00018 19.2527 1.92727L19.2523 1.88339C19.2525 1.76628 19.2527 1.57042 19.089 1.40012C18.9116 1.22967 18.6726 1.22304 18.5461 1.21957C17.8988 1.19764 17.3607 1.18108 16.4788 1.1542C16.4852 1.1224 16.4889 1.08985 16.4959 1.05826C16.5341 0.883864 16.4236 0.711674 16.2492 0.673321C16.0757 0.635916 15.9026 0.745765 15.8642 0.920007C15.8287 1.08275 15.7996 1.24861 15.7764 1.41444C15.7763 1.41571 15.7754 1.41669 15.7752 1.41796C15.5634 2.8562 15.7772 4.36326 15.6554 5.77125C15.3646 5.91446 15.0659 6.1284 14.7891 6.32815C14.6278 6.44463 14.4755 6.55448 14.3633 6.61998C11.8025 8.12717 9.07902 9.54795 6.67485 11.3665C6.56374 11.4505 6.51907 11.5963 6.56389 11.7282C6.6084 11.8594 6.73151 11.9475 6.86992 11.9475C7.19887 11.9475 8.78497 11.9272 9.1286 11.9224C9.04306 12.8034 8.98829 13.729 8.96304 14.7294C7.31437 14.6972 5.21588 14.6788 3.04985 14.7799C2.96162 14.784 2.87892 14.824 2.821 14.8907C2.76292 14.9573 2.73482 15.0447 2.74303 15.1328C2.99982 17.8962 2.76734 20.7297 2.54227 23.4699C2.35422 25.7607 2.16246 28.127 2.24966 30.467C1.76591 30.4816 1.28209 30.4978 0.798427 30.5114C0.620081 30.5164 0.479456 30.6651 0.484507 30.8436C0.4894 31.0221 0.628446 31.1695 0.816735 31.1575C10.7646 30.8779 21.1258 30.3296 31.1592 31.333C31.1703 31.3341 31.181 31.3346 31.1917 31.3346C31.3559 31.3346 31.4963 31.2103 31.5131 31.0436C31.5308 30.8659 31.4012 30.7076 31.2236 30.6897ZM29.1318 15.3458C29.1602 15.3592 29.1927 15.3708 29.2296 15.3794C29.231 15.4479 29.2211 15.5264 29.2134 15.5864C29.1659 15.9609 29.1504 18.8698 29.1324 23.2649C29.1204 26.1683 29.1071 29.4014 29.0745 30.5007C27.1087 30.3459 25.1361 30.2428 23.1614 30.1823C23.1657 28.5644 23.0014 23.0762 22.8885 18.8536C22.8885 18.8471 22.8912 18.842 22.8911 18.8354C22.8909 18.8298 22.8879 18.8251 22.8875 18.8195C22.8545 17.5864 22.8238 16.394 22.7985 15.3139C25.0008 15.2778 26.8942 15.2512 29.1318 15.3458ZM19.3185 26.3742C19.2964 25.6489 19.2754 24.9639 19.2787 24.3204C19.2826 23.8741 19.2377 23.3267 18.854 23.0568C18.6558 22.9135 18.4312 22.9028 18.2809 22.8957L18.0129 22.884C16.5675 22.8198 15.1438 22.768 13.7277 22.9768C13.5915 22.998 13.2725 23.0475 13.1043 23.3449C13.0112 23.5108 12.9984 23.6899 12.9986 23.8509C12.9772 24.7451 13.0254 25.649 13.0719 26.5231C13.1357 27.7222 13.1993 28.9594 13.0816 30.1587C11.9446 30.1809 10.8103 30.209 9.67927 30.2404C9.69884 30.2029 9.71217 30.1616 9.71557 30.1168C10.0827 25.3113 9.49761 20.0003 9.60035 15.0657C9.60035 15.0657 9.60035 15.0657 9.60035 15.0657C9.60035 15.0654 9.60035 15.0652 9.60035 15.0649C9.6215 13.9271 9.68132 12.8954 9.77854 11.9155C13.3473 11.8825 16.8133 11.8174 20.4695 11.7351C20.4017 11.8476 20.3284 11.957 20.2441 12.0581C20.1299 12.1953 20.1485 12.399 20.2858 12.5133C20.4221 12.6271 20.6264 12.6094 20.741 12.4716C20.8884 12.2945 21.0172 12.1014 21.1236 11.8978C21.1535 11.8404 21.1586 11.779 21.1529 11.719C21.3182 11.715 21.4821 11.7103 21.6468 11.706L21.2094 12.2306C21.0951 12.3678 21.1136 12.5715 21.2506 12.6859C21.3884 12.8007 21.592 12.7812 21.7059 12.6448L22.0918 12.1819C22.0941 12.4015 22.0972 12.6408 22.1015 12.9045C21.8969 13.2314 21.6759 13.551 21.4392 13.8537C21.3294 13.9943 21.3543 14.1975 21.4949 14.3075C21.6361 14.4177 21.8392 14.3919 21.9487 14.2518C22.0086 14.1751 22.0643 14.0944 22.1224 14.0159C22.1284 14.2965 22.135 14.5918 22.1424 14.9054C22.1254 14.9221 22.106 14.9358 22.0926 14.9566C21.875 15.2953 21.6756 15.65 21.5004 16.0109C21.4225 16.1716 21.4894 16.3649 21.6499 16.4429C21.8102 16.5206 22.0037 16.4544 22.0819 16.2934C22.1098 16.2358 22.142 16.1798 22.1713 16.1226C22.1743 16.2466 22.1773 16.3691 22.1805 16.4953C22.0856 16.5452 22.0164 16.6361 22.0071 16.7508C22.003 16.8024 21.917 16.9109 21.8481 17.0182C21.663 17.3076 21.571 17.656 21.589 17.9991C21.5984 18.1796 21.7532 18.3147 21.9286 18.305C22.0739 18.2974 22.187 18.1934 22.2206 18.0594C22.2274 18.3166 22.2343 18.5759 22.2413 18.8371C22.2201 18.8712 22.1579 18.9315 22.0989 18.9906C21.8994 19.1931 21.7508 19.444 21.6689 19.7164C21.6174 19.8873 21.7143 20.0676 21.8852 20.119C22.0479 20.1677 22.207 20.0833 22.271 19.9371C22.2839 20.4108 22.2969 20.8857 22.3099 21.3592C22.2905 21.3802 22.2697 21.3999 22.256 21.4265C22.0456 21.8345 21.9193 22.2923 21.8906 22.7503C21.8794 22.9285 22.0148 23.0819 22.193 23.0931C22.2516 23.0971 22.3034 23.0828 22.3565 23.0561C22.3664 23.4169 22.3761 23.7734 22.3855 24.1235C22.3707 24.1369 22.3534 24.1463 22.3409 24.1627C21.9902 24.6239 21.8055 25.1968 21.8208 25.7759C21.8254 25.9514 21.9692 26.0906 22.1438 26.0906C22.1466 26.0906 22.1496 26.0906 22.1524 26.0905C22.2781 26.0871 22.3819 26.0107 22.4326 25.9047C22.4424 26.2843 22.4515 26.6493 22.4599 26.9973C22.3743 27.0055 22.292 27.0458 22.2351 27.119L21.753 27.7391C21.6434 27.8801 21.6689 28.0832 21.8098 28.1927C21.9509 28.3022 22.1536 28.2769 22.2634 28.1359L22.48 27.8573C22.4874 28.1915 22.494 28.5038 22.4992 28.7878C22.4623 28.801 22.4267 28.8196 22.3953 28.8469C22.1884 29.0276 21.9394 29.1635 21.6753 29.2401C21.5038 29.2898 21.4051 29.4691 21.4548 29.6405C21.5043 29.8111 21.6826 29.9109 21.8552 29.861C22.0866 29.7939 22.3074 29.6899 22.5114 29.5603C22.5143 29.7989 22.5156 30.002 22.5152 30.1653C21.4436 30.1372 20.3718 30.12 19.3005 30.1127C19.3904 28.9374 19.3571 27.6394 19.3185 26.3742ZM18.5263 1.86571C18.5604 1.86666 18.5863 1.86824 18.6059 1.86998C18.6059 1.8912 18.6063 1.91323 18.6067 1.95205C18.6144 2.11771 18.6592 2.26477 18.705 2.426C18.7976 2.76628 18.8259 3.12534 18.789 3.47761L16.326 3.43863C16.3191 2.90991 16.3208 2.34346 16.3789 1.7969C16.4276 1.79835 18.0143 1.84859 18.5263 1.86571ZM14.6902 7.17774C14.8284 7.09709 14.993 6.97825 15.1674 6.85246C15.3831 6.69678 15.67 6.49075 15.9121 6.36487C15.8706 6.55053 15.8462 6.73994 15.8437 6.93232C15.8414 7.11082 15.9842 7.25744 16.1627 7.25981H16.1671C16.3436 7.25981 16.4878 7.11777 16.4902 6.94084C16.4926 6.75636 16.5213 6.57016 16.5718 6.39136C16.7024 6.47067 16.8292 6.56068 16.9273 6.62787C16.8025 6.90357 16.7153 7.19743 16.6769 7.49655C16.654 7.67348 16.7792 7.83557 16.9563 7.8583C17.1283 7.88176 17.2948 7.75933 17.318 7.57894C17.3449 7.37011 17.4033 7.16523 17.484 6.96988C17.6435 7.06316 17.8028 7.15576 17.9623 7.24863C17.8691 7.47641 17.7838 7.70737 17.7167 7.94258C17.6677 8.11429 17.7673 8.29311 17.9389 8.3422C18.1134 8.39141 18.2901 8.28958 18.3385 8.11998C18.3908 7.93638 18.4548 7.75541 18.5248 7.57659L18.8892 7.78958L18.6291 8.36587C18.5951 8.441 18.5438 8.55432 18.5473 8.69557C18.5527 8.91953 18.7067 9.11208 18.9135 9.15343C19.09 9.18849 19.2592 9.07366 19.2938 8.89996C19.3142 8.79816 19.2844 8.69794 19.2214 8.62503L19.4505 8.11763L19.7729 8.306C19.7619 8.31935 19.7478 8.32896 19.7388 8.34441C19.5498 8.66906 19.4157 9.02039 19.3399 9.38844C19.304 9.56332 19.4165 9.73424 19.5914 9.77023C19.7645 9.80609 19.937 9.69486 19.9731 9.51881C20.0347 9.21925 20.1439 8.93358 20.2975 8.66953C20.3062 8.65446 20.3076 8.63783 20.3137 8.62207L20.7983 8.90535C20.6884 8.9885 20.6389 9.12656 20.6936 9.26265C20.6936 9.26297 20.6872 9.304 20.5985 9.41369C20.4839 9.55448 20.3272 9.74734 20.3388 10.016C20.3463 10.1881 20.4892 10.3325 20.6758 10.3263C20.8541 10.3185 20.9924 10.1689 20.9847 9.99056C20.9897 9.95725 21.0587 9.87234 21.119 9.79816C21.3049 9.56767 21.3487 9.37209 21.3368 9.22002L22.1928 9.72035L21.7806 10.2055C21.6649 10.3414 21.6815 10.5455 21.8175 10.661C21.9531 10.7765 22.1572 10.7605 22.273 10.6241L22.7595 10.0515L23.4902 10.4786C23.7518 10.6301 24.219 10.8194 24.5819 11.0449C24.1086 11.074 23.5663 11.014 23.1556 11.0232C22.9081 11.0295 22.6575 11.036 22.4009 11.0393C20.4169 11.1003 14.112 11.2314 9.48009 11.272C8.94426 11.28 8.40985 11.2866 7.87513 11.2922C10.0377 9.7739 12.417 8.51525 14.6902 7.17774ZM2.89573 30.4472C2.80948 28.1439 3.00005 25.7959 3.18669 23.5229C3.4048 20.8654 3.63002 18.1212 3.41569 15.411C5.44505 15.3274 7.39849 15.3453 8.95152 15.3759C8.8779 20.3188 9.42644 25.4174 9.071 30.0676C9.06563 30.1374 9.08788 30.2007 9.12166 30.2564C7.62851 30.2993 7.77437 30.2967 2.89573 30.4472ZM13.732 30.1472C13.8448 28.9244 13.7814 27.6878 13.7175 26.4888C13.6715 25.6269 13.6242 24.7357 13.6449 23.8586C13.6449 23.816 13.6449 23.7025 13.6674 23.6623C13.6715 23.655 13.6952 23.6361 13.8243 23.616C14.3952 23.532 15.0133 23.4865 15.721 23.4767C15.6358 23.5868 15.557 23.7017 15.4861 23.8215C15.395 23.9751 15.4458 24.1733 15.5994 24.2644C15.6512 24.295 15.7078 24.3095 15.7639 24.3095C15.8743 24.3095 15.9818 24.253 16.0423 24.1511C16.1548 23.9612 16.2904 23.7854 16.4454 23.6282C16.4871 23.5859 16.5095 23.5341 16.5232 23.4804C16.5791 23.4815 16.6331 23.4821 16.6902 23.4836C16.7622 23.485 16.8343 23.4894 16.9063 23.4913C16.704 23.6942 16.5543 23.9468 16.4787 24.2249C16.4319 24.3971 16.5337 24.5747 16.7061 24.6216C16.8826 24.6689 17.0568 24.563 17.1027 24.3941C17.161 24.1792 17.2973 23.9801 17.4766 23.848C17.5833 23.7694 17.627 23.6376 17.5994 23.5161C17.7278 23.5215 17.8561 23.5242 17.9845 23.5299L18.2119 23.5398L17.3543 24.7639C17.252 24.9102 17.2875 25.1118 17.4337 25.2142C17.58 25.3164 17.7814 25.2811 17.884 25.1348L18.6258 24.0756C18.6302 24.1467 18.633 24.2241 18.6322 24.316C18.6318 24.3882 18.6344 24.4655 18.6345 24.5386C18.5444 24.5572 18.4621 24.6099 18.4149 24.6972C18.2219 25.0532 17.9907 25.3899 17.728 25.6978C17.6122 25.8335 17.6283 26.0376 17.7642 26.1534C17.8993 26.2689 18.1036 26.2536 18.2198 26.1173C18.3734 25.9373 18.5158 25.7475 18.649 25.5513C18.6515 25.654 18.6546 25.76 18.6576 25.8644C18.5518 25.9056 18.4686 25.9975 18.4522 26.1179C18.4332 26.2565 18.3265 26.4049 18.2137 26.5619C18.0459 26.7953 17.8556 27.0598 17.8581 27.4126C17.8593 27.5903 18.0038 27.7335 18.1813 27.7335H18.1837C18.3622 27.7322 18.5058 27.5865 18.5046 27.4079C18.5038 27.2855 18.5861 27.1547 18.6895 27.0087C18.6935 27.1471 18.698 27.285 18.7012 27.4234C18.6567 27.4476 18.6157 27.4788 18.5855 27.5239L18.0257 28.3588C17.9263 28.5071 17.9659 28.7079 18.1142 28.8072C18.1695 28.8442 18.232 28.8619 18.2938 28.8619C18.398 28.8619 18.5003 28.8117 18.5626 28.7186L18.7141 28.4926C18.7138 29.0525 18.694 29.5933 18.6528 30.1094C17.0098 30.1038 15.3686 30.1186 13.732 30.1472Z" fill="black"/>
<path d="M17.2859 13.7931C16.4887 13.3875 15.5542 13.321 14.7859 13.6146C13.4957 14.1079 12.9868 16.155 13.2867 17.2418C13.3809 17.583 13.5845 18.0596 14.0197 18.3917C14.234 18.5554 14.4755 18.6575 14.6387 18.72C15.1112 18.9013 15.5929 18.9929 16.0522 18.9929C16.3631 18.9929 16.6639 18.9507 16.9442 18.866C17.7791 18.6136 18.4262 17.9803 18.6328 17.2134C18.6858 17.0161 18.7081 16.8207 18.7242 16.6389C18.7572 16.2658 18.775 15.8257 18.6574 15.3922C18.4745 14.7178 17.9875 14.1498 17.2859 13.7931ZM16.757 18.2473C16.1997 18.416 15.5294 18.3693 14.8702 18.1165C14.6675 18.0387 14.5261 17.9651 14.4119 17.8778C14.1839 17.7039 14.0058 17.417 13.9098 17.0697C13.6816 16.2422 14.1044 14.5672 15.0167 14.2184C15.5555 14.012 16.231 14.0444 16.8218 14.293C16.7956 14.377 16.7578 14.4587 16.7057 14.5297C16.6 14.6736 16.6309 14.8759 16.7747 14.9815C16.9184 15.0871 17.1208 15.0565 17.2266 14.9125C17.293 14.8221 17.3443 14.7237 17.3877 14.6218C17.4965 14.7076 17.5941 14.8011 17.6795 14.9015C17.6688 14.9156 17.6548 14.9262 17.6464 14.9424C17.5414 15.1427 17.4079 15.3256 17.2491 15.4858C17.1237 15.6127 17.1246 15.8174 17.2515 15.943C17.3146 16.0053 17.3967 16.0364 17.4789 16.0364C17.5623 16.0364 17.6454 16.0044 17.7087 15.9406C17.828 15.82 17.9325 15.6869 18.0289 15.5479C18.0301 15.5525 18.0321 15.5568 18.0334 15.5614C18.0793 15.7305 18.0978 15.9081 18.1014 16.0832C17.9508 16.0637 17.8027 16.1472 17.7537 16.2969C17.7163 16.4108 17.5978 16.505 17.4781 16.5158C17.3004 16.5319 17.1693 16.6889 17.1852 16.8668C17.2004 17.0347 17.3415 17.161 17.5069 17.161C17.5165 17.161 17.5263 17.1605 17.5362 17.1597C17.7149 17.1436 17.8827 17.0746 18.0234 16.9697C18.018 16.9947 18.0151 17.0207 18.0084 17.0451C17.8618 17.5899 17.3707 18.0617 16.757 18.2473Z" fill="black"/>
<path d="M16.4518 16.0495L16.0416 16.0802L16.1318 15.1576C16.1491 14.9799 16.0192 14.8219 15.8415 14.8045C15.6617 14.7857 15.5056 14.9172 15.4884 15.0948L15.3609 16.3997C15.3516 16.4947 15.3848 16.5889 15.4514 16.6571C15.5124 16.7196 15.5959 16.7545 15.6826 16.7545C15.6906 16.7545 15.6985 16.7542 15.7066 16.7535L16.5004 16.694C16.6783 16.6806 16.8118 16.5255 16.7984 16.3475C16.785 16.1696 16.6322 16.0348 16.4518 16.0495Z" fill="black"/>
<path d="M24.5149 20.2913C25.4191 20.3558 26.4747 20.2998 27.2816 20.1601C27.3263 20.1524 27.4194 20.1362 27.5062 20.067C27.645 19.957 27.6663 19.7979 27.6743 19.7381C27.7711 19.014 27.8351 18.2777 27.8643 17.549C27.8661 17.5048 27.8714 17.3702 27.7707 17.2556C27.6721 17.1418 27.5419 17.127 27.499 17.1219C26.4379 17.0011 25.3785 17.149 24.3505 17.2277C24.1833 17.2405 24.0539 17.3787 24.0518 17.5462C24.0422 18.3694 24.0982 19.2002 24.2182 20.0159C24.2403 20.166 24.3636 20.2804 24.5149 20.2913ZM25.891 17.7504C25.8598 17.8187 25.8241 17.8847 25.7813 17.9468C25.6802 18.0939 25.7172 18.2951 25.8642 18.3964C26.0114 18.4976 26.2124 18.4604 26.3138 18.3136C26.4303 18.1444 26.5187 17.9586 26.5768 17.7615C26.5805 17.749 26.5779 17.7366 26.58 17.7241C26.6356 17.7238 26.6915 17.7242 26.7471 17.725C26.5699 17.9205 26.4134 18.1356 26.2905 18.3667C26.2067 18.5244 26.2665 18.7201 26.424 18.8039C26.5819 18.8878 26.7775 18.8277 26.8612 18.6704C26.9478 18.5075 27.055 18.3543 27.1758 18.213C27.1649 18.3676 27.1562 18.5218 27.1421 18.6769C27.0926 18.6945 27.0455 18.7199 27.0081 18.7619L26.6233 19.1939C26.5194 19.3107 26.5212 19.4788 26.6113 19.5994C26.0335 19.6631 25.3994 19.6872 24.8217 19.6614C24.7442 19.0607 24.7026 18.4529 24.6977 17.848C25.0309 17.8192 25.4259 17.7805 25.891 17.7504Z" fill="black"/>
<path d="M27.459 23.1093L25.2422 23.2196C25.1659 23.2234 25.0072 23.231 24.8754 23.3476C24.7414 23.4665 24.7163 23.6246 24.7041 23.7007C24.5942 24.3814 24.4369 25.2784 24.6304 25.9422C24.822 26.6003 25.3855 26.6601 25.7969 26.7037C25.8937 26.714 25.9934 26.7244 26.093 26.7419C26.6067 26.8326 27.1509 26.7962 27.6653 26.623C27.7789 26.5847 27.8621 26.4867 27.8812 26.3683C28.0191 25.5143 28.085 24.6428 28.0766 23.7779C28.0725 23.3573 27.8782 23.1983 27.7169 23.1396C27.6134 23.1016 27.5169 23.1065 27.459 23.1093ZM26.2051 26.1052C26.0906 26.085 25.9762 26.0727 25.8651 26.0609C25.4314 26.0149 25.3144 25.9794 25.251 25.7615C25.0994 25.241 25.2448 24.4083 25.3329 23.8625L26.4027 23.8092C26.2932 23.9201 26.198 24.0449 26.1247 24.1833C26.0414 24.3412 26.1017 24.5367 26.2595 24.6202C26.417 24.7034 26.613 24.6434 26.6964 24.4854C26.7712 24.3437 26.8817 24.2223 27.0158 24.1344C27.1385 24.0542 27.1834 23.9058 27.1433 23.7723L27.4295 23.758C27.4312 23.8007 27.4292 23.8318 27.4293 23.869C27.3648 23.8861 27.3036 23.9176 27.2586 23.9736L26.6888 24.6837C26.5772 24.8229 26.5995 25.0263 26.7388 25.138C26.8778 25.2494 27.0813 25.2276 27.1932 25.088L27.4012 24.8287C27.3982 24.8793 27.3954 24.9298 27.3918 24.9803C27.3531 25.0083 27.3186 25.0427 27.2947 25.0877C27.1839 25.2956 27.039 25.4802 26.864 25.6366C26.731 25.7556 26.7194 25.96 26.8384 26.0931C26.8525 26.1088 26.8712 26.1162 26.8874 26.1285C26.6601 26.1502 26.4304 26.1448 26.2051 26.1052Z" fill="black"/>
<path d="M7.3677 20.7834C7.41205 20.7757 7.50438 20.7596 7.59229 20.6903C7.73086 20.5803 7.75233 20.4214 7.76038 20.3614C7.85697 19.639 7.92089 18.9028 7.9504 18.1723C7.95214 18.1286 7.95735 17.9954 7.85586 17.8777C7.75738 17.7651 7.62764 17.7501 7.58487 17.7452C6.51982 17.6235 5.4556 17.7731 4.4362 17.851C4.26922 17.8638 4.13964 18.002 4.13775 18.1695C4.12828 18.9937 4.18431 19.8246 4.3041 20.6392C4.32619 20.7893 4.44961 20.9037 4.60081 20.9146C4.85081 20.9324 5.11533 20.9411 5.38538 20.9411C6.06341 20.9411 6.77458 20.8862 7.3677 20.7834ZM4.78374 18.4713C4.93769 18.458 4.86953 18.4632 5.42121 18.4155L5.23434 18.8029C5.15021 18.9774 5.1903 19.1098 5.23891 19.1908C5.33235 19.3455 5.53505 19.4047 5.70214 19.3227C5.83756 19.2561 5.91584 19.0871 5.88585 18.94L6.08771 18.5221C6.11226 18.4711 6.11762 18.4176 6.1147 18.3648C6.17018 18.3617 6.22589 18.359 6.28121 18.3566L6.00422 18.744C5.90053 18.8893 5.93431 19.0912 6.07951 19.1949C6.22621 19.2993 6.42751 19.2637 6.53042 19.1196L6.81593 18.72C6.89816 18.6052 6.89153 18.4568 6.81451 18.3476C6.9141 18.3488 7.01346 18.3544 7.11281 18.3595C6.92633 18.6258 6.76093 18.9075 6.62812 19.2036C6.55504 19.3665 6.62796 19.5577 6.79084 19.6308C6.9472 19.701 7.12841 19.6371 7.20814 19.4837C7.18565 19.7113 7.163 19.939 7.13364 20.167C6.4553 20.2737 5.63522 20.3164 4.90763 20.2847C4.83014 19.6846 4.78863 19.0768 4.78374 18.4713Z" fill="black"/>
<path d="M7.80161 23.7624C7.69933 23.725 7.60653 23.7293 7.54482 23.7325L5.32702 23.8429C5.25094 23.8467 5.09264 23.8548 4.9618 23.9706C4.82733 24.0895 4.80224 24.2479 4.79009 24.324C4.6803 25.0041 4.52289 25.9016 4.71622 26.5656C4.90783 27.2236 5.47143 27.2834 5.88305 27.327C5.9798 27.3373 6.07939 27.3477 6.17898 27.3652C6.70291 27.4572 7.2463 27.4165 7.7511 27.2463C7.86474 27.208 7.94776 27.11 7.96701 26.9916C8.10511 26.1379 8.17093 25.2664 8.16256 24.4009C8.15798 23.9806 7.96401 23.8218 7.80161 23.7624ZM6.29103 26.7285C6.17661 26.7083 6.06234 26.696 5.95123 26.6842C5.51736 26.6382 5.40025 26.6027 5.3368 26.3849C5.18507 25.8634 5.33121 25.0286 5.41887 24.4856L6.26846 24.4433C6.17558 24.5594 6.09754 24.6876 6.04214 24.8254C5.97553 24.991 6.05571 25.1793 6.22143 25.2459C6.38689 25.3127 6.57535 25.2322 6.64189 25.0666C6.6916 24.9428 6.77036 24.8303 6.86963 24.7413C6.96567 24.655 6.99574 24.5247 6.96133 24.4087L7.33601 24.3901C7.15238 24.5718 6.98706 24.7711 6.85369 24.9932C6.76183 25.1463 6.81139 25.3448 6.96449 25.4367C7.1172 25.5283 7.31599 25.4792 7.40798 25.3259C7.43545 25.2802 7.46954 25.2393 7.49984 25.1956C7.49668 25.2652 7.49368 25.3349 7.48958 25.4046C7.48516 25.4089 7.4794 25.4106 7.47522 25.4152L7.08728 25.8445C6.96764 25.9771 6.97806 26.1815 7.11048 26.3011C7.17235 26.357 7.24984 26.3844 7.32702 26.3844C7.35211 26.3844 7.37594 26.375 7.40041 26.3692C7.38715 26.4756 7.37531 26.5823 7.35969 26.6883C7.01152 26.7768 6.64567 26.791 6.29103 26.7285Z" fill="black"/>
</svg>
