<svg width="28" height="24" viewBox="0 0 28 24" fill="none" xmlns="http://www.w3.org/2000/svg">
<path fill-rule="evenodd" clip-rule="evenodd" d="M7.88514 18.6812C7.93339 18.6303 7.95438 18.6274 7.98152 18.5827C8.01378 18.5296 8.0763 18.5553 8.08846 18.5088C8.1115 18.421 8.1556 18.4556 8.16866 18.4033C8.18018 18.3572 8.19797 18.3881 8.20245 18.3646C8.2091 18.3329 8.22146 18.3259 8.23374 18.3118C8.17762 18.2431 8.18338 18.1458 8.08283 18.0867C8.00981 18.0437 7.83054 18.0081 7.74862 18.0198C7.5739 18.0448 7.54434 18.0223 7.37851 18.1148C7.20629 18.2109 7.0116 18.4398 6.94722 18.632C6.9309 18.6807 6.89742 18.6978 6.86069 18.8677C6.82715 19.0229 6.81019 19.1243 6.82376 19.2899C6.84539 19.5541 6.95528 19.8085 7.12526 20.0111C7.3325 20.258 7.57634 20.3857 7.8845 20.4614C8.0347 20.4983 8.30158 20.5115 8.45058 20.472C8.66658 20.4148 8.53864 20.4614 8.74331 20.3664C8.94837 20.2713 9.17915 20.0754 9.30024 19.8985C9.5147 19.5853 9.55368 19.2477 9.47298 18.8853C9.45934 18.8242 9.43733 18.8196 9.44168 18.8009C9.45038 18.7632 9.42075 18.7449 9.40155 18.6953C9.33659 18.5273 9.17883 18.3102 9.0068 18.2309C8.68226 18.0814 8.2525 18.1958 8.26696 18.2661C8.27138 18.2877 8.3005 18.2621 8.28104 18.3225L8.27931 18.3541C8.28072 18.3541 8.28174 18.3577 8.28283 18.3577C8.23202 18.4 8.21134 18.3686 8.26805 18.4597C8.30818 18.5241 8.35381 18.4989 8.36373 18.5019C8.41819 18.5184 8.39611 18.5652 8.41333 18.5652C8.50978 18.5652 8.47618 18.5607 8.59733 18.6989L8.63989 18.7588C8.65205 18.7588 8.61288 18.7966 8.64411 18.8115C8.65768 18.818 8.71886 18.9326 8.72853 19.0155C8.73979 19.1124 8.73646 19.1812 8.70843 19.2794C8.666 19.3788 8.55464 19.4926 8.41998 19.5292C8.3675 19.5435 8.17467 19.6101 8.12725 19.5714C8.12526 19.5698 7.88411 19.4867 7.82997 19.3428L7.77506 19.1387L7.82325 18.8749C7.82677 18.8643 7.84085 18.8608 7.83906 18.8467C7.82677 18.7597 7.85154 18.7902 7.84782 18.7764C7.83854 18.7417 7.87317 18.7552 7.86574 18.7165L7.88514 18.6812ZM20.5624 18.6812L20.6588 18.5827C20.6908 18.53 20.7534 18.5552 20.7662 18.5088C20.7908 18.419 20.8322 18.4567 20.846 18.4033C20.8579 18.3571 20.8753 18.3881 20.8798 18.3646C20.8865 18.3329 20.8988 18.3259 20.9118 18.3118C20.8547 18.2434 20.8616 18.1463 20.7605 18.0867C20.6875 18.0436 20.5075 18.0082 20.4259 18.0198C20.2522 18.0446 20.2208 18.0224 20.0558 18.1148C19.77 18.2748 19.5844 18.6245 19.5264 18.9345C19.5088 19.0283 19.4993 19.0239 19.4979 19.1526C19.4942 19.4782 19.595 19.7599 19.8025 20.011C20.0062 20.2574 20.2568 20.3861 20.5617 20.4613C20.7118 20.4984 20.9793 20.5113 21.1278 20.4719C21.3553 20.4117 21.2067 20.4649 21.4206 20.3664C21.6246 20.2724 21.8576 20.0735 21.9775 19.8985C22.1921 19.5851 22.231 19.2477 22.1502 18.8852C22.137 18.8256 22.1152 18.8188 22.1189 18.8008C22.1272 18.7605 22.098 18.7451 22.0792 18.6953C22.016 18.5282 21.8549 18.3096 21.6841 18.2309C21.3594 18.0812 20.9298 18.1959 20.9443 18.2661C20.9485 18.2867 20.9782 18.2636 20.9591 18.3224C20.9567 18.3297 20.9456 18.3395 20.9573 18.3541C20.9584 18.3541 20.9591 18.3576 20.9601 18.3576C20.9136 18.3998 20.8872 18.3622 20.9457 18.4596C20.9839 18.5233 21.0318 18.4992 21.0407 18.5019C21.0967 18.5184 21.0724 18.5652 21.091 18.5652C21.1852 18.5652 21.1544 18.5602 21.2746 18.6989L21.3178 18.7587C21.3289 18.7587 21.2902 18.7965 21.3217 18.8114C21.3347 18.8176 21.396 18.9319 21.4058 19.0155C21.4172 19.1133 21.4144 19.179 21.3858 19.2793L21.3303 19.3743C21.2046 19.4729 21.2686 19.4814 21.0579 19.5362C21.0022 19.552 20.9338 19.585 20.8789 19.5784C20.8341 19.573 20.8283 19.5927 20.8046 19.5714C20.803 19.5699 20.5611 19.4862 20.5073 19.3427L20.4531 19.1387L20.5013 18.8748C20.5041 18.8642 20.5182 18.8607 20.5164 18.8466C20.5048 18.7601 20.5285 18.7893 20.5256 18.7763C20.5171 18.7385 20.5508 18.7564 20.5432 18.7165L20.5624 18.6812ZM14.2234 18.6812L14.3205 18.5827C14.3537 18.5292 14.4158 18.5547 14.4272 18.5088C14.448 18.4241 14.495 18.4543 14.5077 18.4033C14.5194 18.3565 14.5373 18.3883 14.5415 18.3646C14.5475 18.3329 14.5598 18.3259 14.5728 18.3118L14.4842 18.1394C14.4023 18.0455 14.1838 18.0061 14.0873 18.0198C13.9123 18.0447 13.8835 18.0222 13.7176 18.1148C13.544 18.2117 13.3555 18.4344 13.2863 18.632C13.2689 18.6817 13.2316 18.7083 13.1998 18.8677C13.168 19.0267 13.1476 19.1142 13.1628 19.2899C13.1859 19.5561 13.2948 19.8068 13.4636 20.0111C13.6666 20.2567 13.9189 20.387 14.2229 20.4614C14.3731 20.4981 14.6407 20.5115 14.7893 20.472C15.0153 20.4119 14.8686 20.4649 15.0816 20.3664C15.2864 20.2717 15.5186 20.0752 15.6392 19.8985C15.8542 19.5838 15.8922 19.2485 15.8113 18.8853C15.7977 18.8244 15.7766 18.819 15.78 18.8009C15.7877 18.7595 15.7616 18.7485 15.7406 18.6953C15.6733 18.5253 15.5192 18.3117 15.3451 18.2309C15.0238 18.082 14.5923 18.1949 14.6056 18.2661C14.6094 18.2869 14.6394 18.263 14.62 18.3225L14.6182 18.3541C14.6196 18.3541 14.6207 18.3577 14.6217 18.3577C14.5697 18.4009 14.5505 18.3677 14.6069 18.4597C14.646 18.5236 14.6926 18.4992 14.7019 18.5019C14.7582 18.5181 14.7336 18.5652 14.7519 18.5652C14.8588 18.5652 14.811 18.5636 14.9355 18.6989L14.9788 18.7588C14.9898 18.7588 14.9517 18.7969 14.9827 18.8115C15.0332 18.8354 15.2696 19.391 14.7019 19.5468C14.6631 19.5574 14.4931 19.5963 14.4655 19.5714C14.4634 19.5696 14.2233 19.4871 14.1689 19.3428L14.114 19.1387L14.1622 18.8749C14.1657 18.8643 14.1791 18.8608 14.1773 18.8467C14.1651 18.7511 14.1925 18.8028 14.1864 18.7764C14.1779 18.7386 14.212 18.7565 14.2048 18.7165L14.2234 18.6812ZM21.6077 16.2114C21.4965 15.5678 21.3606 15.1048 21.3358 14.4313L21.3118 13.6502C21.2945 13.5207 21.3214 13.5233 21.3121 13.4813L21.2745 12.2711L21.2562 10.4874L21.24 10.0371H20.9891C20.9356 10.0406 20.8818 10.0477 20.8287 10.0477C20.4875 10.0477 20.1155 10.0543 19.7771 10.0793L19.5717 10.0829C19.5845 10.1341 19.5817 10.2911 19.6037 10.315C19.6407 10.3554 19.6051 10.3693 19.6357 10.4135C19.6375 10.4171 19.6385 10.4171 19.6378 10.4206C19.629 10.4558 19.6575 10.4909 19.6737 10.5296L19.6793 10.6211C19.7162 10.7331 19.7241 11.0427 19.7103 11.1594C19.7048 11.2053 19.7353 11.3419 19.686 11.5394C19.6232 11.791 19.5021 11.989 19.2987 12.155C18.8709 12.5044 18.5921 12.3886 18.1345 12.4154C18.1008 12.4189 18.0666 12.426 18.0321 12.426C17.6842 12.4362 17.4131 12.4287 17.1086 12.2078C16.8223 12.0002 16.6502 11.6506 16.6502 11.2966L16.6822 10.4945C16.6647 10.4412 16.7122 10.4389 16.7153 10.4136L16.7642 10.0794L16.6291 10.0688C16.1674 10.0688 15.6289 10.0574 15.1722 9.99146L15.1666 11.6415C15.1656 11.7083 15.1596 11.7752 15.1585 11.842C15.1563 12.037 15.1609 12.3739 15.1427 12.5492L15.1399 13.1472C15.1331 13.4858 15.0966 14.5687 15.0382 14.8043C14.985 15.0194 14.981 15.3081 14.9267 15.5643C14.889 15.7418 14.8349 16.1257 14.7607 16.2749C16.4043 16.2305 18.0437 16.2445 19.6791 16.2222C19.8624 16.2187 20.0435 16.2116 20.2272 16.2257H20.3637L21.6077 16.2114ZM15.0417 9.27716L15.4931 9.25252C15.5959 9.21476 15.6876 9.24375 15.7299 9.22084C15.7345 9.21732 15.7391 9.21732 15.7433 9.21732C15.832 9.22436 15.9157 9.1962 16.0008 9.18212L16.2208 9.17508C16.4675 9.14077 17.2259 9.13124 17.4922 9.1434C17.5499 9.14692 17.6083 9.13988 17.6668 9.13988H18.1266C18.0152 8.31159 17.8728 7.44541 17.8519 6.59978L17.8318 5.60413C17.8303 5.50289 17.8127 5.38077 17.8283 5.30161L17.7801 3.0289L16.0625 3.04298C16.1187 3.20337 16.0846 3.19377 16.1079 3.32093C16.116 3.36471 16.137 3.34948 16.1385 3.39479C16.1388 3.41591 16.135 3.43351 16.1519 3.45105C16.1537 3.45105 16.154 3.45457 16.154 3.45457C16.1452 3.49329 16.1737 3.52842 16.1899 3.56362L16.1952 3.6586C16.2439 3.84151 16.2187 3.90154 16.2311 4.05265C16.2349 4.10193 16.2321 4.14762 16.2264 4.1969C16.2211 4.24426 16.2503 4.37322 16.2022 4.57335C16.0968 5.01124 15.7278 5.37559 15.2762 5.43882L14.9223 5.44586C14.7996 5.42852 14.3672 5.50954 14.0512 5.4353C13.6244 5.33508 13.2899 5.02109 13.1988 4.58743C13.1399 4.30711 13.1777 4.36209 13.1713 4.13361L13.1977 3.52849C13.1835 3.47517 13.2285 3.47089 13.2315 3.45105C13.2478 3.34295 13.252 3.19133 13.2881 3.0922L11.6895 3.13092L11.6828 4.68593C11.6817 4.75274 11.6758 4.8161 11.6744 4.88292C11.6717 5.06391 11.6767 5.43972 11.6589 5.59357L11.6561 6.19165C11.6492 6.53488 11.6125 7.61021 11.5537 7.8522C11.5002 8.07229 11.4972 8.35057 11.4422 8.61213C11.4051 8.78871 11.3783 9.00413 11.3271 9.17501H11.5083C11.584 9.17149 11.6592 9.16445 11.7349 9.16445C11.9498 9.16445 12.164 9.16445 12.3783 9.16093L13.2206 9.13629L14.6778 9.11517C14.8222 9.11537 14.9521 9.17866 15.0417 9.27716ZM11.9676 10.0864C11.7921 10.0758 11.6176 10.0969 11.4427 10.0899C11.2154 10.0818 10.9846 10.104 10.7616 10.104H10.4348C10.4405 10.1419 10.4417 10.2927 10.4622 10.315C10.4993 10.3554 10.4636 10.3693 10.4942 10.4135C10.496 10.4171 10.497 10.4171 10.4963 10.4206C10.4876 10.4558 10.516 10.4909 10.5322 10.5296L10.5379 10.6211C10.6 10.8016 10.5583 11.1806 10.5738 11.2825C10.6108 11.526 10.8432 11.4148 10.9491 11.4478C11.0058 11.4654 11.0617 11.4408 11.1184 11.4443C11.2226 11.4528 11.2592 11.4336 11.3231 11.4302L11.6362 11.4338C11.7242 11.4555 11.7283 11.4359 11.7998 11.395L11.8442 11.3387C11.8459 11.3352 11.847 11.3282 11.8477 11.3282L11.8864 10.4944C11.8695 10.4401 11.9178 10.4383 11.9198 10.4135L11.9676 10.0864ZM13.764 3.08522H14.1355C14.2112 3.08522 14.2868 3.07466 14.3624 3.07466L15.2163 3.06762C15.2969 3.0641 15.3771 3.05706 15.458 3.06058C15.445 3.09572 15.432 3.13444 15.4035 3.16964C15.3454 3.24023 15.3094 3.5569 15.3022 3.6657L15.2993 3.84509L15.268 4.32004C15.2673 4.32004 15.2673 4.32004 15.2673 4.32004C15.2599 4.33482 15.2661 4.45367 15.1196 4.50999L14.4198 4.54519C14.1901 4.56029 14.0935 4.62858 13.9698 4.37636C13.935 4.30525 13.947 3.99818 13.9251 3.94711C13.9226 3.94007 13.9226 3.93655 13.9255 3.93303C13.9417 3.90903 13.9245 3.88554 13.9216 3.84157C13.8967 3.46698 13.9214 3.45143 13.7679 3.0922C13.7664 3.09226 13.7651 3.08874 13.764 3.08522ZM18.0818 10.1074L18.9118 10.0969C18.905 10.1074 18.8977 10.1215 18.8882 10.1321C18.8296 10.1972 18.7939 10.5253 18.7865 10.6317C18.7769 10.8508 18.775 11.0713 18.7503 11.2896C18.7127 11.5271 18.4863 11.4866 18.3246 11.4866C18.302 11.4866 18.2792 11.4971 18.2567 11.4971L17.9045 11.5077C17.8154 11.4856 17.6026 11.6509 17.4542 11.3423C17.42 11.2713 17.4293 10.9438 17.4099 10.9095C17.4074 10.906 17.4071 10.899 17.4099 10.8955C17.4267 10.8729 17.409 10.855 17.4064 10.804C17.3907 10.5083 17.395 10.3718 17.2677 10.0934C17.28 10.0934 17.2927 10.0969 17.3043 10.0969L18.0818 10.1074ZM24.697 7.04317C24.6954 6.98013 24.6636 6.92266 24.6646 6.80042C24.6648 6.77706 24.6583 6.5626 24.641 6.53303C24.6045 6.47024 24.6378 6.41777 24.609 6.36765C24.6073 6.36765 24.6062 6.36413 24.6069 6.36061C24.6213 6.27773 24.561 6.21962 24.5658 6.1249L23.8484 6.42045C23.7805 6.44861 23.7154 6.48375 23.6479 6.51191L22.9052 6.81092C22.813 6.82852 22.7381 6.88836 22.6504 6.91645C22.6138 6.92701 22.578 6.94461 22.5428 6.95869L23.8097 7.50756C23.9043 7.53181 23.8826 7.57252 23.917 7.58845C23.9539 7.60605 23.9927 7.62013 24.0275 7.64471C24.0302 7.64657 24.3258 7.77745 24.4469 7.86634L24.6052 7.92266C24.6088 7.86225 24.5804 7.81962 24.6259 7.76785C24.648 7.74282 24.6555 7.29732 24.6967 7.14865C24.7061 7.11351 24.6998 7.07831 24.697 7.04317ZM27.6537 16.5563L27.6248 16.704C27.4337 17.179 27.2641 17.668 27.0963 18.1676C26.7065 19.3275 26.2341 20.8164 25.3594 21.7385C24.9102 22.2121 24.5116 22.4891 23.8811 22.7166C23.4697 22.865 22.9231 22.9664 22.4686 22.9664C19.6965 22.9721 16.937 23.0029 14.166 23.0192L7.5709 23.0473C6.86907 23.0473 6.26472 22.9342 5.60283 22.6181C4.46837 22.0763 3.64987 21.1728 2.97058 20.1483C2.48635 19.418 1.95643 18.2842 1.66331 17.485C1.3851 16.7266 1.08142 15.6535 0.92552 14.8112C0.87624 14.5451 1.06683 14.3029 1.34805 14.3046C1.94472 14.3117 2.53787 14.3293 3.1293 14.3504C3.24712 14.3574 3.36501 14.3645 3.47758 14.3715C3.85435 14.4032 4.24667 14.4172 4.63714 14.4313L5.5012 14.4701C5.69909 14.477 5.73102 14.6869 5.78267 14.843C5.89755 15.1902 5.99214 15.4731 6.23438 15.7647C6.54542 16.1392 6.94882 16.3394 6.96226 16.3557C7.01896 16.4247 7.20827 16.4974 7.3348 16.5493C7.50299 16.6196 7.50472 16.6196 7.70882 16.6478C7.554 16.6583 7.40098 16.6513 7.29646 16.6654C7.23438 16.6695 6.70958 16.5469 6.64245 16.5176C6.24872 16.346 5.70446 15.9035 5.48885 15.5079L5.27458 15.0224C5.0139 15.0189 4.74862 15.0294 4.49006 15.04C3.62581 15.0744 2.69186 15.0701 1.81237 15.0822L1.87112 15.2792C1.9533 15.6851 2.15477 16.1536 2.28206 16.5563C2.6644 17.7659 3.49653 19.3899 4.25224 20.2996C4.69154 20.8285 5.1227 21.253 5.70523 21.5873C6.64667 22.1274 7.28808 22.0816 8.24853 22.0798L11.4701 22.0763C11.9109 22.0728 12.3518 22.0693 12.7932 22.0658H16.5971C16.9267 22.0658 17.2606 22.0552 17.5857 22.0658C18.138 22.0834 18.684 22.0587 19.2336 22.0622C20.177 22.0703 21.136 22.0501 22.0833 22.0482C22.5925 22.0471 22.7873 22.0561 23.2724 21.9497C24.463 21.6884 25.1074 20.85 25.6074 19.7438C25.9912 18.8947 26.283 17.8888 26.6248 16.9961L17.0544 16.9539L16.3153 16.9504C16.1017 16.9574 15.8952 16.9574 15.7024 16.9293C15.528 16.9036 12.6487 16.8903 11.9752 16.8589C11.5661 16.8391 11.0221 16.867 10.6024 16.873C10.3639 16.8764 10.3894 16.8425 10.1479 16.8343L9.48898 16.8237C8.88066 16.8398 8.37723 16.8266 7.78338 16.7499C7.76053 16.7463 7.74363 16.7428 7.70882 16.7358C7.80808 16.7126 8.17966 16.698 8.30619 16.6935C8.26056 16.6834 8.17659 16.6846 8.20245 16.6689C8.21019 16.6654 8.24149 16.6619 8.26293 16.6583C8.28475 16.6478 8.30728 16.6372 8.33013 16.6267C8.28782 16.6117 7.89781 16.6013 8.14651 16.5774C8.46562 16.5457 8.80264 16.5351 9.13794 16.5211C10.9251 16.4423 12.7233 16.3419 14.5102 16.2853C14.484 16.2273 14.4753 16.2341 14.4707 16.1446C14.452 15.7727 14.3686 15.9265 14.3877 15.434C14.3953 15.2391 14.3448 15.0061 14.3462 14.7584C14.3464 14.7124 14.3403 14.2629 14.3226 14.2026C14.2864 14.0793 14.3196 13.9758 14.2906 13.8684C14.2888 13.8613 14.2878 13.8543 14.2885 13.8473C14.2973 13.7241 14.2681 13.6045 14.2519 13.4849L14.247 13.1753C14.235 13.0451 14.2326 12.9149 14.2238 12.7883C14.203 12.4787 14.2188 12.1691 14.2111 11.8595C14.2072 11.6976 14.2097 11.5394 14.2153 11.3775C14.2184 11.2966 14.2118 11.2121 14.2118 11.1312L14.2083 10.0793L12.4707 10.0899C12.5971 10.3963 12.5968 10.4783 12.6103 10.8041C12.6123 10.851 12.6312 10.8724 12.6142 10.8955L12.6416 11.4057C12.606 11.8287 12.3157 12.1521 11.9141 12.2782L11.7853 12.3099C11.715 12.3345 11.6203 12.3275 11.5862 12.331L11.4511 12.3521L10.7774 12.3803C10.4867 12.3906 10.2517 12.339 10.0072 12.1375C9.77192 11.9442 9.59022 11.5895 9.61077 11.2756L9.64174 10.8077L9.64488 10.6317C9.65237 10.5207 9.68731 10.205 9.74658 10.1321C9.75432 10.1216 9.76168 10.111 9.76731 10.1005C9.23925 10.091 8.66075 10.0653 8.1451 10.0653L8.09973 13.499C8.09659 13.6224 8.12488 13.6964 8.07899 13.8121C8.06261 13.8533 8.04008 14.8574 8.00866 15.0926C7.9837 15.2762 8.05384 15.5915 8.00405 15.6521C7.978 15.6837 7.97365 15.9294 7.97589 15.9476C7.99816 16.127 7.9707 16.3972 7.88546 16.5598C7.86082 16.5222 7.85083 16.4039 7.8436 16.3522C7.81877 16.4231 7.82997 16.3808 7.77851 16.3452C7.7595 16.3625 7.75234 16.4932 7.72782 16.4085C7.68546 16.2618 7.63624 15.7778 7.60501 15.5853C7.50568 14.9725 7.41198 14.1745 7.39848 13.5553L7.37838 12.5597C7.37672 12.4609 7.35938 12.3429 7.37454 12.2606L7.32456 9.60797C7.32424 9.39684 7.49448 9.22449 7.70594 9.22097L9.3348 9.21745C9.35982 9.21745 9.38511 9.21745 9.41045 9.21393C9.56738 9.20337 9.72565 9.20689 9.88328 9.20337L10.3336 9.18577L10.9848 9.17521C10.9622 8.80733 10.8851 8.96996 10.9028 8.48215C10.9103 8.2769 10.8599 8.04829 10.8613 7.80317C10.8615 7.75453 10.8554 7.30551 10.8384 7.24733C10.8019 7.12176 10.8352 7.02154 10.8057 6.91313C10.8039 6.90609 10.8036 6.89904 10.8036 6.89552C10.8128 6.76887 10.7839 6.64925 10.7677 6.52964L10.7621 6.22007C10.7508 6.08989 10.7473 5.95972 10.7392 5.83306C10.7188 5.52343 10.734 5.21386 10.7265 4.90423C10.7223 4.74237 10.7255 4.58058 10.7312 4.41873C10.734 4.33783 10.7272 4.25687 10.7265 4.17245L10.723 2.64209C10.7228 2.38007 10.9383 2.17066 11.1934 2.17066H11.7588C11.9101 2.16714 12.062 2.16362 12.2137 2.1601H13.5217C13.6346 2.1601 13.7497 2.15306 13.8616 2.1601C14.0515 2.1777 14.2394 2.15306 14.428 2.15658C14.67 2.16631 14.8775 2.14673 15.1098 2.14602L15.8581 2.1425L17.6485 2.18122L18.2026 2.1953C18.4376 2.20586 18.6199 2.40637 18.6096 2.64215L18.5896 3.57796L18.5593 6.39249L18.5555 6.6458C18.5703 6.83025 18.5256 6.82922 18.5217 6.91319C18.5189 6.99761 18.5192 7.08202 18.5101 7.1665C18.5045 7.2193 18.5111 7.27556 18.5087 7.32836C18.5005 7.53783 18.487 7.94666 18.4612 8.14103C18.4372 8.32151 18.5056 8.6426 18.4574 8.70045C18.4147 8.75165 18.4354 9.06205 18.4348 9.13668H19.1487C19.256 9.13316 19.363 9.12612 19.4703 9.12612H20.6352C20.7692 9.14372 20.9022 9.11556 21.0355 9.1226L21.6463 9.10852C21.924 9.10673 22.1441 9.32708 22.1445 9.6081L22.1332 10.463L22.0829 11.9547L22.0558 13.457L22.0396 14.4667C22.055 14.5976 22.0092 14.5952 22.0065 14.6532C21.9963 14.8488 21.9739 15.3689 21.9453 15.5222C21.9195 15.6626 21.9918 15.8749 21.9415 15.9163C21.9013 15.9493 21.9189 16.1637 21.9189 16.2083L24.7215 16.1872C24.691 16.155 24.7218 16.0081 24.6902 15.8776C24.6523 15.7214 24.6659 15.4597 24.6409 15.4167C24.604 15.3533 24.6384 15.3155 24.6085 15.2549C24.6071 15.2514 24.6061 15.2478 24.6067 15.2443C24.6152 15.1845 24.5863 15.1282 24.5701 15.0684L24.5652 14.9171C24.5208 14.6949 24.5393 14.4787 24.5293 14.2803C24.5255 14.2029 24.5279 14.1255 24.5335 14.0481C24.5363 14.0059 24.5297 13.9672 24.5293 13.9285L24.524 12.9117C24.523 12.8379 24.5153 12.7639 24.5142 12.6901L24.5146 11.8949C24.5311 11.8 24.5057 11.712 24.5118 11.6205C24.5188 11.5101 24.5003 11.392 24.4984 11.2898C24.4865 10.6627 24.5471 10.0374 24.568 9.41117L24.5937 8.33815L24.0649 8.27837C23.6414 8.21245 23.6095 8.18129 23.2202 8.04618L23.0165 7.97585C22.951 7.96849 22.932 7.9313 22.9105 7.93009L21.8808 7.56772L21.1775 7.28977C20.8588 7.16465 20.8422 6.70813 21.1775 6.56855L21.6155 6.37853L21.8118 6.27652L22.1246 6.14282L22.7248 5.88247L23.5329 5.50954L24.8318 4.99588C25.0769 4.90442 25.3514 5.02756 25.4442 5.27383C25.4864 5.3832 25.4831 5.61469 25.4608 5.72765L25.4579 6.01969C25.4505 6.18973 25.4147 6.71025 25.3562 6.82532C25.3018 6.93245 25.3013 7.06961 25.2447 7.19473C25.1971 7.29988 25.2065 7.2856 25.22 7.34954C25.2724 7.59562 25.2949 7.63447 25.3059 7.89482L25.3305 8.43313C25.3484 8.5265 25.3194 8.51473 25.3294 8.5457L25.3671 9.37597L25.3864 10.6355C25.3998 10.7093 25.3948 10.7868 25.3984 10.8642L25.4167 11.0823L25.4279 11.6523C25.429 11.6875 25.4371 11.7261 25.4371 11.7613L25.4656 12.4649C25.4854 12.6135 25.4959 13.6569 25.4919 13.8616L25.4606 14.6145L25.4578 14.903C25.4509 15.0715 25.4135 15.5957 25.3561 15.7086C25.3011 15.817 25.3027 15.9447 25.2446 16.0781C25.2284 16.1133 25.2161 16.1519 25.202 16.1871L27.2693 16.1765C27.4812 16.1728 27.6529 16.3451 27.6537 16.5563ZM0.92904 11.7504C0.966928 11.77 0.991696 11.751 1.00258 11.7716C1.02619 11.816 1.0461 11.7927 1.07714 11.7927C1.08949 11.7927 1.10139 11.7997 1.11304 11.7997L1.98907 11.8454L2.59138 11.9017L2.89602 11.8877C2.94107 11.8912 2.98574 11.8665 3.03074 11.8841H3.42338C3.45928 11.8841 3.4955 11.8736 3.53141 11.8736L4.03138 11.8701C4.05109 11.8701 4.0701 11.863 4.08942 11.863C4.17774 11.8709 4.34837 11.8759 4.42613 11.856C4.4571 11.8489 4.4877 11.8454 4.51797 11.8313L4.59221 11.8278C4.62069 11.8102 4.64923 11.7821 4.67912 11.7926C4.68846 11.7942 4.67413 11.775 4.72558 11.775C4.75317 11.775 4.7661 11.7328 4.8955 11.7328C4.95707 11.7328 5.02088 11.6853 5.05698 11.6905C5.18562 11.709 5.122 11.64 5.22658 11.6096C5.26286 11.5991 5.25256 11.5534 5.2804 11.5534C5.29704 11.5534 5.2811 11.5428 5.32546 11.4935C5.27918 11.4247 5.27746 11.3236 5.21218 11.2543L5.00213 11.0995C4.8829 11.0439 4.87291 10.978 4.65627 10.9623C4.5483 10.9544 4.56238 10.9376 4.38082 10.9376L4.27701 10.9236C3.99822 10.9078 3.98779 10.896 3.67682 10.9095L3.31131 10.9306C3.24725 10.9412 3.18325 10.9517 3.11957 10.9552L2.60699 10.9834C2.41595 11.0359 1.93173 11.0018 1.74293 11.0327L1.38478 11.0679C1.37019 11.0782 1.3723 11.0487 1.32846 11.0679C1.30734 11.0771 1.01454 11.0766 0.905232 11.1277L0.580176 11.2966C0.513168 11.3437 0.365968 11.3998 0.377872 11.4444C0.381712 11.4587 0.409295 11.4496 0.393679 11.5006C0.391567 11.5075 0.381519 11.5172 0.393679 11.5323C0.394767 11.5323 0.395792 11.5358 0.39688 11.5358C0.351312 11.5773 0.31816 11.5479 0.387344 11.6379C0.432144 11.696 0.483664 11.6669 0.505168 11.6695C0.599696 11.6812 0.550992 11.7263 0.584656 11.7153C0.728784 11.6682 0.691152 11.7292 0.891088 11.7505C0.903376 11.7504 0.916752 11.7434 0.92904 11.7504ZM3.68059 5.00612C3.72238 5.06417 3.76859 5.03511 3.78792 5.0378C3.87317 5.04945 3.82965 5.09367 3.86075 5.08356C4.00379 5.03697 3.9405 5.09521 4.13832 5.11876C4.15029 5.11876 4.16187 5.11172 4.17314 5.11876C4.20661 5.13873 4.22562 5.11825 4.24034 5.13988C4.27214 5.1866 4.26926 5.161 4.30824 5.161C4.3188 5.161 4.33006 5.16804 4.34094 5.16804L5.13672 5.2138L5.6845 5.27005L5.96104 5.25597C6.00219 5.25949 6.04264 5.23485 6.08347 5.25245H6.44091C6.4733 5.25245 6.50632 5.24189 6.53909 5.24189L6.99259 5.23837C7.01058 5.23485 7.0285 5.23133 7.0461 5.23133C7.1261 5.23927 7.28059 5.24439 7.35144 5.22429C7.3796 5.21725 7.40776 5.21373 7.43586 5.19965L7.50306 5.19613C7.52872 5.17853 7.55477 5.15037 7.58152 5.16093C7.58325 5.16093 7.58434 5.16093 7.58606 5.15741C7.60117 5.132 7.63182 5.15818 7.65858 5.12573C7.68149 5.09796 7.78165 5.11895 7.8644 5.07645C7.93634 5.03953 7.98536 5.07978 8.00654 5.04125C8.05173 4.95895 8.08738 5.00144 8.10613 4.94628C8.11931 4.90743 8.13538 4.93264 8.13992 4.91108C8.14696 4.8794 8.15822 4.87588 8.16878 4.8618C8.12878 4.79345 8.12418 4.69021 8.06638 4.62257L7.87534 4.46775C7.77115 4.41456 7.75701 4.34628 7.56085 4.33053C7.46632 4.32298 7.48258 4.30589 7.31074 4.30589L7.21646 4.29181C6.63298 4.23025 6.37365 4.32369 5.87253 4.34109C5.78395 4.34109 5.79099 4.35831 5.72053 4.34813L5.62306 4.36925C5.58894 4.37277 5.55483 4.36573 5.52104 4.37981C5.51854 4.38109 5.01141 4.3834 4.9131 4.40093L4.58734 4.43607C4.57435 4.44676 4.57691 4.41687 4.53634 4.43607C4.51707 4.44522 4.24974 4.44516 4.15144 4.49591C3.94536 4.60221 3.93096 4.62698 3.75144 4.73162C3.62024 4.8081 3.69141 4.81565 3.6916 4.84068C3.69179 4.86385 3.67426 4.88042 3.68635 4.90052C3.68738 4.90052 3.68885 4.90404 3.68987 4.90404C3.64443 4.94724 3.62037 4.91696 3.68059 5.00612ZM1.77941 4.76337C1.79195 4.85719 1.79842 4.97303 1.85326 5.07293C1.8699 5.10321 1.89749 5.20221 1.93806 5.21015C1.93986 5.21015 1.94158 5.21015 1.94331 5.21367C1.97051 5.22167 1.962 5.23479 2.01717 5.23479C2.13186 5.25079 2.07342 5.29431 2.29019 5.24183C2.30363 5.23786 2.31374 5.21367 2.37954 5.21367C2.38741 5.21367 2.37954 5.19959 2.4228 5.19959C2.4571 5.19959 2.45544 5.17905 2.46574 5.19255L2.52238 5.16087C2.6525 5.16087 2.67694 5.14455 2.78766 5.10461C2.7924 5.09265 2.78926 5.12752 2.80245 5.10461C2.80622 5.09802 2.88462 5.09354 2.91189 5.04477C2.94203 4.99082 3.05211 4.77738 3.04802 4.72816C3.04021 4.60676 3.05371 4.61853 3.05397 4.58039C3.03765 4.46385 3.02158 4.50577 3.01493 4.50301C3.01141 4.49949 3.0075 4.49597 3.00437 4.49245C2.98056 4.49245 3.03099 4.4314 2.97832 4.47133C2.95886 4.48612 2.95816 4.4385 2.91573 4.42205C2.91221 4.42205 2.90907 4.42909 2.90555 4.42205C2.89736 4.40509 2.88968 4.42295 2.88654 4.40093C2.88059 4.35927 2.87522 4.37981 2.86754 4.37981C2.86402 4.37981 2.8612 4.37277 2.858 4.37277C2.71176 4.35953 2.47938 4.27101 2.47592 4.27076L2.36264 4.28836H2.26133L2.10408 4.30596C2.0653 4.30845 2.00834 4.28682 1.97845 4.34116L1.95944 4.34468C1.95202 4.36228 1.94466 4.39044 1.93691 4.37988C1.93621 4.37988 1.93621 4.3834 1.93582 4.3834C1.8765 4.47837 1.88597 4.41021 1.85666 4.46429C1.83637 4.50173 1.82216 4.4625 1.81621 4.49949C1.8061 4.56285 1.75368 4.63408 1.77941 4.76337ZM1.48949 8.32023C1.53154 8.39025 1.56373 8.33527 1.61896 8.36247C1.63899 8.37233 1.62971 8.40516 1.64885 8.40119C1.65333 8.40029 1.71419 8.36868 1.7396 8.38711C1.7997 8.43076 1.97422 8.43204 1.98517 8.45745C2.00379 8.50071 2.01979 8.47217 2.04565 8.47857L2.77992 8.53136L3.23586 8.58769L3.61896 8.56657L4.74299 8.54193L4.83554 8.51728C4.84891 8.51376 4.86299 8.52081 4.87707 8.51377C4.91554 8.4897 4.90235 8.47505 4.95061 8.47505C4.97051 8.44189 4.98581 8.48292 5.01429 8.43985C5.03195 8.41316 5.1204 8.43978 5.19726 8.39057C5.24968 8.35703 5.30184 8.39805 5.32354 8.35537C5.3677 8.26865 5.39643 8.31543 5.41147 8.26391C5.42466 8.21879 5.43746 8.24573 5.44136 8.22871C5.44808 8.19703 5.45755 8.18999 5.46702 8.17591L5.41109 8.00004C5.31957 7.82832 5.16514 7.77354 5.13032 7.72561C5.0603 7.62916 4.69762 7.61879 4.5611 7.60599L4.31202 7.58487L3.84443 7.61655C3.74261 7.62353 3.74594 7.64471 3.56686 7.64471C3.55208 7.64471 3.53768 7.65175 3.5229 7.65527L3.35931 7.66231C3.2925 7.67773 3.31208 7.66039 3.27733 7.66583L3.1204 7.69399L2.72322 7.70455L2.50722 7.72919C2.43592 7.73892 2.36635 7.72906 2.29262 7.75383C2.28981 7.75383 2.28629 7.75383 2.28347 7.75383C2.26869 7.73591 2.24475 7.75306 2.22574 7.75735C2.18293 7.76701 2.00424 7.75684 1.90664 7.81367C1.80866 7.87069 1.73845 7.90666 1.64526 7.98257C1.59253 8.02551 1.47496 8.08548 1.48168 8.12682C1.48763 8.16337 1.5044 8.09655 1.49045 8.19716C1.48942 8.21124 1.49224 8.21124 1.49435 8.21476C1.49538 8.21476 1.49608 8.21828 1.49717 8.2218C1.43573 8.25789 1.46088 8.27249 1.48949 8.32023ZM5.5741 1.68855C5.59029 1.72714 5.61384 1.7409 5.63035 1.72023C5.63246 1.72023 5.63426 1.72023 5.63637 1.72375C5.64373 1.72375 5.65115 1.73079 5.6589 1.73079C5.6733 1.74519 5.66536 1.77162 5.67861 1.76951C5.68597 1.76829 5.72078 1.73687 5.73736 1.75543C5.77544 1.79799 5.89038 1.80119 5.89774 1.82577C5.91093 1.86954 5.91848 1.84055 5.93717 1.84688L6.41602 1.89962L6.714 1.95594L6.96347 1.93482L7.52002 1.91722C7.65211 1.91223 7.66133 1.9242 7.75714 1.88554C7.7659 1.88202 7.77506 1.88906 7.78421 1.88202C7.8093 1.85828 7.80053 1.8433 7.8317 1.8433C7.84533 1.81085 7.85691 1.85009 7.87394 1.8081C7.88405 1.78308 7.94498 1.80644 7.99285 1.75882C8.0235 1.72836 8.0621 1.76138 8.07515 1.72714C8.11534 1.6218 8.12174 1.68906 8.13218 1.63217C8.14011 1.58865 8.14946 1.61328 8.15189 1.59696C8.16622 1.49924 8.17755 1.61124 8.1533 1.47735C8.09928 1.17898 7.99995 1.19344 7.94958 1.09386C7.92392 1.04311 7.79637 0.999845 7.74165 0.991845L7.6667 0.988325L7.4155 0.953125L7.11048 0.984805C7.0548 0.990693 7.0573 1.01296 6.9293 1.01296C6.91982 1.01296 6.91029 1.02 6.90082 1.02352L6.79419 1.03063C6.75093 1.04605 6.76309 1.02896 6.74069 1.03415C6.57736 1.09207 6.53051 1.05585 6.37902 1.07287L6.0923 1.12215C6.08238 1.10416 6.06677 1.12138 6.05499 1.12567C6.04059 1.13092 5.90907 1.12644 5.84635 1.18199C5.79509 1.22736 5.56296 1.44529 5.5691 1.49508L5.57755 1.58301C5.57826 1.58301 5.57864 1.58653 5.57966 1.59005C5.53819 1.62449 5.55842 1.64932 5.5741 1.68855ZM3.68027 1.64631C3.67374 1.61425 3.68654 1.62436 3.68802 1.56541C3.69224 1.39825 3.66658 1.53482 3.7316 1.35082C3.8276 1.0792 3.85858 1.15511 3.89557 1.12567C3.89979 1.11863 3.90824 1.1064 3.91176 1.12215L4.07291 1.06941C4.20552 1.06941 4.15368 1.03357 4.2365 1.02365L4.27483 1.01309C4.32795 1.01309 4.41237 0.942373 4.50984 0.956837L4.59394 0.988517C4.71554 1.00177 4.71221 1.10973 4.73781 1.15389C4.7972 1.25629 4.82242 1.6042 4.80149 1.6042C4.79528 1.63268 4.7716 1.75863 4.75048 1.74493C4.73915 1.73764 4.72898 1.79421 4.69493 1.79421C4.69282 1.79773 4.6907 1.79773 4.68859 1.79773L4.67522 1.82941C4.67208 1.82941 4.66856 1.82589 4.66574 1.84349C4.66504 1.84349 4.66466 1.84349 4.66466 1.84349C4.65288 1.83172 4.66024 1.87581 4.63298 1.88573C4.59266 1.91044 4.65314 1.90589 4.53058 1.91741L4.28923 1.93501C4.27822 1.91741 4.23317 1.97175 4.14606 1.94205C4.08213 1.9137 4.01544 1.87517 3.94837 1.87517C3.94178 1.87517 3.90926 1.85405 3.85301 1.85405C3.85019 1.85053 3.84738 1.84701 3.84456 1.84701C3.84277 1.84349 3.84104 1.84701 3.83893 1.84701C3.80904 1.77975 3.77986 1.78692 3.75803 1.75556C3.74626 1.72561 3.73128 1.80503 3.72776 1.74852C3.72674 1.73444 3.72565 1.73444 3.72392 1.73092C3.7211 1.73092 3.71758 1.72388 3.71438 1.72388C3.71336 1.72036 3.71266 1.72036 3.71157 1.72036C3.69704 1.76484 3.68104 1.65149 3.68027 1.64631Z" fill="#282828"/>
</svg>
