<svg width="30" height="26" viewBox="0 0 30 26" fill="none" xmlns="http://www.w3.org/2000/svg">
<path d="M8.45032 20.3838C8.63182 20.3838 8.77908 20.2365 8.77908 20.055V19.0635C9.46072 19.0375 10.1327 18.9589 10.7453 18.823C10.8912 18.7905 10.997 18.6637 11.0025 18.5143C11.094 16.0878 11.1621 13.9077 11.2543 11.4651C11.2577 11.3782 11.2264 11.293 11.1669 11.2292C10.9999 11.0477 10.8622 11.1519 8.90494 11.0476V9.56314C8.90494 9.38164 8.75768 9.23438 8.57617 9.23438C8.39467 9.23438 8.2474 9.38164 8.2474 9.56314V11.0228C6.46623 10.989 6.42687 10.8775 6.24955 11.049C6.21629 11.0813 6.19149 11.1203 6.17452 11.1625L6.13447 11.142C5.93595 11.3734 5.73743 11.6049 5.5389 11.8363C5.50273 14.0071 5.4424 16.278 5.40625 18.4487C5.42744 18.4863 5.4866 18.4802 5.4523 18.5064C5.77445 18.711 6.1243 18.872 6.48927 18.9836C6.48842 18.9666 6.48791 18.9491 6.48705 18.9319C7.01129 19.0152 7.56293 19.0605 8.12155 19.0683V20.055C8.12155 20.2365 8.26881 20.3838 8.45032 20.3838ZM6.69561 18.3059C6.69306 16.126 6.80948 13.8273 6.80862 11.6265L10.5852 11.7686C10.5161 13.607 10.4337 16.1215 10.3553 18.2322C9.20845 18.4518 7.87669 18.4784 6.69561 18.3059Z" fill="#282828"/>
<path d="M16.0463 17.9496C16.2278 17.9496 16.3751 17.8024 16.3751 17.6209V13.5257C17.1211 13.5015 17.8605 13.3961 18.5296 13.2009C18.6666 13.1611 18.7621 13.0374 18.7663 12.8948C18.8581 9.69547 18.9265 6.81856 19.018 3.62813C19.0232 3.44919 18.8841 3.29936 18.7055 3.29037C17.9613 3.25334 17.2195 3.24767 16.5009 3.24254V2.01041C16.5009 1.8289 16.3537 1.68164 16.1722 1.68164C15.9907 1.68164 15.8434 1.8289 15.8434 2.01041V3.23536C14.1835 3.21729 14.1447 3.10813 14.0008 3.36689C13.7737 3.58703 13.5465 3.80728 13.3193 4.02753C13.2312 6.96385 13.225 9.9234 13.3445 12.8587C13.5862 13.0285 13.8107 13.2619 14.0953 13.3413C14.0956 13.3355 14.096 13.3295 14.0964 13.3238C14.6134 13.441 15.1622 13.507 15.7175 13.5269V17.6209C15.7175 17.8024 15.8648 17.9496 16.0463 17.9496ZM14.4598 12.7296C14.4556 9.79022 14.6152 6.80602 14.6135 3.867C15.8802 3.91506 17.0933 3.88489 18.3515 3.93292C18.2725 6.71159 18.1965 9.81337 18.1161 12.6324C16.9714 12.9244 15.6401 12.9595 14.4598 12.7296Z" fill="#282828"/>
<path d="M24.269 22.3139C24.4505 22.3139 24.5977 22.1666 24.5977 21.9851V17.6161C25.3093 17.5744 26.0121 17.4374 26.6517 17.1945C26.7767 17.1469 26.8606 17.0284 26.8636 16.8944C26.9525 12.8761 27.0261 8.85846 27.1153 4.82845C27.1191 4.6525 26.9834 4.50439 26.8079 4.49326C26.1187 4.44842 25.4342 4.43985 24.7666 4.43333L24.8075 2.18632C24.8109 2.00482 24.6662 1.85499 24.4847 1.85156C24.4826 1.85156 24.4805 1.85156 24.4787 1.85156C24.2998 1.85156 24.1534 1.99497 24.15 2.17434L24.1091 4.42391C22.2592 4.40109 22.3087 4.3016 22.1475 4.47025L22.1191 4.46971C21.939 4.70955 21.7589 4.94949 21.5789 5.18932C21.4633 9.10039 21.3239 13.0599 21.4791 16.9696C21.6114 17.0622 21.8102 17.1539 21.984 17.2459C22.0538 17.3254 22.1109 17.3373 22.1708 17.3552C22.1774 17.3595 22.1861 17.3639 22.1924 17.3682C22.1922 17.3657 22.1922 17.3632 22.1921 17.3608C22.7492 17.523 23.342 17.6099 23.9402 17.6274V21.9851C23.9402 22.1666 24.0875 22.3139 24.269 22.3139ZM22.5566 16.7814C22.5499 12.9512 22.715 8.90635 22.7108 5.04548C23.9774 5.10723 25.1938 5.06859 26.4509 5.1311C26.3667 8.95661 26.3005 12.5741 26.2112 16.6538C25.0686 17.0378 23.7352 17.0836 22.5566 16.7814Z" fill="#282828"/>
<path d="M28.7173 23.1837C27.4403 23.1837 9.16586 23.3383 3.31018 23.3729C3.46814 15.822 3.28963 8.17814 2.78021 0.64817C2.76804 0.464255 2.60297 0.318993 2.4005 0.350546C2.40031 0.347014 2.4001 0.343375 2.39991 0.339844C2.39165 0.344874 2.38456 0.352044 2.37634 0.357181C2.28976 0.378264 2.21991 0.430704 2.17568 0.504227C1.76159 0.820259 1.41425 1.24385 1.09694 1.56459C1.00372 1.65887 0.950026 1.78237 0.953263 1.91487C1.1368 9.40566 1.22745 17.0505 1.04996 24.5522C1.03741 25.0828 1.45174 25.5257 1.98213 25.5444C10.6828 25.8501 19.5163 25.4793 28.213 25.3402C28.5203 24.7401 28.6893 24.3425 28.8474 23.8145C29.1673 23.6767 29.0805 23.1837 28.7173 23.1837Z" fill="#282828"/>
</svg>
