<svg width="30" height="22" viewBox="0 0 30 22" fill="none" xmlns="http://www.w3.org/2000/svg">
<path d="M29.2756 9.83044C29.2141 9.7689 27.0602 6.63044 27.0602 6.69198L25.5833 4.59967L25.2141 4.10736C25.1525 4.04582 25.0294 3.86121 24.9679 3.79967C24.7218 3.55352 24.4756 3.43044 24.1064 3.3689C23.9833 3.30736 23.7371 3.30736 23.6756 3.30736H23.0602H20.4756C20.4141 3.30736 18.4448 3.30736 18.5679 3.30736C18.4448 3.30736 18.3833 3.30736 18.1987 3.30736C18.0141 3.30736 17.891 3.3689 17.7064 3.43044C17.091 3.67659 16.6602 4.29198 16.6602 4.9689V6.26121C16.7218 9.15352 16.7218 10.692 16.7833 14.4458L15.1218 14.3843C15.5525 14.0766 15.8602 13.6458 15.9218 13.092C15.9218 12.7227 15.9218 12.5381 15.9833 12.2304L16.0448 10.5689L16.1064 7.24582L16.1679 3.92275C16.1679 3.86121 16.1679 2.5689 16.1679 2.69198V2.50736C16.1679 2.44582 16.1679 2.32275 16.1679 2.19967C16.1064 1.46121 15.5525 0.722746 14.8141 0.476592C14.6294 0.415054 14.4448 0.353516 14.2602 0.353516C14.0756 0.353516 13.9525 0.353516 13.8294 0.353516C13.7064 0.353516 11.1833 0.353516 11.3064 0.353516H7.98329C7.79868 0.353516 2.69099 0.353516 2.99868 0.353516C2.81406 0.353516 2.75252 0.353516 2.56791 0.353516C1.52175 0.415054 0.783293 1.21505 0.660216 2.19967V2.69198C0.660216 2.81505 0.660216 4.84582 0.660216 4.78429L0.721755 8.10736L0.783293 11.4304C0.783293 11.492 0.844832 12.7843 0.844832 12.6612V12.8458V13.092C0.90637 13.3381 0.967909 13.6458 1.15252 13.8304C1.09099 13.8304 1.02945 13.8304 0.967909 13.8304C0.660216 13.8304 0.414062 14.0766 0.414062 14.3843C0.414062 14.5689 0.414062 16.5381 0.414062 16.4766C0.414062 16.5381 0.414062 17.8304 0.414062 17.7689V18.1381C0.475601 18.3843 0.537139 18.6304 0.660216 18.8766C0.90637 19.3074 1.39868 19.6151 1.89099 19.6766H2.26022H2.50637H2.99868H4.66022C4.84483 20.292 5.15252 20.8458 5.64483 21.2151C6.26022 21.7074 7.06022 21.9535 7.79868 21.7689C6.50637 21.5227 5.64483 20.4766 5.58329 19.4304C5.64483 19.3074 5.70637 19.1843 5.70637 19.0612C5.70637 18.5074 5.95252 17.9535 6.32175 17.5843C6.38329 17.5227 6.44483 17.4612 6.56791 17.3997C6.93714 17.1535 7.36791 16.9689 7.86022 16.9689C8.90637 16.9074 9.95252 17.8304 10.0756 18.9381V19.0612C10.1371 20.2304 9.2756 21.5227 7.86022 21.7689C8.59868 21.892 9.39868 21.7074 10.0141 21.2151C10.5064 20.7843 10.8756 20.2304 10.9987 19.5535C13.0294 19.492 15.1218 19.4304 17.1525 19.3689C17.2141 19.4304 17.2756 19.4304 17.3371 19.4304C18.2602 19.4304 19.2448 19.3689 20.1679 19.3074C20.291 20.0458 20.6602 20.7843 21.2141 21.2151C21.8294 21.7074 22.6294 21.9535 23.3679 21.7689C21.891 21.5227 21.0294 20.2304 21.1525 19.0612C21.2141 17.892 22.2602 16.9074 23.3679 16.9689C24.4756 16.9074 25.5218 17.892 25.5833 19.0612C25.7064 20.2304 24.7833 21.5227 23.3679 21.7689C24.1064 21.892 24.9064 21.7074 25.5218 21.2151C26.0756 20.7843 26.4448 20.0458 26.5679 19.3074L27.3679 19.3689C27.5525 19.3689 27.7987 19.4304 28.0448 19.3689C28.9679 19.2458 29.6448 18.4458 29.7064 17.5227V17.2151V16.5997C29.7064 16.5381 29.8294 10.8151 29.8294 11.1227C29.8294 10.9997 29.8294 10.8151 29.7679 10.692C29.5833 10.2612 29.3987 9.95352 29.2756 9.83044ZM9.39868 2.38428C9.33714 2.69198 9.33714 2.99967 9.33714 3.3689C8.66022 3.3689 7.98329 3.3689 7.30637 3.3689C7.30637 3.06121 7.24483 2.75352 7.24483 2.38428C7.24483 2.07659 7.18329 1.7689 7.12175 1.46121H7.86022H9.46022C9.46022 1.7689 9.46022 2.07659 9.39868 2.38428ZM1.46022 12.9689C1.46022 12.9074 1.46022 12.8458 1.46022 12.7843C1.46022 12.7227 1.46022 12.1074 1.46022 12.1689V11.3074L1.52175 7.98429L1.58329 4.66121C1.58329 4.53813 1.58329 2.44582 1.58329 2.5689C1.58329 2.44582 1.58329 2.26121 1.58329 2.19967C1.58329 2.01505 1.64483 1.89198 1.76791 1.70736C1.89099 1.58428 2.01406 1.46121 2.19868 1.39967C2.38329 1.33813 2.50637 1.33813 2.81406 1.33813C2.8756 1.33813 6.50637 1.33813 6.32175 1.33813C6.26022 1.64582 6.26022 1.95352 6.19868 2.26121C6.13714 2.75352 6.13714 3.30736 6.0756 3.79967C6.0756 4.10736 6.32175 4.35352 6.56791 4.35352H6.62945C7.6756 4.41505 8.72176 4.41505 9.70637 4.35352H9.76791C10.0756 4.35352 10.3218 4.04582 10.2602 3.79967C10.1987 3.30736 10.1987 2.75352 10.1371 2.26121C10.1371 1.95352 10.0756 1.64582 10.0141 1.33813C10.0756 1.33813 12.8448 1.33813 12.6602 1.33813H13.5218H13.891C13.9525 1.33813 14.0756 1.33813 14.1371 1.39967C14.4448 1.52275 14.7525 1.83044 14.7525 2.13813V2.26121C14.7525 2.50736 14.7525 3.79967 14.7525 3.73813L14.8141 7.06121L14.8756 10.3843L14.9371 12.0458V12.8458C14.8756 13.3381 14.5679 13.7074 14.1987 13.892C14.3218 14.0766 14.0756 14.0766 13.7679 14.0766L12.2294 14.1381L9.21406 14.0151C6.81406 13.9535 4.41406 13.892 2.01406 13.8304C1.70637 13.6458 1.52175 13.2766 1.46022 12.9689ZM2.44483 18.3843C2.13714 18.3843 2.13714 18.3843 2.01406 18.3843C1.76791 18.3227 1.52175 18.1381 1.46022 17.892C1.46022 17.8304 1.46022 17.8304 1.46022 17.7074C1.46022 17.6458 1.46022 16.3535 1.46022 16.4151V14.9381C3.92176 14.8766 6.38329 14.8151 8.90637 14.7535L13.5833 14.5689H13.7679C14.0141 14.5689 14.3218 14.6304 14.6294 14.5074L16.7833 14.3843C16.8448 15.8612 16.8448 17.2766 16.9064 18.7535C14.9371 18.6304 12.9679 18.5689 10.9371 18.5689C10.8756 17.892 10.5679 17.2151 10.0756 16.7227C9.46022 16.1074 8.59868 15.7381 7.73714 15.7381C6.99868 15.7381 6.32175 15.9843 5.76791 16.4151C5.64483 16.5381 5.52175 16.5997 5.39868 16.7227C4.90637 17.1535 4.59868 17.7689 4.4756 18.3843H2.93714H2.44483ZM28.291 18.5074C28.1679 18.6304 27.9833 18.692 27.7987 18.692C27.6141 18.7535 27.4294 18.7535 27.1833 18.7535L26.3833 18.8151C26.3833 18.0766 26.0756 17.2766 25.5218 16.7227C24.9064 16.1074 24.0448 15.7381 23.1833 15.7381C22.3218 15.7381 21.4602 16.1074 20.8448 16.7227C20.291 17.2766 19.9833 18.0766 19.9833 18.8151C19.1833 18.7535 18.3218 18.7535 17.5218 18.692C17.7064 12.0458 17.7064 8.72275 17.7679 6.19967V4.9689C17.7679 4.78429 17.891 4.59967 18.1371 4.47659C18.2602 4.41505 18.2602 4.41505 18.5064 4.41505C18.6294 4.41505 20.5371 4.41505 20.4141 4.41505H22.9987H23.8602C23.9218 4.41505 23.9833 4.41505 23.9833 4.47659C24.0448 4.47659 24.0448 4.53813 24.1064 4.53813C24.1679 4.59967 24.1679 4.59967 24.2294 4.72275L24.5987 5.21505L26.1371 7.30736C26.1987 7.3689 28.5371 10.5689 28.4141 10.3843C28.6602 10.7535 28.6602 10.7535 28.6602 11.2458L28.7833 16.3535V16.9689V17.2766C28.8448 17.8304 28.5987 18.2612 28.291 18.5074Z" fill="#282828"/>
</svg>
