<svg width="30" height="30" viewBox="0 0 30 30" fill="none" xmlns="http://www.w3.org/2000/svg">
<path d="M6.79691 22.2619C6.91207 21.9494 7.07308 21.6533 7.24162 21.3636C7.32859 21.2197 7.42514 21.0814 7.51704 20.9403C7.5804 20.9205 7.63643 20.8779 7.66896 20.8141C7.73768 20.6793 7.80511 20.542 7.87354 20.4064C8.8071 19.0844 9.93868 17.7707 10.9814 16.5631C13.8714 13.2715 15.9789 11.0721 22.0466 4.54184C22.9999 3.55178 23.8274 2.47927 24.9303 1.7667C25.4717 1.39688 26.0763 1.12408 26.7179 1.0015C27.3494 0.894964 28.0669 0.961299 28.595 1.41904C28.1571 0.868685 27.3926 0.652492 26.6857 0.682393C25.9684 0.715631 25.2726 0.950717 24.6421 1.27692C23.3615 1.94859 22.4487 2.93487 21.4026 3.90654C20.7458 4.52905 20.1065 5.16968 19.4635 5.80654C18.211 5.66627 16.957 5.54908 15.7035 5.42465C14.3018 5.30342 12.9012 5.16378 11.4985 5.05761C10.0959 4.95093 8.69446 4.82529 7.2908 4.73417L3.08068 4.44859C2.92106 4.4385 2.75515 4.49468 2.63377 4.61726C2.57571 4.67593 0.737006 6.53355 0.853515 6.41584C0.80735 6.46279 0.768678 6.51869 0.74034 6.58246C0.613422 6.86783 0.741902 7.20214 1.02731 7.32905C3.87607 8.5959 4.12721 8.6772 7.38523 10.0776C9.31143 10.8854 11.2414 11.6849 13.1854 12.4531C12.1842 13.6024 11.207 14.7739 10.2784 15.9883C10.0798 16.2467 9.89212 16.5141 9.69819 16.7765C8.93675 16.5938 8.17298 16.4273 7.40795 16.269C6.5457 16.1107 5.68537 15.9392 4.81871 15.8109C4.65 15.7869 4.46939 15.8386 4.33856 15.9674L4.33469 15.9712C4.03171 16.2695 3.72276 16.5617 3.42468 16.8648C3.36761 16.9233 2.4691 17.8445 2.52617 17.7859C2.26999 18.0519 2.3343 18.4899 2.65913 18.6691C3.03462 18.8764 3.41754 19.0702 3.80099 19.2632C4.18537 19.4544 4.5631 19.6576 4.95295 19.839C5.67251 20.1878 6.40071 20.5211 7.1364 20.8408C7.07624 20.9673 7.00856 21.0895 6.95344 21.2187C6.82294 21.542 6.69936 21.8697 6.62752 22.2148C6.57209 22.5449 6.52379 22.9656 6.79279 23.215C6.57759 22.9283 6.69435 22.5629 6.79691 22.2619ZM7.77134 9.21719L4.63711 7.74326C3.84144 7.36741 3.04034 7.0037 2.23959 6.63921L3.26786 5.62153L7.21957 5.85548C8.62347 5.94269 10.0295 5.99539 11.4344 6.06705C12.8392 6.13921 14.2462 6.17792 15.652 6.23502C16.7471 6.26556 17.8419 6.29951 18.9375 6.32181C17.8169 7.44383 16.7096 8.57941 15.6228 9.73609C14.9223 10.4967 14.2306 11.2664 13.5464 12.0432C11.633 11.0754 9.70387 10.1424 7.77134 9.21719ZM4.3142 18.3391C4.16161 18.246 4.00614 18.158 3.85288 18.0662L4.24435 17.6845C4.48196 17.4508 4.71246 17.21 4.94478 16.9711C5.71637 17.0749 6.49158 17.1536 7.26591 17.2386C7.9256 17.2961 8.5865 17.3458 9.24858 17.3873C8.78594 18.0364 8.33672 18.6959 7.91942 19.3788C7.74343 19.6768 7.57003 19.9771 7.40639 20.2831C7.39797 20.2933 7.38945 20.3033 7.38104 20.3136C6.7321 19.8666 6.07638 19.4318 5.4119 19.0127C5.05185 18.7776 4.67969 18.5644 4.3142 18.3391Z" fill="#282828"/>
<path d="M28.7186 5.38675C29.0448 4.75621 29.2743 4.05827 29.3049 3.34215C29.3335 2.63519 29.1246 1.87844 28.5952 1.41992C29.0283 1.96474 29.0908 2.67717 28.9839 3.3104C28.8637 3.95217 28.5952 4.55792 28.2254 5.09833C27.8668 5.64528 27.4284 6.14208 26.946 6.59151L25.4534 7.97844C18.8241 14.139 16.732 16.1476 13.4423 19.035C12.2406 20.0718 10.9043 21.2228 9.57979 22.1538C9.45245 22.2173 9.3233 22.2797 9.19684 22.3436C9.13576 22.3746 9.09371 22.4285 9.07369 22.49C8.9304 22.5832 8.78977 22.6811 8.64361 22.7694C8.35398 22.9375 8.05785 23.0979 7.74556 23.2128C7.44467 23.3149 7.0793 23.4311 6.79297 23.2159C7.04229 23.4845 7.46243 23.4365 7.79219 23.3811C8.13707 23.3097 8.46449 23.1862 8.78757 23.0559C8.91918 22.9999 9.04375 22.9311 9.17251 22.8698C9.49126 23.6069 9.82422 24.336 10.1732 25.0564C10.3537 25.4475 10.5578 25.8256 10.7494 26.2106C10.9433 26.5944 11.1363 26.9786 11.3442 27.3546C11.5293 27.6846 11.9672 27.7401 12.2288 27.485C12.2873 27.428 13.2065 26.5317 13.148 26.5887C13.4517 26.2913 13.7435 25.9819 14.0419 25.6792L14.0477 25.6733C14.1665 25.5512 14.2292 25.3769 14.2024 25.1952C14.0746 24.328 13.9051 23.4669 13.7474 22.6042C13.5896 21.8358 13.4246 21.0684 13.2424 20.3036C13.4994 20.1136 13.7615 19.9299 14.0147 19.7355C15.2253 18.8106 16.3934 17.8373 17.5395 16.84C18.3123 18.7795 19.112 20.707 19.9202 22.6306C20.8288 24.7533 21.7354 26.8769 22.6781 28.9843C22.8437 29.3506 23.3185 29.4337 23.5985 29.1561C23.734 29.0218 25.5026 27.2687 25.3931 27.3773C25.5061 27.264 25.5738 27.1021 25.5621 26.9298C25.3756 24.1223 25.178 21.3155 24.9457 18.511C24.719 15.8622 24.482 13.214 24.1849 10.5696C24.8238 9.92482 25.4665 9.28356 26.0911 8.62489C27.1239 7.51439 28.0533 6.65995 28.7186 5.38675ZM12.7739 22.7461C12.8586 23.521 12.9379 24.2967 13.0415 25.0689C12.8026 25.3011 12.5617 25.5314 12.3286 25.7694L11.946 26.1619C11.8533 26.0078 11.7645 25.8517 11.671 25.6982C11.445 25.3323 11.2316 24.9594 10.9946 24.5997C10.5731 23.9331 10.1354 23.2755 9.68469 22.6251C9.68764 22.6227 9.69055 22.6202 9.6935 22.6178C10.0091 22.45 10.3192 22.2725 10.6261 22.0913C11.3111 21.673 11.9726 21.2225 12.6238 20.7587C12.6657 21.4223 12.7162 22.0848 12.7739 22.7461ZM23.9523 18.5738C24.0718 21.298 24.2245 24.0201 24.3877 26.7416L23.3726 27.7657C22.5311 25.9152 21.6689 24.074 20.8045 22.2338C19.8796 20.2987 18.9467 18.3672 17.9837 16.4491C18.7514 15.7731 19.5123 15.0899 20.2643 14.3982C21.4343 13.3007 22.5819 12.1811 23.7157 11.0483C23.7591 13.5591 23.8493 16.0669 23.9523 18.5738Z" fill="#282828"/>
</svg>
