<svg width="28" height="26" viewBox="0 0 28 26" fill="none" xmlns="http://www.w3.org/2000/svg">
<path fill-rule="evenodd" clip-rule="evenodd" d="M26.9165 24.9712H27.0967L27.1002 24.1444C26.9297 24.18 26.8728 24.1374 26.5571 24.2218C26.4752 24.2437 26.1632 24.2419 26.0747 24.2394C25.8222 24.2322 25.5128 24.2816 25.2011 24.2816C25.1338 24.2816 24.5615 24.287 24.4849 24.3063C24.4184 24.3204 24.3508 24.3239 24.2811 24.3239C24.2041 24.3239 24.1267 24.3204 24.0528 24.338C24.0458 24.338 24.0366 24.3415 24.0289 24.338C23.8674 24.3309 23.7147 24.3591 23.5592 24.3767L23.1588 24.3802C22.9934 24.3943 22.8263 24.3943 22.6606 24.4048C22.262 24.426 21.8623 24.4084 21.4637 24.4154C21.2562 24.4189 21.049 24.4189 20.8414 24.4119C20.7359 24.4084 20.6299 24.4154 20.5237 24.4154L17.8228 24.4224C17.6276 24.4224 17.4323 24.4295 17.2367 24.433H15.5519C15.4059 24.433 15.2578 24.44 15.1135 24.4295C14.8691 24.4154 14.6273 24.44 14.3839 24.433C14.0964 24.4254 13.7949 24.4451 13.5057 24.4471L11.7115 24.4365C11.4272 24.433 11.1426 24.4224 10.8576 24.4189L8.36812 24.3767C7.40659 24.3815 6.43468 24.355 5.47443 24.3485C5.22995 24.3485 4.98611 24.3485 4.74163 24.3485L4.41375 24.345C4.18687 24.3583 4.16703 24.3113 4.07283 24.3099C3.96307 24.3063 3.85363 24.3063 3.74425 24.2993C3.67705 24.2923 3.60633 24.2993 3.53772 24.2958C3.24921 24.2855 2.76198 24.2796 2.49177 24.2501C2.29619 24.2287 1.83859 24.2914 1.77055 24.2466C1.72716 24.218 1.42297 24.2144 1.39027 24.2184C1.28262 24.2255 1.17599 24.2219 1.06835 24.2184L1.06905 24.9326L5.35174 24.9291C5.80383 24.9255 6.25657 24.922 6.70905 24.9185L10.6121 24.915C10.9509 24.9185 11.2936 24.9079 11.6278 24.9185C12.1946 24.9361 12.7546 24.9115 13.3183 24.915L15.3528 24.9009L19.5099 24.9115L21.4874 24.9326L26.9165 24.9712ZM14.914 17.5901C14.716 17.5725 14.5204 17.5972 14.323 17.5936C14.0715 17.5839 13.8539 17.6034 13.6116 17.6042L13.0822 17.6077C13.1063 17.6912 13.0957 17.8583 13.1205 17.8857C13.1567 17.9256 13.1232 17.9633 13.1522 17.9947C13.1539 17.9947 13.155 17.9983 13.1546 18.0018C13.1455 18.0405 13.1747 18.0791 13.1908 18.1214L13.1962 18.2234C13.2556 18.4429 13.2225 18.8243 13.2282 18.8567C13.282 19.1661 13.699 19.0751 13.7939 19.0994C13.8568 19.1135 13.9184 19.0889 13.9807 19.0959C14.0548 19.1037 14.1403 19.0818 14.2051 19.0818L14.4514 19.0783C14.5912 19.0834 14.6373 19.1111 14.7698 19.0537C14.9682 18.9677 14.9353 18.8699 14.946 18.6596L14.9668 18.0827C14.9506 18.021 14.997 18.0218 14.9999 17.9947C15.0069 17.9302 15.0298 17.6694 15.06 17.5936C15.0111 17.5936 14.9622 17.5936 14.914 17.5901ZM11.4093 23.5604C11.1454 23.5604 10.8819 23.5639 10.6184 23.5639C10.5696 23.5486 10.5091 23.4607 10.4875 23.4127C10.4643 23.3607 10.5091 23.3621 10.4872 23.3177C10.4484 23.2389 10.4534 22.9622 10.4601 22.9095C10.4905 22.6717 10.5153 21.608 10.5308 21.5727C10.574 21.4743 10.5488 21.3575 10.5515 21.2455L10.5931 17.8364C10.5951 17.6674 10.7973 17.5648 10.9713 17.569L12.4472 17.6007C12.4373 17.6288 12.4253 17.657 12.4046 17.6851C12.3462 17.7679 12.3108 18.1077 12.3033 18.2304L12.2998 18.4274C12.2712 18.6016 12.2593 18.9727 12.3005 19.1346C12.4212 19.6093 12.8269 19.9357 13.2993 20.0212C13.4533 20.0491 13.7155 20.0212 13.8843 20.0212C13.909 20.0212 13.9343 20.0141 13.9589 20.0106H14.1155C14.3166 20.006 14.6321 19.9719 14.8233 19.9367C15.2915 19.829 15.7119 19.4358 15.7144 18.9341L15.694 18.54C15.6838 18.5206 15.7131 18.5316 15.6947 18.4626L15.6705 18.0967C15.6494 17.8194 15.5467 17.6624 15.5322 17.5901L17.108 17.5795C17.2725 17.5776 17.4511 17.6299 17.4936 17.8047L17.4986 18.7686C17.4986 18.8566 17.5053 18.941 17.5024 19.0255C17.4975 19.1943 17.4939 19.3632 17.4982 19.5321C17.5059 19.8522 17.4901 20.1759 17.5108 20.4996C17.5193 20.6333 17.5221 20.7705 17.5341 20.9042C17.5408 20.9845 17.5266 21.1312 17.539 21.2278C17.5552 21.3545 17.5844 21.4776 17.5756 21.6078C17.5749 21.6148 17.5759 21.6219 17.5777 21.6289C17.5939 21.6887 17.5907 21.752 17.5907 21.8119C17.5912 21.946 17.6139 21.9527 17.6213 22.0722C17.6413 22.3918 17.6206 22.6119 17.6596 22.9694C17.7069 23.4023 17.6246 23.3444 17.6125 23.4655C16.6579 23.4837 15.7156 23.5077 14.761 23.5077C14.6632 23.5077 14.5661 23.5183 14.4687 23.5183C14.2653 23.5183 14.0609 23.5183 13.8572 23.5218C13.6947 23.5218 13.5307 23.5183 13.3689 23.5253C13.2303 23.5323 13.0931 23.5359 12.9544 23.5288L12.3732 23.5464L11.4093 23.5604ZM1.43673 23.5674C1.71852 23.1769 1.99718 22.7864 2.27161 22.3888C2.79686 21.6324 3.3422 20.8831 3.85759 20.1161C4.07257 19.796 4.29241 19.4793 4.50355 19.1592C4.66764 18.912 4.87545 18.6471 5.03372 18.3993C5.2279 18.0932 5.40767 17.7871 5.6311 17.488C5.64166 17.474 5.65254 17.4564 5.66099 17.4423C5.74611 17.2911 5.85273 17.1468 5.95475 17.0025C6.1214 16.7644 6.20819 16.5943 6.35967 16.3728C6.84115 15.6688 7.34495 14.9675 7.80601 14.2548C8.09772 13.8038 8.4167 13.3619 8.72211 12.9215C8.74003 12.9215 8.75731 12.9179 8.7742 12.9144C9.08947 12.8757 9.4272 12.8581 9.77721 12.8511C9.91334 12.8511 10.0446 12.844 10.1435 12.8229C10.3189 12.784 10.4396 12.805 10.5787 12.7912L10.5516 13.5757L10.5481 14.1703L10.533 14.888C10.5325 15.2547 10.7504 15.5528 11.0558 15.7218C11.3378 15.8777 11.5406 15.8743 11.8259 15.8766C12.7012 15.8834 13.5743 15.8562 14.4462 15.8484L15.2877 15.8238C15.502 15.8203 15.7163 15.8203 15.9305 15.8203C16.0061 15.8203 16.0818 15.8132 16.1571 15.8097H16.3938C16.8111 15.8097 17.2094 15.6803 17.4303 15.2679C17.5814 14.9857 17.522 14.7681 17.5147 14.4658C17.5108 14.3074 17.5165 14.1526 17.5031 13.9943C17.5007 13.9697 17.502 13.9451 17.502 13.917L17.4975 12.8686C18.1848 12.9373 18.7341 12.9128 19.4106 12.9179C19.5028 13.0669 19.4504 13.0436 19.6034 13.2521C19.8335 13.5657 20.2274 14.0842 20.427 14.3955C20.8504 15.0558 21.3384 15.751 21.7836 16.4043C21.9588 16.6625 22.4785 17.3835 22.5716 17.5654C22.7155 17.8462 22.9126 18.0788 23.0945 18.3429L26.9035 23.8031L26.2418 23.701C25.9099 23.6454 25.6168 23.6471 25.262 23.5885C24.8989 23.5285 23.6013 23.4965 23.1233 23.4864H22.3539C22.1878 23.4724 22.0207 23.4724 21.8536 23.4724L19.7674 23.4477C19.3807 23.4512 18.9937 23.4548 18.6074 23.4583C18.466 23.4583 18.3245 23.4583 18.1835 23.4618C18.2701 23.2714 18.2674 22.8511 18.3252 22.6069C18.3843 22.3579 18.4197 21.2319 18.4266 20.8759L18.4294 20.2532C18.4435 20.116 18.4406 19.9823 18.4431 19.8451C18.4513 19.1691 18.468 18.5119 18.4624 17.8327C18.4568 17.155 17.8731 16.6542 17.2434 16.6224H16.9528C16.1771 16.6315 15.4093 16.6708 14.6283 16.6647C14.5496 16.6647 14.4704 16.6752 14.3912 16.6752L13.1645 16.6858L12.2001 16.7175L11.3287 16.721L10.8545 16.728C10.2646 16.7988 9.77632 17.2294 9.78284 17.8327L9.82649 19.9472C9.81151 20.0251 9.82841 20.1627 9.82963 20.2638L9.85036 21.3016C9.86368 21.8828 9.91289 22.2973 9.98406 22.8672C10.016 23.1231 10.0145 23.3555 10.1561 23.5638L9.09958 23.5673L6.14643 23.6166C6.04902 23.5991 5.88428 23.6201 5.75731 23.6201L4.24627 23.6412C3.47014 23.6563 2.03116 23.8282 1.19283 23.9156C1.27379 23.7996 1.35436 23.68 1.43673 23.5674ZM14.4225 4.4252C14.0435 4.40888 13.8363 4.4218 13.4547 4.45688C13.4871 4.55524 13.4703 4.71128 13.4972 4.73835C13.5299 4.77131 13.5021 4.81797 13.5292 4.8474C13.5306 4.8474 13.532 4.85092 13.5313 4.85092C13.5226 4.89317 13.5514 4.93182 13.5672 4.97054L13.5729 5.06904C13.6195 5.2387 13.5985 5.35275 13.6088 5.48766C13.6127 5.54046 13.6095 5.5932 13.6042 5.64248L13.6116 5.91339C13.6145 6.01476 13.6483 6.15467 13.7351 6.2124C13.7874 6.22974 14.1279 6.20069 14.2013 6.19832H14.3976C14.3589 6.20964 14.3942 6.26628 14.4894 6.11038C14.5642 5.98782 14.5516 5.91128 14.5573 5.78321L14.59 4.93182C14.5754 4.87205 14.6198 4.87345 14.6227 4.8474C14.6299 4.78622 14.6555 4.5123 14.6839 4.45336C14.6857 4.44984 14.6863 4.44632 14.6867 4.4428C14.5988 4.43921 14.5108 4.43217 14.4225 4.4252ZM11.4765 14.8459C11.4765 14.8459 11.4772 14.8495 11.4793 14.853C11.4782 14.8495 11.4758 14.8459 11.4765 14.8459ZM11.481 14.8635C11.4813 14.8635 11.481 14.86 11.4796 14.8565L11.4803 14.8741L11.481 14.8635ZM16.6129 14.8671C16.6129 14.8741 16.6129 14.8741 16.6136 14.8635C16.6129 14.8635 16.6129 14.8671 16.6129 14.8671ZM13.5135 11.7851H13.5145C13.5145 11.7816 13.5145 11.7816 13.5142 11.7816L13.5135 11.7851ZM14.7293 11.1097C14.7272 11.1238 14.7339 11.1378 14.7283 11.1484C14.7188 11.1695 14.7195 11.1906 14.7167 11.2118C14.7146 11.2242 14.6678 11.2332 14.6829 11.2751L14.6547 11.7958C14.6547 11.7922 14.647 11.7852 14.648 11.7922C14.6186 11.8045 14.5708 11.8253 14.4609 11.8134L14.1664 11.8063C14.1393 11.8063 14.1119 11.8134 14.0844 11.8169L13.5672 11.8063L13.5151 11.7746V11.6937C13.5079 11.6279 13.5238 11.4877 13.4799 11.3771L13.4743 11.3033C13.4578 11.2751 13.4293 11.2434 13.4384 11.2153C13.4384 11.2118 13.4377 11.2118 13.4359 11.2118C13.4197 11.1977 13.4232 11.1837 13.4225 11.1696C13.4203 11.126 13.4025 11.149 13.3923 11.1062C13.3662 10.9975 13.4072 11.0356 13.3455 10.8811L13.9277 10.9092C14.013 10.9131 14.3505 10.9139 14.3963 10.9339C14.4877 10.9736 14.6399 10.955 14.7612 10.955L14.7293 11.1097ZM17.7493 12.7139C17.6916 12.6928 17.5755 12.7033 17.4967 12.6893L17.4974 12.7913C17.5723 12.7878 17.6476 12.7842 17.7243 12.7807C17.6794 12.7705 17.5914 12.7718 17.6181 12.7561C17.6262 12.7526 17.6582 12.749 17.6804 12.7455C17.7032 12.735 17.7258 12.7245 17.7493 12.7139ZM19.5597 12.5662C19.592 12.5616 19.6047 12.5776 19.6259 12.5979L21.4051 14.8952C21.4371 14.7763 21.3912 14.8124 21.4532 14.6137C21.5683 14.2459 21.5213 14.1642 21.562 14.0016C21.7323 13.3207 21.7046 13.2645 21.7583 12.5803C21.769 12.4437 21.7872 11.9172 21.7519 11.7641C21.7221 11.6345 21.7268 11.3853 21.6921 11.2751C21.6897 11.268 21.6882 11.2575 21.6875 11.2469C21.6804 11.0898 21.6262 10.8764 21.5827 10.7262C21.5498 10.6125 21.5326 10.4342 21.4894 10.2864C21.1891 9.28248 20.9938 8.79422 20.4596 7.90469C20.2483 7.55275 19.7037 6.89009 19.4123 6.60996C18.9634 6.17854 18.4667 5.76939 17.9231 5.46302C17.1853 5.04721 16.3165 4.69771 15.4758 4.55179L15.1708 4.49201C15.3069 4.82308 15.2952 4.9187 15.3137 5.26603C15.3162 5.31332 15.3341 5.3363 15.3172 5.361L15.3414 5.73393C15.3596 5.94968 15.3605 5.9468 15.3375 6.1772C15.5122 6.1772 15.6132 6.233 15.7541 6.32849C15.7736 6.34168 15.7981 6.33073 15.8023 6.35665C15.803 6.36017 15.8058 6.36369 15.809 6.36369C15.8357 6.36209 16.0166 6.481 16.0591 6.50091C16.1645 6.55019 16.4524 6.77412 16.5773 6.83512L16.8422 6.98993C16.8538 7.00049 16.8704 7.00049 16.882 7.00753C16.9558 7.05784 16.9501 7.0666 17.0406 7.10603C17.1764 7.17636 17.2475 7.32062 17.2274 7.46136C17.2061 7.61374 17.1927 7.73969 17.1511 7.89054C17.1213 7.99844 17.0038 8.3786 16.9309 8.49566C16.9307 8.49592 16.82 8.82366 16.7001 8.86507C16.6371 8.88683 16.6449 8.92139 16.5499 8.96708C16.3498 9.0634 16.4149 9.04593 16.1696 9.04094C16.1321 8.98731 16.1194 9.01028 16.1239 8.9882C16.1281 8.96753 16.0814 8.96075 16.0827 8.93188C16.0858 8.86558 15.999 8.85707 16.0447 8.77707C16.0651 8.74142 16.0262 8.69841 16.0447 8.64337C16.0795 8.54052 16.0386 8.5267 16.0458 8.50264C16.0493 8.49208 16.0559 8.48152 16.0436 8.46744C16.0426 8.46744 16.0419 8.46392 16.0426 8.46392C16.0581 8.4428 16.038 8.41464 16.0296 8.38654L16.0426 8.33022C16.0303 8.20638 16.0726 8.15051 16.0845 8.08395C16.0901 8.05227 16.1024 8.02769 16.1172 7.99953L16.2136 7.67588C16.1102 7.64363 15.7469 7.27883 15.6165 7.16574L15.1704 6.79633C15.1296 6.78097 15.1628 6.75633 15.1497 6.74001L15.1163 6.70129C14.9268 6.96414 14.657 7.09905 14.338 7.11646L13.9616 7.12702C13.9373 7.13054 13.9134 7.13758 13.8891 7.13758C13.5187 7.13758 13.2589 7.13656 12.9667 6.79633C12.9421 6.88574 12.9577 6.80702 12.8668 6.93707L12.306 7.36632C12.2602 7.40331 12.0296 7.59915 11.9919 7.60555C11.9627 7.61048 11.9279 7.65956 11.8906 7.68299C11.9021 7.79422 11.9738 8.0204 12.0049 8.15793L12.0721 8.41828C12.0984 8.44171 12.0543 8.46417 12.0559 8.4746C12.0607 8.50846 12.0842 8.66955 12.0693 8.71384C12.0552 8.75556 12.1428 8.79032 12.0978 8.81585C12.0613 8.83652 12.1025 8.88894 12.1041 8.92491C12.1053 8.95243 12.0715 8.97976 12.0507 9.0058C12.0277 9.0058 12.065 9.03038 11.9807 8.99524C11.9734 9.01342 11.9434 9.00081 11.9236 9.00933C11.897 9.02078 11.9124 9.07819 11.8044 8.99172C11.6644 8.87985 11.4791 8.79339 11.4002 8.62584L11.3126 8.43588C11.2826 8.40612 11.313 8.40491 11.2999 8.39365C11.2749 8.37208 11.2296 8.24196 11.2116 8.20369C11.0979 7.9626 11.0922 7.90289 11.0001 7.65483L10.9713 7.59857C10.9122 7.44376 10.9632 7.27486 11.0859 7.17636L11.1922 7.07435L11.379 6.92305C11.3899 6.91249 11.3966 6.89841 11.4079 6.88785C11.5222 6.79947 11.5013 6.82379 11.6116 6.70488L11.8325 6.51845C12.0359 6.35064 12.0378 6.37067 12.2234 6.25105L12.2983 6.21585C12.3261 6.19473 12.3525 6.17361 12.3827 6.15608C12.4506 6.11473 12.5762 6.06366 12.6532 6.05406C12.6298 5.8508 12.6534 5.60094 12.6638 5.39262L12.6782 5.25188C12.6782 5.09668 12.6944 4.66942 12.7816 4.54475C12.7827 4.54475 12.7837 4.54123 12.7848 4.54123L12.1512 4.67492C10.3382 5.10571 8.6608 6.2771 7.65107 7.8483C7.21311 8.52984 6.82739 9.32881 6.63993 10.121C6.59942 10.2923 6.49606 10.7302 6.48441 10.8914C6.46559 11.1521 6.4174 11.1568 6.40595 11.2714C6.39539 11.3945 6.38201 11.5212 6.36902 11.6443C6.34259 11.8979 6.35551 12.9893 6.40703 13.2345L6.53126 13.7588C6.57164 13.9118 6.52038 13.8517 6.55129 13.991C6.62892 14.3407 6.64204 14.3103 6.74201 14.6242C7.18329 14.0831 7.61094 13.4807 8.06131 12.9285L8.40537 12.4992C8.48601 12.3983 8.62278 12.4314 8.75545 12.4429C9.03763 12.4605 9.32224 12.4781 9.59878 12.4992L10.2049 12.5696C10.2824 12.6083 10.428 12.6294 10.5712 12.6505C10.5761 12.654 10.5796 12.654 10.5835 12.654C10.5914 12.5022 10.6184 12.0596 10.6532 11.9187C10.7097 11.6902 10.7342 11.0693 10.8495 10.8527C10.951 10.6621 11.1354 10.5463 11.3357 10.5361C11.3707 10.5343 11.4226 10.5737 11.5078 10.5854C11.5476 10.5908 11.5599 10.6304 11.6538 10.6523C11.5029 10.6991 11.587 10.7157 11.5035 10.7296C11.4438 10.7397 11.4544 10.783 11.3691 10.8457C11.235 10.9444 11.3114 11.0223 11.3012 11.0674L11.3037 11.289C11.2961 11.4955 11.3466 11.7159 11.3453 11.9645C11.345 12.0182 11.3503 12.4558 11.3688 12.5204C11.4035 12.6412 11.3717 12.7367 11.4008 12.8546C11.4022 12.8616 11.4036 12.8687 11.4029 12.8722C11.3942 12.9988 11.4227 13.1184 11.4388 13.2381C11.4515 13.3279 11.4374 13.4683 11.4445 13.5476C11.4557 13.6743 11.4589 13.8045 11.4673 13.9346C11.4877 14.2407 11.4726 14.5468 11.4796 14.8528C11.497 14.9225 11.7396 14.9129 11.7956 14.9127L13.5588 14.9056C13.7105 14.9021 13.8618 14.8986 14.0127 14.8951H15.3179C15.4312 14.8951 15.5455 14.888 15.657 14.8986C15.8467 14.9127 16.0342 14.888 16.2224 14.8951C16.3183 14.8969 16.5327 14.9142 16.6066 14.8458C16.6231 14.8305 16.6106 14.6263 16.6112 14.596L16.684 11.0708C16.6847 11.0708 16.6851 11.0743 16.6865 11.0743C16.694 11.0869 16.6715 11.0143 16.5412 10.9899C16.4189 10.967 15.4452 10.9641 15.2743 10.9618C15.4017 11.2069 15.3871 11.2593 15.407 11.5247C15.4099 11.5632 15.4276 11.5771 15.4108 11.5985L15.4284 11.8518C15.4183 12.2983 15.039 12.6132 14.6161 12.6786C14.3859 12.712 14.2191 12.7309 13.987 12.7349C13.9691 12.7349 13.9504 12.7455 13.9325 12.7455C13.6035 12.7455 13.476 12.8151 13.1328 12.661C12.8151 12.5184 12.5711 12.2153 12.5583 11.8554L12.5836 11.5282L12.5864 11.384C12.5941 11.297 12.6303 11.0368 12.6884 10.9864C12.7176 10.9612 12.7387 10.9036 12.7553 10.8703C12.5103 10.8939 12.6061 10.8488 12.4904 10.8386C12.2954 10.8215 12.1908 10.8412 11.9908 10.8316C11.908 10.8276 11.7123 10.7757 11.6538 10.7401C11.687 10.7172 11.8129 10.7026 11.8585 10.6979C11.8422 10.687 11.8134 10.6894 11.823 10.6733C11.8258 10.6697 11.8363 10.6662 11.8437 10.6627C11.8515 10.6521 11.8589 10.6416 11.8666 10.6345C11.8483 10.6128 11.7176 10.6059 11.804 10.5818C11.9295 10.5467 12.9169 10.4183 13.1567 10.3883C13.5549 10.3364 14.0831 10.2673 14.4763 10.2546L15.6472 10.2335C15.7519 10.2329 15.8739 10.2127 15.9487 10.23C15.9635 10.2335 15.9803 10.23 15.9955 10.23C16.1175 10.2124 16.241 10.223 16.3638 10.2194C16.5176 10.2125 16.6181 10.208 16.7895 10.2582C17.1817 10.3729 17.4695 10.6637 17.4787 11.0955L17.4966 12.6716C17.6503 12.6398 19.2614 12.5791 19.5597 12.5662ZM5.40057 16.3974C5.75929 15.9054 6.16671 15.348 6.53798 14.874C6.28767 14.4091 6.01945 13.5974 5.9086 13.0833C5.64927 11.8803 5.69043 10.8672 6.00959 9.67774C6.04678 9.53912 6.25663 8.85508 6.33606 8.72081L6.47891 8.37957L6.86342 7.64779C7.12307 7.20625 7.47264 6.72094 7.81612 6.33553C9.01286 4.99288 10.5046 4.14916 12.242 3.72158C13.0067 3.53336 13.7802 3.47524 14.5713 3.51755C14.6938 3.52459 14.8162 3.52459 14.9379 3.53515C15.713 3.61604 16.5416 3.81003 17.2785 4.09099C18.4561 4.54008 19.6161 5.35934 20.4526 6.30392C21.081 7.01355 21.5551 7.79518 21.9211 8.66814C22.0584 8.99569 22.2776 9.7018 22.3507 10.0438C22.5232 10.8507 22.584 11.7014 22.4766 12.5206C22.4678 12.5839 22.4576 12.6472 22.4418 12.7105C22.2828 13.3645 22.329 13.3837 22.0745 14.065C21.9644 14.3596 21.8393 14.631 21.6653 14.8918C21.6242 14.9535 21.6295 14.8921 21.5154 15.0395L22.7588 16.6825L22.8728 16.4292L22.8105 16.5031C22.8087 16.4925 22.8189 16.4679 22.8239 16.4468C22.8239 16.4257 22.8246 16.4046 22.8246 16.3835C22.789 16.4112 22.6265 16.711 22.7064 16.5031C23.0731 15.5488 23.2395 15.2047 23.4248 14.146C23.4336 14.0948 23.4678 14.0705 23.5092 14.051C23.8054 13.9384 24.1037 13.8258 24.4017 13.7097L24.9368 13.5022C25.1403 13.399 25.21 13.2208 25.201 13.0061C25.1734 12.3396 25.1428 11.6612 25.1387 10.9938C25.1365 10.6155 24.9696 10.5875 24.6522 10.4871L23.4468 10.1072C23.2355 10.0407 23.226 9.84728 23.1805 9.67089L23.0454 9.21355C22.9955 9.06577 22.9406 8.92504 22.8998 8.7738C22.8721 8.66936 22.5469 7.95435 22.4906 7.84504L22.0188 7.01124C21.9509 6.90571 21.9495 6.77201 22.0026 6.66648H22.0033L22.6275 5.414C22.7204 5.23019 22.753 5.08862 22.5687 4.91441L21.0474 3.41918C20.8691 3.30884 20.7771 3.36632 20.6404 3.43678L19.3956 4.07358C19.1976 4.17464 19.0596 4.06872 19.015 4.05598C18.6234 3.81323 18.2146 3.59864 17.7921 3.41214C17.268 3.18417 16.7197 3.01374 16.1624 2.88792C15.94 2.83768 15.8896 2.67998 15.8353 2.51851C15.6846 2.07102 15.5437 1.68913 15.4054 1.24139C15.3292 0.994861 15.1469 1.0268 14.9473 1.0268L12.993 1.03736C12.9137 1.05982 12.8244 1.05617 12.7601 1.19921L12.428 2.23C12.3854 2.36721 12.3428 2.50091 12.3006 2.6346C12.2469 2.80587 12.127 2.8915 11.9734 2.9372C11.4739 3.05681 10.9866 3.22219 10.5155 3.4227C10.4881 3.43678 10.46 3.44734 10.4321 3.46142C9.99168 3.65137 9.56595 3.88011 9.1607 4.13688C9.01593 4.22788 8.82451 4.23345 8.68607 4.158L7.31398 3.47198C7.17459 3.42827 7.08569 3.55563 6.97376 3.66897L5.60236 5.05163C5.52665 5.16312 5.54803 5.21816 5.59712 5.3155L6.2448 6.60318H6.2455C6.32576 6.76152 6.31129 6.94443 6.22368 7.08516C5.89926 7.60779 5.6734 8.02552 5.443 8.60497C5.32019 8.91384 5.09823 9.54212 5.02751 9.90315C4.98809 10.065 4.86745 10.1846 4.71968 10.2338L3.33459 10.6771C3.19788 10.7191 3.14399 10.7766 3.12211 10.9234L3.11577 11.349L3.07884 12.985C3.07481 13.1332 3.07411 13.2349 3.22943 13.3509C3.32844 13.4248 4.00831 13.6637 4.12268 13.7062L4.69158 13.9243C4.77388 13.956 4.82879 14.0299 4.84287 14.1108C4.95257 14.7508 5.02495 15.0606 5.22143 15.6939L5.36601 16.19C5.36121 16.2426 5.3774 16.3165 5.40057 16.3974ZM27.895 25.4004C27.8954 25.6047 27.7313 25.7698 27.5235 25.7698L25.5617 25.7839H23.5518L19.6168 25.7909C19.5418 25.7909 19.4655 25.7874 19.3909 25.7909C18.9202 25.805 18.4481 25.7979 17.9763 25.8015C17.6308 25.805 17.2859 25.812 16.9405 25.8191L15.6701 25.8226L13.1219 25.8331C12.896 25.8331 12.6705 25.8402 12.4446 25.8402C11.8033 25.8402 11.1622 25.8402 10.5219 25.8472L0.846331 25.9H0.600059C0.324603 25.9 0.101562 25.6784 0.101562 25.4004L0.106491 23.9474C0.107195 23.8419 0.140603 23.7434 0.196923 23.666L2.69727 20.1689C2.72505 20.1302 2.75289 20.0916 2.77958 20.0528C3.59443 18.8862 4.45254 17.6957 5.29331 16.5417C5.2334 16.4328 5.18937 16.3367 5.11596 16.2498C5.05971 16.1829 5.0062 16.0809 4.95622 15.9753C4.82886 15.6974 4.70783 15.4335 4.58227 15.1838C4.49081 15.0069 4.37964 14.5906 4.33145 14.3992C3.90399 14.2594 3.41939 14.1527 3.01849 14.0122C2.61791 13.8719 2.34463 13.4694 2.33983 13.0447C2.33785 12.8658 2.33971 12.4491 2.32255 12.2989C2.28908 12.005 2.31993 11.6982 2.29055 11.451L2.27929 10.9373C2.24383 10.4866 2.53043 10.0208 2.98259 9.86078L4.18751 9.44561C4.40339 8.5587 4.80396 7.58923 5.27641 6.79998L4.72473 5.73048C4.48294 5.25425 4.56275 4.7299 4.93759 4.3443L6.1918 3.0883C6.3319 2.94756 6.46393 2.79774 6.63084 2.68721C6.97504 2.45937 7.43827 2.45195 7.80275 2.63793L8.87999 3.17976C9.69548 2.69995 10.5763 2.32113 11.4961 2.09265C11.6176 1.71915 11.7715 1.18936 11.9126 0.843693C12.0968 0.392429 12.5487 0.115437 13.0272 0.115437L14.7272 0.104877C15.1123 0.0986047 15.4334 0.0650049 15.7879 0.298349C16.1563 0.540845 16.2341 0.828589 16.3547 1.19902L16.6431 2.08209C16.9545 2.16651 17.2612 2.26507 17.5628 2.37764C18.1137 2.5852 18.6443 2.84203 19.1498 3.13758C19.1811 3.1587 19.2121 3.1763 19.2434 3.1939L20.327 2.65208C20.7739 2.42942 21.3055 2.49604 21.6582 2.85259L23.1485 4.3619C23.5197 4.7411 23.5996 5.22193 23.3723 5.69528L23.2833 5.86769L22.8097 6.7859C22.8059 6.79294 22.802 6.8035 22.7981 6.81054C23.0523 7.21892 23.3486 7.86283 23.5197 8.30929C23.6664 8.69278 23.7875 9.08683 23.886 9.48088L25.0966 9.87844C25.5692 10.0368 25.8545 10.492 25.8438 10.9867C25.8396 11.1825 25.8094 11.3134 25.8079 11.4475C25.8048 11.6656 25.8048 11.8803 25.796 12.0949C25.7829 12.4093 25.8141 12.8966 25.7741 13.1961C25.722 13.5872 25.4129 13.9161 25.0399 14.0228C24.6065 14.1469 24.2377 14.2557 23.811 14.4063C23.7858 14.5191 23.7461 14.7157 23.6893 14.8004L23.418 15.5216C23.2598 16.0065 23.076 16.333 22.7992 16.7353C23.6431 17.8809 24.4712 19.0608 25.2995 20.2183C25.4527 20.4324 25.7034 20.7567 25.8212 20.9536C25.8441 20.9923 25.8744 21.0345 25.9018 21.0697C26.127 21.3582 26.33 21.6642 26.5457 21.9633L27.8161 23.7435C27.8796 23.8336 27.8807 23.9049 27.8819 23.9968L27.895 25.4004ZM14.4036 6.19832H14.3976L14.4082 6.1948L14.4099 6.19832H14.4036Z" fill="#282828"/>
</svg>
